<?xml version="1.0" standalone="no"?>
<!DOCTYPE svg PUBLIC "-//W3C//DTD SVG 20010904//EN"
 "http://www.w3.org/TR/2001/REC-SVG-20010904/DTD/svg10.dtd">
<svg version="1.0" xmlns="http://www.w3.org/2000/svg"
 width="700.000000pt" height="700.000000pt" viewBox="0 0 700.000000 700.000000"
 preserveAspectRatio="xMidYMid meet">
<metadata>
Created by potrace 1.11, written by Peter Selinger 2001-2013
</metadata>
<g transform="translate(0.000000,700.000000) scale(0.100000,-0.100000)"
fill="#000000" stroke="none">
<path d="M0 3500 l0 -3500 3500 0 3500 0 0 3500 0 3500 -3500 0 -3500 0 0
-3500z m1740 1529 c136 -21 227 -88 282 -206 28 -59 30 -71 26 -147 -5 -98
-34 -159 -99 -206 l-40 -29 48 -25 c65 -33 111 -80 142 -146 23 -48 26 -68 26
-160 0 -95 -3 -111 -28 -162 -15 -31 -49 -78 -75 -103 -103 -103 -196 -125
-517 -125 l-225 0 0 660 0 660 198 0 c108 0 226 -5 262 -11z m980 -534 l0
-545 203 -2 202 -3 3 -112 3 -113 -326 0 -325 0 0 660 0 660 120 0 120 0 0
-545z m1020 100 c0 -283 4 -462 11 -495 13 -62 62 -129 112 -153 51 -25 163
-25 214 0 50 24 99 91 112 153 7 33 11 212 11 495 l0 445 120 0 120 0 0 -471
c0 -535 -3 -564 -70 -668 -46 -70 -133 -139 -218 -172 -69 -27 -214 -37 -292
-20 -125 27 -262 127 -310 226 -51 105 -52 120 -57 628 l-5 477 126 0 126 0 0
-445z m1878 333 l-3 -113 -232 -3 -233 -2 0 -160 0 -160 225 0 225 0 0 -115 0
-115 -225 0 -225 0 0 -155 0 -155 233 -2 232 -3 3 -112 3 -113 -356 0 -355 0
0 660 0 660 355 0 356 0 -3 -112z m-4103 -1998 c77 -165 143 -300 146 -300 3
0 68 134 145 298 l140 297 132 3 c73 1 132 -1 132 -5 0 -4 -97 -195 -215 -423
l-215 -415 0 -242 0 -243 -120 0 -120 0 0 247 0 246 -201 391 c-111 215 -208
403 -216 419 l-14 27 133 0 133 0 140 -300z m1593 -353 c149 -358 272 -658
272 -665 0 -10 -30 -12 -131 -10 l-131 3 -71 173 -71 172 -236 0 -236 0 -71
-172 -71 -173 -132 -3 -132 -3 4 23 c3 13 125 312 273 666 l268 642 96 0 96 0
273 -653z m1015 638 c89 -19 156 -56 218 -122 69 -72 101 -147 107 -244 12
-212 -108 -393 -291 -440 -26 -6 -47 -14 -47 -16 0 -3 79 -112 175 -243 96
-131 175 -241 175 -244 0 -3 -65 -6 -144 -6 l-144 0 -179 258 -178 257 -3
-257 -2 -258 -120 0 -120 0 0 665 0 665 243 0 c172 0 262 -5 310 -15z m1206
-14 c130 -33 204 -73 286 -155 81 -81 143 -195 171 -311 19 -82 22 -247 5
-320 -58 -246 -220 -420 -446 -479 -78 -21 -318 -38 -470 -34 l-120 3 -3 664
-2 663 247 -5 c208 -4 262 -8 332 -26z"/>
<path d="M1520 4665 l0 -148 91 6 c134 9 191 50 191 140 0 99 -53 139 -189
145 l-93 4 0 -147z"/>
<path d="M1520 4124 l0 -177 113 5 c171 6 239 47 253 150 5 36 2 56 -15 90
-38 77 -110 108 -258 108 l-93 0 0 -176z"/>
<path d="M2666 2687 c-38 -100 -71 -188 -74 -194 -3 -10 30 -13 148 -13 83 0
150 4 148 9 -1 4 -34 92 -73 195 -38 102 -72 186 -75 186 -3 0 -36 -82 -74
-183z"/>
<path d="M3810 2795 l0 -205 78 0 c223 0 323 72 309 222 -12 133 -104 188
-314 188 l-73 0 0 -205z"/>
<path d="M4997 2994 c-4 -4 -7 -200 -7 -436 l0 -428 88 0 c185 1 313 52 394
158 194 254 56 640 -247 690 -88 15 -220 24 -228 16z"/>
</g>
</svg>
