<svg xmlns="http://www.w3.org/2000/svg" width="500" height="131" viewBox="0 0 500 131"><g fill="#1783FA"><path d="M336.96 22.349h-4.801c-2.243 0-4.059 1.816-4.059 4.062v53.181999999999995c0 14.563 9.081 25.792 24.044 25.792h9.46c2.24 0 4.059-1.817 4.059-4.063v-3.395c0-2.254-1.837-4.079-4.085-4.065l-7.217.036c-9.683 0-12.884-6.065-13.344-19.082v-26.751h20.561c2.244 0 4.056-1.82 4.056-4.06v-3.435c0-2.246-1.813-4.062-4.056-4.062h-20.561v-10.095c0-2.246-1.817-4.062-4.058-4.062m111.12 14.165h-6.396c-7.94 0-14.278 3.047-18.592 8.034-4.25-4.987-10.523-8.034-18.46-8.034h-6.387c-15.567 0-25.017 11.681-25.017 26.845v37.962c0 2.246 1.813 4.063 4.054 4.063h4.774c2.243 0 4.06-1.818 4.06-4.063v-36.016c0-9.178 4.343-17.248 15.323-17.248 10.982 0 15.152 8.069 15.152 17.248v36.016c0 2.246 1.816 4.063 4.059 4.063h4.855c2.241 0 4.06-1.818 4.06-4.063v-36.016c0-9.178 4.344-17.248 15.319-17.248 10.976 0 15.146 8.069 15.146 17.248v36.016c0 2.246 1.821 4.063 4.06 4.063h4.674c2.241 0 4.055-1.818 4.055-4.063v-37.962c0-15.164-9.173-26.845-24.736-26.845m-139.837 0c-15.568 0-25.014 11.681-25.014 26.845v37.962c0 2.246 1.819 4.063 4.06 4.063h4.772c2.241 0 4.06-1.818 4.06-4.063v-36.016c0-9.178 4.343-17.248 15.319-17.248h5.291c2.241 0 4.061-1.819 4.061-4.063v-3.423c0-2.245-1.825-4.062-4.069-4.062l-2.084.005h-6.396zm-40.392-7.5h-5.852c-2.311 0-4.182-1.873-4.182-4.187v-5.845c0-2.311 1.871-4.184 4.182-4.184h5.852c2.305 0 4.174 1.873 4.174 4.184v5.845c0 2.314-1.869 4.187-4.174 4.187m-23.462 27.453c-6.081-14.363-20.847-23.138-36.649-21.254-16.843 2-29.959 16.054-30.876 33.001-1.092 20.287 15.08 37.137 35.114 37.137l10.698.028c2.243.005 4.056-1.095 4.056-3.333v-4.696c0-2.237-1.813-3.369-4.043-3.369h-10.225c-12.2 0-22.526-10.942-22.888-23.143-.375-12.685 9.82-23.118 22.405-23.118 7.618 0 14.656 3.834 18.818 10.252 2.359 3.632 3.607 7.842 3.607 12.182v31.165c0 2.246 1.816 4.063 4.06 4.063h4.63c2.242 0 4.059-1.818 4.059-4.063v-31.165c0-4.744-.924-9.35-2.764-13.689m18.146 48.927h4.808c2.242 0 4.059-1.82 4.059-4.063v-60.761c0-2.243-1.817-4.06-4.059-4.06h-4.808c-2.241 0-4.055 1.817-4.055 4.06v60.761c0 2.243 1.814 4.063 4.055 4.063m235.37-70.434v-6.593l-2.86 6.593h-1.671l-2.775-6.509v6.509h-2.152v-10.329h2.803l3.03 7.188 3.029-7.188h2.633v10.329h-2.038zm-14.411-8.405v8.405h-2.152v-8.405h-3.172v-1.925h8.494v1.925h-3.171zm-410.004 51.206s11.872 7.188 29.224 3.377l2.993 45.347c.156 2.172-1.497 3.95-3.673 3.95h-44.274c-2.176 0-3.829-1.777-3.674-3.95l3.037-45.994c4.047.228 9.723-.188 16.367-2.73zm7.537 36.849c4.748-.453 7.169-3.196 7.169-6.812 0-3.961-2.349-5.984-6.884-6.629l-1.156-.163c-2.542-.351-3.41-1.19-3.41-2.413 0-1.28.887-2.189 2.541-2.322.328-.012.571-.019.9.006 1.184.082 2.346.418 3.278.87.451.223.934.353 1.386.353 1.156 0 2.056-.868 2.056-2.059 0-.774-.352-1.42-1.125-1.902-1.042-.651-2.831-1.189-4.754-1.372v-3.025c0-.702-.572-1.276-1.28-1.276-.705 0-1.278.574-1.278 1.276v3.019c-4.03.423-6.55 2.958-6.55 6.626 0 3.861 2.446 5.953 6.916 6.568l1.159.161c2.606.351 3.376 1.155 3.376 2.441 0 1.517-1.255 2.578-3.57 2.578-1.61 0-2.894-.416-4.696-1.416-.386-.225-.869-.385-1.385-.385-1.22 0-2.121.93-2.121 2.093 0 .769.386 1.51 1.127 1.993 1.263.784 3.217 1.611 5.744 1.812v3.629c0 .708.573 1.282 1.278 1.282.708 0 1.28-.574 1.28-1.282v-3.651zM135.47 41.716c.915-17.869-11.826-35.416-29.244-40.122-3.816-1.028-8.035-1.594-11.879-1.594-.89 0-1.753.03-2.564.088-12.504.876-24.009 7.232-30.904 17.041-3.208-1.074-6.58-1.617-10.033-1.617-6.032 0-12.064 1.675-17.444 4.843-8.858 5.216-14.892 14.046-16.21 23.682-11.051 5.955-17.772 17.868-17.153 30.468.857 17.44 15.551 31.102 33.452 31.102h17.147c.409 0 .751-.312.788-.72l.791-8.635c.021-.222-.053-.442-.203-.606-.15-.165-.362-.258-.585-.258h-18.713c-6.188 0-11.96-2.472-16.253-6.96-4.289-4.484-6.502-10.367-6.231-16.568.377-8.631 5.997-16.48 14.317-19.997l1.719-.727c.262-.111.445-.354.478-.637l.421-3.637c.453-7.141 4.72-13.757 11.415-17.698 3.813-2.246 8.054-3.432 12.266-3.432 3.22 0 6.28.678 9.093 2.016l4.373 2.079c.371.175.816.038 1.024-.317l2.682-4.607c4.825-8.298 14.205-13.901 24.477-14.623 3.36-.23 7.463.208 11.069 1.181 13.449 3.635 23.306 18.148 21.526 31.694l-.689 5.279c-.051.393.196.764.579.867l4.77 1.288c9.813 2.665 16.667 11.643 16.667 21.834 0 12.663-10.139 22.964-22.602 22.964h-15.45c-.223 0-.435.094-.585.258-.15.164-.224.384-.203.606l.791 8.638c.037.408.379.72.788.72h14.659c18.095 0 32.816-14.888 32.816-33.187 0-13.625-8.48-25.889-21.161-30.707"/></g></svg>