<svg height="109" viewBox="0 0 501 109" width="501" xmlns="http://www.w3.org/2000/svg"><g fill="#111"><path d="m37.2367816 50.6249042h-20.0145594l-3.585249 11.0708812h-13.6310345l21.2354406-57.36302678h11.9373563l21.3141763 57.36302678h-13.6308429zm-3.3478927-10.3220306-6.6591954-20.4475096-6.618774 20.4475096zm61.6168582-21.2354406v42.6283524h-11.5434866l-.3545977-4.4913793c-1.3173107 1.6689865-3.0028094 3.0106584-4.9247126 3.920115-2.0644476.9376874-4.3122819 1.4023864-6.5793104 1.3601532-3.8653397.218379-7.6474401-1.1803042-10.440613-3.8611111-2.5214559-2.5739463-3.7821839-6.5662196-3.7821839-11.9768199v-27.5793103h12.2915709v27.6567049c-.130605 1.6118138.4191532 3.2047509 1.5160919 4.3929119 1.1558977 1.0115391 2.6631904 1.5280067 4.1965518 1.437931 2.9241457.2927877 5.757357-1.1161478 7.2885057-3.624521v-29.8630268zm30.1392719 33.0545977v9.2584291c-2.313094.7601466-4.735883 1.1329182-7.170498 1.1032567-3.443153.2339863-6.842044-.8824174-9.475862-3.1124521-2.193103-2.0743295-3.2894-5.3443168-3.288889-9.8099617v-21.5505747h-5.8308428v-8.943295h5.8308428v-10.55842917h12.292146v10.55842917h7.130843v8.943295h-7.130843v20.0544061c-.145513 1.2284425.209438 2.4637622.984866 3.4275862.968843.6994584 2.159497 1.021625 3.34885.9061303 1.109322.0104355 2.217214-.0822362 3.309387-.2768199zm5.181418-23.3233717c1.515446-3.202655 3.940272-5.8882589 6.97203-7.7218391 6.860582-3.7297815 15.143634-3.7297815 22.004215 0 3.036429 1.8251699 5.468312 4.5039061 6.992337 7.7021073 1.64047 3.505044 2.4561 7.3393417 2.384291 11.2086207v.8273946c.067724 3.8625398-.747782 7.6895118-2.384291 11.1888889-1.512904 3.199203-3.9387 5.8791565-6.971839 7.7022989-6.867316 3.7034653-15.13709 3.7034653-22.004406 0-3.038688-1.8134346-5.471887-4.4866206-6.992337-7.6819924-1.641217-3.5047936-2.456884-7.3392666-2.384291-11.2086207v-.8273946c-.068368-3.8627866.747168-7.690089 2.384291-11.1894636zm11.819923 20.585249c1.310206 2.1364204 3.70519 3.360683 6.204215 3.171456 2.479812.1744565 4.847373-1.0589705 6.125479-3.1911878 1.393218-2.6264317 2.05356-5.5795413 1.911685-8.5492337v-.8273946c.130836-2.9624225-.528966-5.9063072-1.911685-8.5295019-1.282637-2.1742326-3.6867-3.4336803-6.204406-3.2503832-2.493861-.1698342-4.868101 1.0900163-6.125479 3.2503832-1.383274 2.6229849-2.043047 5.5670387-1.911495 8.5295019v.8273946c-.147472 2.9764098.512884 5.9372888 1.911111 8.5689655zm68.964176-2.7381226c.046538 2.912272-.776462 5.7722631-2.363793 8.2143679-1.592833 2.4182996-3.812408 4.3587225-6.421839 5.6141762-6.396461 2.9345236-13.809059 2.6418228-19.954214-.787931-2.949241-1.8262489-5.282413-4.4957064-6.69751-7.6628353-1.538771-3.5052937-2.298527-7.3027678-2.22682-11.1302682v-.9848659c-.070162-3.8335485.689471-7.636937 2.22682-11.1494253 1.408391-3.1701747 3.734068-5.8458207 6.677203-7.6819923 3.284022-1.9492351 7.056593-2.9196287 10.873563-2.7969349 3.222453-.0657801 6.414997.6293441 9.318391 2.0289272 2.630757 1.2972231 4.822653 3.3384404 6.30364 5.8703065 1.561937 2.7664127 2.344556 5.9045683 2.264559 9.0804598h-11.543486c.052056-1.8506763-.570832-3.657105-1.752491-5.0823755-1.242581-1.3558567-3.030049-2.0794996-4.8659-1.9699233-2.363329-.2371312-4.627819 1.008895-5.692337 3.1321839-1.130733 2.709705-1.64889 5.635746-1.517433 8.5689655v.9848659c-.144332 2.9468485.374209 5.8885418 1.517433 8.6084291 1.119239 2.1012182 3.404254 3.3101336 5.771073 3.0532567 1.721167.0863622 3.410938-.4839241 4.727777-1.5955939 1.201106-1.1071428 1.862361-2.6812228 1.812261-4.3139846zm6.757472-17.8471264c1.515433-3.2026034 3.94018-5.8881945 6.971839-7.7218391 6.860649-3.7297803 15.143756-3.7297803 22.004406 0 3.036428 1.8251699 5.468312 4.5039061 6.992337 7.7021073 1.64038 3.5050745 2.456005 7.3393508 2.384291 11.2086207v.8273946c.06763 3.8625307-.747873 7.6894816-2.384291 11.1888889-1.513013 3.1991908-3.938865 5.8791321-6.972031 7.7022989-6.867248 3.7034659-15.136966 3.7034659-22.004214 0-3.038688-1.8134346-5.471887-4.4866206-6.992337-7.6819924-1.641308-3.504763-2.456979-7.3392575-2.384292-11.2086207v-.8273946c-.068448-3.8627945.747091-7.690115 2.384292-11.1894636zm11.819923 20.585249c1.310238 2.1364849 3.705315 3.3607571 6.204406 3.171456 2.479851.1743956 4.847438-1.0590065 6.125671-3.1911878 1.393143-2.6264536 2.053418-5.5795596 1.911494-8.5492337v-.8273946c.130895-2.9624051-.528841-5.9062888-1.911494-8.5295019-1.282702-2.1741646-3.686719-3.4335884-6.204406-3.2503832-2.493928-.1699092-4.868261 1.0899514-6.125671 3.2503832-1.383273 2.6229849-2.043047 5.5670387-1.911494 8.5295019v.8273946c-.147591 2.9763746.512633 5.9372515 1.910728 8.5689655zm70.224904-48.20287352v60.51475092h-11.070881l-.590805-4.6095785c-2.462441 3.4365492-6.449468 5.4521321-10.676819 5.3975096-3.205373.082172-6.348518-.8940855-8.943296-2.7777778-2.581662-1.9671109-4.555298-4.6233293-5.693678-7.6628353-1.353423-3.5585504-2.015074-7.3427566-1.949425-11.1494252v-.8272031c-.075997-3.8972483.585424-7.7737368 1.949425-11.4252874 1.121013-3.0436763 3.09834-5.6982079 5.693678-7.6436781 2.635267-1.8558381 5.800157-2.809438 9.022031-2.7183908 3.833711-.0730145 7.490525 1.610284 9.928161 4.5701149v-21.66819922zm-15.029693 50.33045982c1.169143-.725843 2.105486-1.7718899 2.697892-3.0139847v-16.2318008c-1.19326-2.650674-3.91673-4.2722175-6.815708-4.058046-2.357607-.136716-4.579835 1.1087967-5.693678 3.1911878-1.319762 2.6914996-1.936252 5.6734438-1.791955 8.6676245v.8272031c-.137318 2.9365581.458431 5.8611197 1.733525 8.5099616 1.106397 2.0752192 3.326888 3.308767 5.673372 3.1517242 1.468539.0474883 2.921401-.3139035 4.196552-1.0438697zm61.08544-7.1113027h-26.750957c.356718 2.311564 1.514464 4.4242433 3.270881 5.9687739 1.839465 1.5037301 4.166057 2.2815326 6.540038 2.1863985 1.946234.020152 3.876292-.3551189 5.67318-1.1030651 1.750159-.7473997 3.282011-1.9267407 4.452107-3.4275863l5.79138 6.8946361c-1.715213 2.3086199-3.975737 4.1562673-6.579502 5.3777777-3.155429 1.516966-6.624871 2.2662181-10.125096 2.1865901-3.999065.0955942-7.952926-.8623811-11.464751-2.7777778-3.152307-1.7466601-5.747085-4.3482783-7.485441-7.5051724-1.742591-3.1873954-2.63795-6.7686981-2.600383-10.4011494v-1.4969349c-.06886-3.9090613.752986-7.7825136 2.403257-11.3268199 1.517086-3.2269319 3.93127-5.9487746 6.954023-7.8402299 6.547223-3.6933128 14.521252-3.8119825 21.175479-.3151341 2.862504 1.6939635 5.137723 4.2237592 6.519732 7.2492337 1.556249 3.4856928 2.316862 7.2741637 2.226628 11.0904215zm-12.055747-9.1402299c.110567-1.895831-.533586-3.7583833-1.791762-5.1808429-1.428338-1.3355735-3.349529-2.01398-5.299809-1.871456-4.176245 0-6.697701 2.679055-7.564367 8.0371648h14.655172z" transform="translate(153.257 16.241)"/><path d="m121.685824 43.4036398v-.019157c-.249042-.7662836-.536399-1.4942529-.862069-2.2413794-.659521-1.5089264-1.502394-2.9308713-2.509579-4.2337164-.528017-.6920898-1.090676-1.3570504-1.685824-1.9923372l-.862068-.881226c-.632184-.6130269-1.302682-1.1685824-2.011495-1.7432951l-32.7777775-25.6319923c-2.0240404-1.58408677-4.2538754-2.88589799-6.6283525-3.8697318-1.0065776-.42758379-2.0362828-.79853348-3.0842912-1.11111111-6.5002234-1.93467042-13.4231482-1.93467042-19.9233716 0-1.0344828.32567049-2.0498085.68965517-3.0651341 1.11111111-2.3766194.9795115-4.607023 2.28165462-6.6283525 3.8697318l-32.7777778 25.6321839c-.68965517.5747127-1.37931034 1.1302682-1.97318008 1.7241379-.19157088.1915709-.40229885.3831418-.59386973.5938698l-.34482758.3639846c-.26819924.2681993-.51724138.5555556-.72796935.8045977-.96600518 1.0954026-1.81361826 2.2897665-2.52873563 3.5632184-.01915709.0383142-.03831418.0957855-.05747127.1340997-.3256705.5938697-.63218391 1.1877394-.93869732 1.8582375-.12975007.2812097-.2448468.5689515-.34482758.862069-.1714395.3908123-.31234635.7943182-.42145594 1.2068965-.15325671.5172414-.30651341 1.0536399-.45977012 1.5900383 0 .0383142-.01915708.0957855-.01915708.1340996-.11494253.5363985-.22988506 1.0919541-.28735633 1.6091955-.11906164.876126-.1766736 1.7595093-.17263377 2.6436781v10.9770115c.30071135 6.4730407 3.46734331 12.4763008 8.64006672 16.3793104l3.67816096 3.4099616c1.2991458 1.2128679 2.9937956 1.9138677 4.7701149 1.9731801.4794586 1.1765654 1.2588556 2.2069546 2.2605364 2.9885058l22.183908 17.3563217c5.6633934 4.26482 12.5854893 6.522757 19.6743296 6.417625 7.0824797.102002 13.9975187-2.155832 19.6551724-6.417625l4.8084291-3.7547892c1.7819152-1.3899948 2.8213886-3.5255115 2.8160919-5.7854406v-8.7356322c-.0527742-.7895039-.1810744-1.572135-.3831417-2.3371647-.0759626-.2348871-.1655133-.4651605-.2681993-.6896552-.4991778-1.0849177-1.2474429-2.0366583-2.183908-2.7777778l-30.4214559-23.7931034 6.0727969-4.7509579 39.022988 30.5363985c2.684754 1.9924978 6.357393 1.9924978 9.042146 0l4.386973-3.467433c5.434236-4.0035298 8.7036-10.3016552 8.850719-17.0498084v-10.4789272c.007658-2.0282176-.302624-4.045115-.919684-5.9772031zm-40.6704983 39.9425288-4.2911878 3.3716475c-4.482183 3.3228445-9.938707 5.0675849-15.5172413 4.9616858-5.5848665.1088501-11.0483896-1.6359742-15.5363985-4.9616858l-21.6858238-16.9923372 19.4827587-15.2107279c.1976356-.1722051.4920194-.1722051.6896551 0zm28.5823753-22.1839081-4.750958 3.7356322-42.8352487-33.48659c-.19846-.1658584-.4502248-.2543163-.7088123-.2490422-.2580766-.0021431-.5087926.0859463-.7088123.2490422l-42.8160919 33.48659-4.7509579-3.7356322c-3.7847299-2.7003785-6.10513008-7.0016081-6.28352488-11.6475095.05407983-4.05461 1.78845885-7.9049314 4.78927198-10.632184.0105802 0 .0191571-.0085769.0191571-.019157.210728-.210728.4789272-.4406131.6896552-.6321839.2490422-.210728.4980843-.421456.7854406-.651341l32.7586207-25.6130269c2.1629216-1.6697888 4.6095807-2.93530208 7.2222222-3.73563215.651341-.21072797 1.3218391-.40229885 2.0114943-.55555555 6.190609-1.42602947 12.6832095-.68208566 18.3908046 2.10727969 1.205938.62415021 2.3535607 1.35503841 3.4291188 2.18390801l32.7586205 25.6321839c.287356.210728.536399.421456.747127.5938698.249042.229885.498084.4597701.727969.6896551 3.042003 2.7312474 4.788406 6.6206475 4.808429 10.7088123-.218652 4.6139034-2.532727 8.8752566-6.283525 11.5710728z"/></g></svg>