<svg height="138" viewBox="0 0 500 138" width="500" xmlns="http://www.w3.org/2000/svg"><g fill="none" fill-rule="evenodd"><path d="m156.426939 68.899898c0 12.0285714-9.787755 21.8142857-21.816327 21.8142857-12.028571 0-21.816326-9.7857143-21.816326-21.8142857 0-12.0295919 9.787755-21.8163266 21.816326-21.8163266 12.028572 0 21.816327 9.7867347 21.816327 21.8163266m-21.816327-26.2908164c-14.498979 0-26.292857 11.7928572-26.292857 26.2908164 0 14.4979591 11.793878 26.2918367 26.292857 26.2918367 14.49898 0 26.292857-11.7938776 26.292857-26.2918367 0-14.4979592-11.793877-26.2908164-26.292857-26.2908164m-74.5713263 24.9904082h-16.9132653v-17.9622449h16.9132653c4.9520408 0 8.9806123 4.0295918 8.9806123 8.9816327 0 4.9520408-4.0285715 8.9806122-8.9806123 8.9806122zm-16.9132653 4.627551h21.1510204c4.3602041 0 7.9091837 3.5479592 7.9091837 7.9091837 0 4.3591837-3.5489796 7.9061224-7.9091837 7.9061224h-21.1510204zm26.1234694-3.5989796c2.7765306-2.5632653 4.3959184-6.205102 4.3959184-10.0091836 0-7.5030613-6.1030613-13.6081633-13.6061225-13.6081633h-21.5397959v47.6602041h25.777551c6.9132653 0 12.5357143-5.6244898 12.5357143-12.5346939 0-5.0102041-3.0428571-9.5428572-7.5632653-11.5081633z" fill="#636366"/><path d="m90.663 44.965.003 47.871h4.627l-.001-47.871z" fill="#636366"/><g fill="#39b8c6"><path d="m258.708878 84.2005102h-8.217347v-30.7826531h8.217347c8.485714 0 15.390816 6.9051021 15.390816 15.3918368 0 8.4857143-6.905102 15.3908163-15.390816 15.3908163m0-38.7846939h-16.217347v46.7867347h16.217347c12.897959 0 23.391836-10.4938775 23.391836-23.3928571 0-12.9-10.493877-23.3938776-23.391836-23.3938776"/><path d="m221.922 45.376v47.049h8.001l-.001-47.049z"/><path d="m384.193 45.376.002 47.049h8.001l-.001-47.049z"/><path d="m427.442 45.376h-8.001v.041h-15.149v8.001h15.149v39.007h8.001v-39.007h14.264v-8.001h-14.264z"/><path d="m175.147 92.425h8v-18.842h23.678v-8.001h-23.678v-12.164h26.326v-8.002h-34.326z"/><path d="m291.348 92.202h34.327v-8.002h-26.326v-10.616h23.678v-8.001h-23.678v-12.165h26.326v-8.001h-34.327z"/><path d="m346.132 45.376h-8.001v46.826h33.444v-8.001h-25.442z"/><path d="m489.464 45.376-14.642 20.681-14.641-20.681h-9.805l20.445 28.879v18.634h8.003v-18.635l20.444-28.878z"/></g><path d="m126.510306 99.3132653-.641837-.1755102-.323469.5806122c-11.460204 20.5428567-33.7377551 33.8163267-56.7571429 33.8163267-35.0959183 0-64.74693873-29.65-64.74693873-64.7459185 0-35.0969388 29.65102043-64.74693877 64.74693873-64.74693877 23.0877551 0 45.3693879 13.27244897 56.7653059 33.81326527l.322449.5826531.643878-.1755102c.785714-.2153061 1.595918-.4020408 2.409183-.5561225l1.132654-.2142857-.540817-1.0183673c-11.959183-22.4969388-35.2295916-36.4734694-60.7326529-36.4734694-37.9295918 0-68.78775506 30.8591837-68.78775506 68.7887755 0 37.9306125 30.85816326 68.7877555 68.78775506 68.7877555 25.4367347 0 48.7051019-13.97449 60.7234699-36.471429l.543877-1.018367-1.134694-.2163268c-.816326-.1551021-1.627551-.3428572-2.410204-.5571429" fill="#636366"/></g></svg>