<svg xmlns="http://www.w3.org/2000/svg" width="500" height="148" viewBox="0 0 500 148"><defs><linearGradient id="a" x1="50%" x2="50%" y1="0%" y2="100%"><stop offset="0%" stop-color="#F05032"/><stop offset="100%" stop-color="#FCBB55"/></linearGradient><linearGradient id="b" x1="12.619%" x2="84.485%" y1="12.779%" y2="87.79%"><stop offset="0%" stop-color="#49C8F0"/><stop offset="100%" stop-color="#9C5FA7"/></linearGradient></defs><g fill="none"><path fill="#373947" d="M80.223 98.405c0-18.903-13.672-32.171-30.963-32.171-15.282 0-31.767 11.861-31.767 32.171 0 20.106 15.078 32.77 31.767 32.77 17.292 0 30.963-14.071 30.963-32.77m17.696.2c0 29.557-21.313 49.059-47.049 49.059-13.471 0-27.147-6.03-33.377-16.889v14.879h-17.492v-145.168h17.492v65.948c6.231-11.061 19.502-16.689 33.577-16.689 25.736 0 46.849 19.102 46.849 48.859m16.3 47.049h17.492v-93.898h-17.492v93.898zm-3.617-128.479c0-6.637 5.627-11.665 12.261-11.665 6.842 0 12.469 5.027 12.469 11.665 0 6.634-5.627 11.661-12.469 11.661-6.634 0-12.261-5.027-12.261-11.661zM199.272 66.834h-20.31v78.819h-17.488v-78.819h-16.892v-15.079h16.892v-35.587h17.488v35.587h20.31zM334.199 98.405c0-18.903-13.672-32.171-30.96-32.171-15.282 0-31.771 11.861-31.771 32.171 0 20.106 15.081 32.77 31.771 32.77 17.288 0 30.96-14.071 30.96-32.77m17.696.2c0 29.557-21.313 49.059-47.049 49.059-13.471 0-27.143-6.03-33.377-16.889v14.879h-17.492v-145.168h17.492v65.948c6.234-11.061 19.502-16.689 33.577-16.689 25.736 0 46.849 19.102 46.849 48.859m12.479-81.43c0 6.634 5.631 11.661 12.265 11.661 6.838 0 12.468-5.027 12.468-11.661 0-6.637-5.63-11.665-12.468-11.665-6.634 0-12.265 5.027-12.265 11.665zm3.621 128.479h17.492v-93.898h-17.492v93.898z"/><path fill="url(#a)" d="M364.373 17.175c0 6.634 5.631 11.661 12.265 11.661 6.838 0 12.468-5.027 12.468-11.661 0-6.637-5.63-11.665-12.468-11.665-6.634 0-12.265 5.027-12.265 11.665zm3.621 128.479h17.492v-93.898h-17.492v93.898z"/><path fill="url(#b)" d="M401.575 98.405c0 29.757 22.316 49.259 49.059 49.259 26.744 0 49.263-19.502 49.263-49.259s-22.519-48.659-49.263-48.659c-26.743 0-49.059 18.903-49.059 48.659m17.692 0c0-19.303 14.275-32.171 31.367-32.171 17.292 0 31.768 12.868 31.768 32.171 0 19.502-14.476 32.77-31.768 32.77-17.092 0-31.367-13.268-31.367-32.77"/></g></svg>