<svg xmlns="http://www.w3.org/2000/svg" width="500" height="500" viewBox="0 0 500 500"><path fill="#0336F4" d="M0 0h500v500h-500v-500zm350.679 139.809v94.666h50.528v-16.375h-33.135v-22.387h31.739v-16.375h-31.739v-23.155h33.135v-16.375h-50.528zm-83.511 0h-17.545v59.874c0 5.86.598 10.616 1.793 14.268 1.195 3.652 2.561 6.497 4.098 8.535 1.025 1.359 2.39 2.824 4.098 4.395 1.708 1.571 3.735 3.036 6.083 4.395 2.348 1.359 5.037 2.484 8.068 3.376 3.031.892 6.339 1.338 9.925 1.338 6.489 0 12.145-1.38 16.968-4.14 4.824-2.76 8.602-6.051 11.334-9.873 2.22-3.142 3.692-6.688 4.418-10.637.726-3.949 1.089-7.835 1.089-11.656v-59.874h-17.545v59.874c0 1.189-.085 2.888-.256 5.096-.171 2.208-.768 4.416-1.793 6.624-1.025 2.208-2.647 4.14-4.866 5.796-2.22 1.656-5.379 2.484-9.477 2.484-4.098 0-7.257-.828-9.477-2.484-2.22-1.656-3.842-3.588-4.866-5.796-1.025-2.208-1.622-4.416-1.793-6.624-.171-2.208-.256-3.907-.256-5.096v-59.874zm-89.943 0v94.666h46.003v-16.375h-28.641v-78.292h-17.362zm11.504 129.503l-39.407 94.666h19.32l10.108-24.434h33.905l10.108 24.434h19.32l-39.663-94.666h-13.69zm-3.962 53.77l10.806-28.779h.257l10.806 28.779h-21.87zm-93.514-183.274v94.666h25.146c1.524 0 3.302-.064 5.334-.192 2.032-.128 4.17-.384 6.413-.768 2.244-.384 4.445-.938 6.604-1.663 2.159-.725 4.127-1.727 5.905-3.006 1.439-1.023 2.857-2.239 4.254-3.646 1.397-1.407 2.646-3.028 3.746-4.861 1.101-1.834 1.99-3.923 2.667-6.268.677-2.345 1.016-4.925 1.016-7.74 0-4.008-.55-7.377-1.651-10.106s-2.455-4.989-4.064-6.78c-1.609-1.791-3.365-3.198-5.27-4.222-1.905-1.023-3.619-1.834-5.143-2.431.762-.426 1.736-1.045 2.921-1.855 1.185-.81 2.349-1.919 3.492-3.326 1.143-1.407 2.117-3.156 2.921-5.245.804-2.089 1.206-4.627 1.206-7.612 0-3.241-.741-6.46-2.222-9.659-1.482-3.198-3.408-5.863-5.778-7.995-2.032-1.791-4.191-3.198-6.477-4.222-2.286-1.023-4.657-1.748-7.112-2.175-2.455-.426-4.974-.682-7.556-.768-2.582-.085-5.186-.128-7.81-.128h-18.542zm17.345 37.109v-20.448h7.12c4.914 0 8.349 1.001 10.306 3.003 1.957 2.002 2.936 4.409 2.936 7.221 0 2.556-.583 4.537-1.749 5.943-1.166 1.406-2.54 2.428-4.122 3.067-1.582.639-3.206 1.001-4.872 1.086-1.666.085-2.998.128-3.997.128h-5.621zm0 40.896v-24.992h9.181c3.825 0 6.864.489 9.117 1.466 2.253.978 3.995 2.125 5.228 3.443 1.233 1.318 2.019 2.699 2.359 4.144.34 1.445.51 2.635.51 3.57 0 3.06-.765 5.44-2.295 7.141-1.53 1.7-3.273 2.933-5.228 3.698-1.955.765-3.91 1.211-5.866 1.339-1.955.128-3.358.191-4.208.191h-8.798zm1.425 111.241v34.924h17.385v-34.924l30.964-59.742h-19.162l-20.558 43.495-20.431-43.495h-19.035l30.837 59.742zm229.344-59.742v94.666h21.71c2.624 0 5.332-.085 8.125-.256 2.793-.171 5.544-.49 8.252-.959 2.709-.469 5.311-1.109 7.808-1.919s4.846-1.812 7.046-3.006c3.386-1.876 6.475-4.264 9.268-7.164 2.793-2.9 5.163-6.14 7.11-9.722s3.449-7.42 4.507-11.513c1.058-4.094 1.587-8.273 1.587-12.537 0-3.667-.381-7.292-1.143-10.874-.762-3.582-1.841-6.951-3.238-10.106-1.397-3.156-3.047-6.055-4.951-8.699-1.904-2.644-3.957-4.947-6.158-6.908-1.354-1.194-3.047-2.431-5.078-3.71s-4.571-2.473-7.618-3.582c-3.047-1.109-6.687-2.004-10.919-2.686-4.232-.682-9.226-1.023-14.981-1.023h-21.329zm17.345 78.762v-62.101h3.309c5.515 0 10.542.492 15.081 1.476s8.633 3.144 12.281 6.48c3.054 2.737 5.493 6.159 7.318 10.265 1.824 4.106 2.736 8.468 2.736 13.087 0 2.566-.297 5.132-.891 7.698-.594 2.566-1.485 5.004-2.673 7.314-1.188 2.31-2.673 4.427-4.454 6.351-1.782 1.925-3.818 3.528-6.109 4.812-1.867 1.026-3.669 1.839-5.409 2.438-1.739.599-3.5 1.048-5.281 1.347-1.782.299-3.669.513-5.663.642-1.994.128-4.178.192-6.554.192h-3.691zm-101.81-78.762v94.666h17.529v-36.203h.256l25.078 36.203h21.24l-25.718-34.924c2.388-.597 4.905-1.365 7.549-2.303s5.374-2.772 8.189-5.501c1.706-1.62 3.135-3.411 4.286-5.373 1.152-1.962 2.09-3.966 2.815-6.013.725-2.047 1.237-4.051 1.535-6.013.299-1.962.448-3.71.448-5.245 0-2.729-.32-5.245-.96-7.548-.64-2.303-1.493-4.413-2.559-6.332-1.066-1.919-2.26-3.625-3.583-5.117-1.322-1.492-2.666-2.793-4.03-3.902-2.73-2.217-5.886-3.838-9.468-4.861-3.583-1.023-8.103-1.535-13.563-1.535h-29.044zm17.345 45.44v-28.779h11.161c3.382 0 6.151.488 8.308 1.464 2.156.976 3.868 2.207 5.137 3.693 1.268 1.486 2.135 3.056 2.6 4.712.465 1.655.698 3.12.698 4.393 0 1.273-.19 2.738-.571 4.393-.381 1.655-1.184 3.226-2.41 4.712-1.226 1.486-2.938 2.759-5.137 3.82-2.198 1.061-5.073 1.592-8.625 1.592h-11.161z"/></svg>