<svg xmlns="http://www.w3.org/2000/svg" width="498" height="153" viewBox="0 0 498 153"><g fill="none"><path d="M420.673 84.691c-1.865-.032-3.718.302-5.455.982-3.148 1.239-5.62 3.757-6.8 6.927-.674 1.738-1.007 3.59-.982 5.455-.024 3.407 1.318 6.682 3.727 9.091 1.198 1.192 2.619 2.138 4.182 2.782 1.65.698 3.426 1.051 5.218 1.036 1.899.027 3.784-.325 5.545-1.036 1.545-.647 2.948-1.592 4.127-2.782 1.168-1.178 2.073-2.591 2.655-4.145.636-1.666.956-3.435.945-5.218.126-3.526-1.187-6.952-3.636-9.491-2.546-2.459-5.992-3.761-9.527-3.6zm54.509-1.673c-2.936-.149-5.807.894-7.964 2.891-2.056 2.087-3.339 4.813-3.636 7.727h23.018c.095-2.907-1.017-5.724-3.073-7.782-2.295-2.015-5.297-3.036-8.345-2.836zm-333 0c-2.936-.149-5.807.894-7.964 2.891-2.052 2.089-3.335 4.814-3.636 7.727h22.927c.095-2.907-1.017-5.724-3.073-7.782-2.272-1.993-5.237-3.011-8.255-2.836z"/><path fill="#000" fill-rule="nonzero" d="M158.891 80.964c-1.827-2.044-4.089-3.653-6.618-4.709-2.704-1.111-5.604-1.668-8.527-1.636-3.245-.02-6.466.546-9.509 1.673-5.805 2.087-10.481 6.493-12.909 12.164-2.549 6.178-2.549 13.113 0 19.291 2.428 5.666 7.105 10.067 12.909 12.145 3.042 1.13 6.264 1.697 9.509 1.673 3.486.008 6.937-.691 10.145-2.055 3.449-1.532 6.461-3.901 8.764-6.891l-8.018-6.055c-1.401 1.717-3.086 3.181-4.982 4.327-2.132 1.246-4.568 1.876-7.036 1.818-2.952.076-5.833-.919-8.109-2.8-2.298-1.979-3.712-4.793-3.927-7.818h34.2v-3.073c.057-3.521-.459-7.027-1.527-10.382-.917-2.828-2.402-5.439-4.364-7.673zm-28.273 12.727c.302-2.913 1.584-5.638 3.636-7.727 2.157-1.997 5.028-3.039 7.964-2.891 3.03-.185 6.009.835 8.291 2.836 2.055 2.058 3.167 4.875 3.073 7.782h-22.964zm79.836-13.655c-1.376-1.668-3.11-3.004-5.073-3.909-2.39-1.057-4.987-1.567-7.6-1.491-3.143-.171-6.255.698-8.855 2.473-2.064 1.514-3.725 3.512-4.836 5.818h-.182v-7.164h-10.636v44.709h11.182v-24.4c-.003-1.449.187-2.892.564-4.291.352-1.323.97-2.561 1.818-3.636.853-1.063 1.934-1.92 3.164-2.509 1.479-.663 3.089-.98 4.709-.927 1.633-.087 3.246.395 4.564 1.364 1.099.879 1.946 2.033 2.455 3.345.537 1.374.868 2.82.982 4.291.127 1.527.182 2.909.182 4.145v22.636h11.182v-28.255c.01-2.233-.271-4.458-.836-6.618-.522-2.036-1.47-3.939-2.782-5.582zm29.618-17.218h-11.182v12.945h-9.218v9.564h9.218v20.491c-.028 2.311.173 4.619.6 6.891.328 1.818 1.096 3.528 2.236 4.982 1.175 1.401 2.727 2.436 4.473 2.982 2.356.717 4.811 1.048 7.273.982 1.508-.014 3.014-.124 4.509-.327 1.495-.155 2.956-.548 4.327-1.164v-9.4c-.844.558-1.799.924-2.8 1.073-1.073.209-2.162.318-3.255.327-1.89.262-3.779-.483-4.982-1.964-.918-1.613-1.353-3.456-1.255-5.309v-19.564h12.291v-9.491h-12.291v-13.018h.055zm43.782 11.818c-2.786-.05-5.53.695-7.909 2.145-2.324 1.456-4.17 3.561-5.309 6.055h-.182v-7.073h-11.127v44.709h11.182v-23.945c.045-.945.185-1.883.418-2.8.329-1.305.896-2.538 1.673-3.636.96-1.351 2.201-2.48 3.636-3.309 1.925-1.049 4.101-1.552 6.291-1.455.89.005 1.778.084 2.655.236.891.145 1.818.364 2.745.6v-10.818c-.691-.182-1.345-.345-2-.455-.681-.151-1.375-.236-2.073-.255zM293.818 75.745h11.182v44.709h-11.182zM299.327 53.873c-1.894-.059-3.729.664-5.073 2-1.277 1.23-1.998 2.927-1.998 4.7 0 1.773.721 3.47 1.998 4.7 1.343 1.338 3.178 2.061 5.073 2 1.908.043 3.759-.654 5.164-1.945 1.336-1.239 2.095-2.978 2.095-4.8 0-1.822-.759-3.561-2.095-4.8-1.419-1.259-3.268-1.923-5.164-1.855zm28.873-3.509c-2.054.866-3.815 2.305-5.073 4.145-1.277 1.956-2.12 4.163-2.473 6.473-.46 2.788-.679 5.611-.655 8.436v6.345h-9.218v9.564h9.218v35.218h11.182v-35.218h10.345v-9.491h-10.345v-8.182c-.005-1.186.074-2.371.236-3.545.125-1.038.472-2.036 1.018-2.927.539-.846 1.292-1.536 2.182-2 1.137-.53 2.383-.786 3.636-.745.78-.006 1.558.055 2.327.182.745.127 1.509.273 2.327.455l.745-9.491c-2.331-.448-4.699-.668-7.073-.655-2.863-.096-5.715.393-8.382 1.436zm48.327 49.8c.008 1.449-.181 2.893-.564 4.291-.346 1.326-.966 2.564-1.818 3.636-.853 1.063-1.934 1.92-3.164 2.509-1.479.663-3.089.98-4.709.927-1.644.104-3.271-.372-4.6-1.345-1.078-.891-1.91-2.043-2.418-3.345-.531-1.375-.856-2.821-.964-4.291-.127-1.527-.182-2.909-.182-4.145v-22.636h-11.182v28.218c-.007 2.233.274 4.457.836 6.618.532 2.053 1.485 3.972 2.8 5.636 1.357 1.687 3.096 3.027 5.073 3.909 2.394 1.022 4.98 1.512 7.582 1.436 3.141.176 6.253-.686 8.855-2.455 2.068-1.515 3.735-3.512 4.855-5.818h.182v7.164h10.618v-44.709h-11.182v24.4h-.018zm57.345-17.709h-.182c-1.498-2.622-3.781-4.708-6.527-5.964-2.786-1.238-5.806-1.858-8.855-1.818-3.185-.061-6.346.559-9.273 1.818-2.63 1.162-4.989 2.858-6.927 4.982-1.956 2.159-3.447 4.696-4.382 7.455-1.015 2.966-1.519 6.083-1.491 9.218-.023 3.053.513 6.085 1.582 8.945.998 2.703 2.531 5.177 4.509 7.273 1.999 2.079 4.391 3.742 7.036 4.891 2.869 1.238 5.967 1.857 9.091 1.818 2.814-.008 5.599-.564 8.2-1.636 2.551-1.004 4.773-2.698 6.418-4.891h.182v3.255c.022 2.057-.21 4.109-.691 6.109-.413 1.719-1.209 3.322-2.327 4.691-1.183 1.372-2.689 2.428-4.382 3.073-2.157.796-4.447 1.173-6.745 1.109-2.882.057-5.742-.514-8.382-1.673-2.557-1.214-4.912-2.815-6.982-4.745l-6.709 9.091c2.965 2.687 6.503 4.665 10.345 5.782 3.848 1.07 7.825 1.602 11.818 1.582 3.838.103 7.662-.514 11.273-1.818 2.993-1.124 5.686-2.922 7.873-5.255 2.138-2.382 3.71-5.216 4.6-8.291 1.028-3.544 1.53-7.219 1.491-10.909v-40.782h-10.564v6.709-.018zm-.945 20.582c-.597 1.544-1.514 2.945-2.691 4.109-1.199 1.183-2.62 2.116-4.182 2.745-1.761.711-3.646 1.063-5.545 1.036-1.792.014-3.568-.338-5.218-1.036-1.563-.644-2.984-1.589-4.182-2.782-2.409-2.409-3.752-5.684-3.727-9.091-.025-1.864.308-3.716.982-5.455 1.197-3.164 3.682-5.669 6.836-6.891 1.737-.68 3.59-1.014 5.455-.982 3.597-.197 7.112 1.122 9.691 3.636 2.45 2.539 3.762 5.965 3.636 9.491-.01 1.794-.355 3.57-1.018 5.236l-.036-.018zm64.782-4.091c.061-3.521-.455-7.028-1.527-10.382-.906-2.79-2.365-5.369-4.291-7.582-1.826-2.045-4.088-3.654-6.618-4.709-2.704-1.111-5.604-1.668-8.527-1.636-3.245-.019-6.466.548-9.509 1.673-2.866 1.052-5.493 2.665-7.727 4.745-2.199 2.096-3.955 4.613-5.164 7.4-2.549 6.178-2.549 13.113 0 19.291 2.428 5.666 7.105 10.067 12.909 12.145 3.042 1.129 6.264 1.695 9.509 1.673 3.486.008 6.937-.691 10.145-2.055 3.458-1.534 6.477-3.909 8.782-6.909l-8-6.055c-1.401 1.717-3.086 3.18-4.982 4.327-2.131 1.247-4.568 1.877-7.036 1.818-2.947.075-5.821-.92-8.091-2.8-2.303-1.975-3.718-4.791-3.927-7.818h34.091v-3.073l-.036-.055zm-34.091-5.309c.297-2.915 1.58-5.64 3.636-7.727 2.157-1.997 5.028-3.039 7.964-2.891 3.03-.185 6.009.835 8.291 2.836 2.055 2.058 3.167 4.875 3.073 7.782h-22.964zm-346.8-29.691c-7.143-7.346-16.901-11.568-27.145-11.745-16.65-.031-31.292 11.004-35.85 27.018-4.557 16.014 2.081 33.106 16.253 41.845 14.171 8.74 32.424 6.998 44.688-4.263l1.945-1.818-7.273-9.455-2.291 2.164c-10.107 9.576-26.053 9.182-35.675-.881-9.622-10.064-9.3-26.012.721-35.679 10.02-9.667 25.97-9.417 35.682.56l1.618 1.673 9.273-7.527-1.945-1.891zM95.418 26.382c-34.819-3.213-65.65 22.408-68.864 57.227-3.213 34.819 22.408 65.65 57.227 68.864 1.491.145 2.964.2 4.436.236l.527-11.4c-1.309 0-2.6 0-3.909-.2-23.48-2.161-42.554-19.877-46.441-43.134-3.887-23.257 8.39-46.212 29.891-55.891 21.501-9.679 46.825-3.65 61.659 14.679l8.836-7.164c-10.902-13.063-26.448-21.387-43.364-23.218zM141.491 17.564c-32.671-23.6-77.14-22.232-108.299 3.331-31.159 25.563-41.19 68.907-24.429 105.56l10.382-4.727c-16.297-35.405-3.698-77.404 29.396-97.992 33.094-20.588 76.338-13.328 100.895 16.938l2.036-1.4 6.873-5.582c-4.868-6.109-10.537-11.534-16.855-16.127z"/></g></svg>