<svg height="186" viewBox="0 0 501 186" width="501" xmlns="http://www.w3.org/2000/svg"><g fill="#49464f" transform="translate(.323 .271)"><g transform="matrix(1 0 0 -1 0 185)"><path d="m40.3597786 173.062731c-6.1346863-6.134687-11.1623616-11.392989-11.1623616-11.623617 0-.276752 14.4372693-14.898524 32.103321-32.51845 17.6199262-17.619926 32.3800738-32.6107009 32.7490775-33.3025828.8302583-1.6143912.8302583-5.1199262 0-6.7343174-.3690037-.6918819-15.1291513-15.6826568-32.7490775-33.302583-17.6660517-17.6199262-32.103321-32.2416974-32.103321-32.5184502 0-.2767527 5.0738007-5.5350553 11.300738-11.7619926l11.300738-11.300738 18.49631 18.4501845c10.1476014 10.1476015 19.3726937 19.695572 20.4797047 21.2177122 2.9059041 4.0590406 4.797048 8.1642066 6.0424355 13.0535055l1.107011 4.3819188v35.1476015 35.1476015l-1.107011 4.381919c-1.1070111 4.428044-2.998155 8.625461-5.4889299 12.361623-1.2453875 1.845019-38.9298893 40.129152-39.5295203 40.129152-.1383764 0-5.2583026-5.027676-11.4391144-11.208487z"/><path d="m11.4852399 144.188192-11.4852399-11.48524 2.21402214-2.490775c5.30442804-5.904059 8.94833946-12.130996 11.53136536-19.880074 6.50369-19.5110698 2.1217712-40.9132838-11.53136536-56.0424351l-2.21402214-2.4907749 11.4852399-11.4852399 11.4852398-11.4852398 1.7527675 1.7527675c6.9188192 6.6420664 14.8062731 19.1881919 18.7730628 29.797048 4.0590406 10.8394834 5.7195572 19.9261992 5.7195572 31.8726937s-1.6605166 21.0332105-5.7195572 31.8726935c-3.9667897 10.608856-11.8542436 23.154982-18.7730628 29.797048l-1.7527675 1.752768z"/></g><path d="m28.683808.64021672h-27.98061915v92.62151698h27.77071205c29.6703715 0 48.3311146-17.7266563 48.3311146-46.3160061 0-28.5893499-18.3878638-46.30551088-48.1212075-46.30551088zm-.2099071 80.14253868h-12.7308668v-67.653065h12.5944272c20.8017957 0 32.5356037 12.5944272 32.5356037 33.8160372 0 21.2216099-11.5448916 33.8685139-32.3991641 33.8685139zm82.4934981-55.9927244c-17.3173371 0-27.781207 9.5297832-28.3374609 22.5650154h14.6305263c.4093189-7.5251702 5.2476776-11.6918266 13.4445506-11.6918266 8.501239 0 13.643963 4.7019195 13.643963 13.6439629v2.0256037l-17.012972 1.7002477c-14.8824147 1.6162848-26.9730648 6.7170278-26.9730648 20.5289164 0 12.2375851 9.7921672 20.990712 23.8139628 20.990712 10.065046 0 17.590217-5.247678 20.413468-14.5150774h.388328v13.1716719h14.105758v-41.1627864c-.188916-18.1149845-11.041114-27.2564396-28.117059-27.2564396zm13.297616 39.1266873c0 12.7623529-6.034829 19.8782043-16.509195 19.8782043-6.454644 0-12.0801544-3.6313932-12.0801544-9.9391022 0-6.3077089 5.1007434-9.6662229 13.9483284-10.6003096l14.641021-1.7002476zm56.171146-39.1266873c-9.792167 0-16.79257 5.1112383-19.59483 14.4940866h-.262384v-13.1506811h-14.231702v67.1702787h14.630526v-40.3231579c0-11.0096285 4.42904-17.1808979 13.42356-17.1808979s13.465542 5.6465016 13.465542 18.1149846v39.3470897h14.588545v-43.629195c0-14.7669659-7.241796-24.8425077-22.019257-24.8425077zm60.747121 58.9314241c-11.135573 0-17.317338-9.9391022-17.317338-24.02387s5.772446-24.0343653 16.645635-24.0343653c7.923994 0 13.413065 4.9643034 15.02935 13.6439629h14.693498c-2.550371-15.8374923-14.357647-24.4331889-30.07969-24.4331889-19.59483 0-31.811424 16.7925697-31.811424 34.9075542 0 18.5243034 12.594427 34.9075542 32.325696 34.9075542 15.743034 0 27.655263-8.8580805 30.205635-24.6955728h-14.882415c-1.385387 8.5012384-7.031888 13.7279257-14.808947 13.7279257zm65.58548-58.9314241c-20.004149 0-31.423096 16.3832507-31.423096 34.9075541s11.691826 34.9075542 31.674984 34.9075542c16.383251 0 26.857616-8.8580805 29.670372-22.1137152h-14.630527c-1.616284 5.3736223-5.373622 11.2825078-14.084767 11.2825078-10.211982 0-17.317338-7.1158514-17.999536-19.3219505h47.974272c2.036099-23.4151393-11.198544-39.6619504-31.181702-39.6619504zm-16.65613 28.7362848c.934086-10.8731889 6.80099-17.8421053 16.65613-17.8421053 9.855139 0 15.564613 6.9899071 16.498699 17.8421053z" transform="translate(160.677 45.729)"/></g></svg>