<svg height="186" viewBox="0 0 501 186" width="501" xmlns="http://www.w3.org/2000/svg"><g transform="matrix(1 0 0 -1 .323 185.271)"><path d="m40.3597786 173.062731c-6.1346863-6.134687-11.1623616-11.392989-11.1623616-11.623617 0-.276752 14.4372693-14.898524 32.103321-32.51845 17.6199262-17.619926 32.3800738-32.6107009 32.7490775-33.3025828.8302583-1.6143912.8302583-5.1199262 0-6.7343174-.3690037-.6918819-15.1291513-15.6826568-32.7490775-33.302583-17.6660517-17.6199262-32.103321-32.2416974-32.103321-32.5184502 0-.2767527 5.0738007-5.5350553 11.300738-11.7619926l11.300738-11.300738 18.49631 18.4501845c10.1476014 10.1476015 19.3726937 19.695572 20.4797047 21.2177122 2.9059041 4.0590406 4.797048 8.1642066 6.0424355 13.0535055l1.107011 4.3819188v35.1476015 35.1476015l-1.107011 4.381919c-1.1070111 4.428044-2.998155 8.625461-5.4889299 12.361623-1.2453875 1.845019-38.9298893 40.129152-39.5295203 40.129152-.1383764 0-5.2583026-5.027676-11.4391144-11.208487z"/><path d="m11.4852399 144.188192-11.4852399-11.48524 2.21402214-2.490775c5.30442804-5.904059 8.94833946-12.130996 11.53136536-19.880074 6.50369-19.5110698 2.1217712-40.9132838-11.53136536-56.0424351l-2.21402214-2.4907749 11.4852399-11.4852399 11.4852398-11.4852398 1.7527675 1.7527675c6.9188192 6.6420664 14.8062731 19.1881919 18.7730628 29.797048 4.0590406 10.8394834 5.7195572 19.9261992 5.7195572 31.8726937s-1.6605166 21.0332105-5.7195572 31.8726935c-3.9667897 10.608856-11.8542436 23.154982-18.7730628 29.797048l-1.7527675 1.752768zm149.1697421-51.891144v-45.9409594h17.020295c13.238007 0 17.896679.1383763 21.079336.6918819 10.793357 1.8911439 18.680811 5.8118081 25.138376 12.5461254 5.950184 6.1808118 9.086716 12.4077491 11.070111 21.9095941 1.383763 6.7804428 1.060885 17.8505535-.691882 24.584871-4.335794 16.55904-15.636532 26.937269-33.487085 30.765683-3.828413.784132-6.642067.968634-22.232472 1.153136l-17.896679.230627zm37.361623 32.241697c11.715867-2.905904 19.557196-11.854243 21.632841-24.6771214.645757-3.8745387.645757-11.9926199 0-15.498155-1.937269-10.8394834-7.103321-18.3579335-15.267527-22.2324723-5.719557-2.7675277-9.409594-3.4132841-19.880074-3.505535l-8.856089-.0461255-.138376 33.6254612-.092251 33.625461 9.778598-.276752c6.642066-.184502 10.793358-.507381 12.822878-1.014761zm69.188192-10.839483c-12.915129-1.614391-21.125461-8.856089-22.878229-20.202952l-.322878-1.9833949 7.287823.1383764 7.333948.1383764.50738 2.398524c.784133 3.4594096 2.583026 5.9040591 5.442805 7.3800741 2.214022 1.199262 2.813653 1.291513 7.472324 1.291513 5.857934 0 7.749078-.691882 10.47048-3.9206646 1.798893-2.0756458 2.536901-4.1512915 2.95203-8.2103321.369003-3.3671587 1.245387-2.998155-9.501845-4.0129151-17.666052-1.7066421-24.49262-3.8745388-29.704797-9.4557196-4.935425-5.3505535-5.811808-13.9760148-2.167897-21.1254613 5.258303-10.3321033 22.232472-14.5756457 32.887454-8.2564575 2.998155 1.7527675 5.673432 4.797048 7.472325 8.3948339l1.614391 3.2287823.046125-6.5498155v-6.5959409h6.918819 6.91882v22.5092251c0 24.6309963-.138377 26.2453874-2.721403 31.7804423-2.767527 5.857934-9.04059 10.793358-15.774907 12.315499-3.828414.876383-10.47048 1.245387-14.252768.738007zm18.450185-38.4225092c-.046126-1.0608856-.322879-3.5516605-.691882-5.5350554-1.107011-6.4114391-3.551661-10.0092251-8.394834-12.4077491-2.767528-1.3376383-3.45941-1.4760147-7.241698-1.4760147-3.459409 0-4.56642.1845018-6.365313 1.0608856-8.348709 4.0590406-7.610701 14.2527675 1.199262 17.5276753 2.583025.9686347 20.249077 3.4132841 21.171586 2.9520295.184502-.0922509.322879-1.0608856.322879-2.1217712zm53.597786 38.3763842c-5.90406-.968635-10.793358-4.797048-13.607012-10.562731l-1.706642-3.4594097v6.5959407 6.549816h-6.918819-6.918819v-33.2103323-33.2103321h7.149447 7.149446v21.3560885c0 13.4686347.184502 22.3708487.50738 24.0774908.876384 4.797048 3.090406 8.1642066 6.642066 10.0553501 2.721403 1.476015 9.778598 1.476015 12.546126 0 2.629151-1.429889 4.612546-3.9667892 5.765683-7.5184497.968634-2.9059041 1.01476-3.8284133 1.199262-25.4612546l.138376-22.5092251h7.149446 7.103322v23.800738c0 26.5682657-.092251 27.7675276-3.090406 33.4870844-2.859779 5.535056-8.071956 9.086716-14.667897 10.055351-3.736162.50738-5.073801.50738-8.440959-.046125zm61.715867.230627c-6.826569-1.01476-12.223248-3.45941-16.697417-7.564576-15.728783-14.3911437-15.036901-41.7435422 1.337638-54.7970478 3.551661-2.8597786 6.918819-4.4741697 11.669742-5.6734317 3.274908-.8302583 4.750922-.9686347 9.455719-.7380074 5.99631.2767528 8.809963.9225092 13.607011 3.2749078 3.597786 1.7527675 8.44096 6.1346863 10.516606 9.6402214 1.752767 2.9520295 3.736162 8.2564575 3.782287 10.1476014v1.2915129l-7.195572-.1383763-7.195572-.1383764-.830258-2.6291513c-1.476015-4.7047971-4.05904-7.8413284-8.071956-9.6863469-3.228782-1.4760147-9.132841-1.4298893-12.453874.1383764-6.918819 3.2287823-10.516605 11.0239853-10.516605 22.5553506 0 11.4852398 3.459409 19.1420664 10.193727 22.4169743 2.075645 1.01476 7.887454 1.383764 10.516605.691882 4.566421-1.245388 8.256457-5.073801 9.778598-10.2859781l.784132-2.6752768h7.287823c5.904059 0 7.241698.1383764 7.241698.6457565 0 .3690037-.415129 2.0756458-.968635 3.7822878-2.813653 9.1789666-8.809963 15.2675276-18.081181 18.3579336-3.459409 1.153137-10.747232 1.845018-14.160516 1.383764zm62.5-.230627c-13.053506-2.029521-22.647602-11.946495-25.322879-26.1992625-3.136531-16.5129151 3.690037-32.8874538 16.328414-39.206642 5.304428-2.6291513 9.455719-3.4594096 16.328413-3.1365314 8.902214.3690037 14.52952 2.6291513 19.926199 7.9335793 3.321033 3.2287823 5.904059 7.6107011 7.01107 11.900369l.461255 1.7066421h-7.195572-7.241697l-1.245388-2.6752767c-1.52214-3.2287823-4.05904-5.9040591-6.826568-7.195572-1.614391-.7380074-2.998155-.9225092-6.273063-.9225092-3.966789 0-4.428044.0922509-7.749077 1.7527675-2.998155 1.4760148-3.920665 2.2140221-5.627307 4.5202952-2.075645 2.8597786-3.736162 7.2878229-3.966789 10.7472325l-.138377 1.8450184 23.754613.2306273 23.754612.2306273-.09225 5.3044281c-.092251 9.0405904-2.260148 15.7287823-7.149447 22.4169741-2.075646 2.767528-6.411439 6.411439-9.640221 8.071956-4.612546 2.306273-13.42251 3.597786-19.095941 2.675277zm11.116236-11.531366c4.658671-1.752767 8.164206-6.319188 9.640221-12.4999998.369004-1.6143911.691882-3.1826568.691882-3.4594096 0-.4612546-3.597786-.599631-16.374539-.599631h-16.374538v1.2915129c0 1.6605166 1.199262 5.8118082 2.398524 8.0719558 1.798893 3.5977859 5.350553 6.5498157 9.132841 7.7490777 2.444649.738007 8.164207.461254 10.885609-.553506z"/></g></svg>