<svg height="194" viewBox="0 0 500 194" width="500" xmlns="http://www.w3.org/2000/svg"><g fill="#49464f"><path d="m179.577465 48.6971831h-28.961268v95.8626759h28.75c30.704226 0 50.017606-18.34507 50.017606-47.9401407 0-29.5950704-19.03169-47.9225352-49.806338-47.9225352zm-.28169 82.9401409h-13.063381v-70.0176057h13.063381c21.53169 0 33.62676 13.0457747 33.62676 35 0 21.9542257-12.024648 35.0176057-33.556338 35.0176057zm85.44014-57.9401409c-17.922535 0-28.75 9.8591549-29.31338 23.3450704h15.140845c.422535-7.7816901 5.422535-12.0950704 13.908451-12.0950704 8.802817 0 14.084507 4.8591549 14.084507 14.084507v2.0950709l-17.605634 1.760563c-15.404929 1.672535-27.922535 6.954225-27.922535 21.25 0 12.658451 10.140845 21.690141 24.647887 21.690141 10.422536 0 18.204226-5.422535 21.126761-15.017606h.404929v13.626761h14.595071v-42.535212c-.158451-18.7499995-11.408451-28.2042249-29.066902-28.2042249zm13.767606 40.4929579c0 13.204225-6.25 20.56338-17.09507 20.56338-6.672536 0-12.5-3.75-12.5-10.28169s5.28169-10 14.436619-10.96831l15.158451-1.760563zm58.133803-40.4929579c-10.140845 0-17.359155 5.2816901-20.28169 15h-.28169v-13.6091549h-14.71831v69.4718308h15.140845v-41.690141c0-11.3908448 4.577465-17.7816898 13.890845-17.7816898s13.890845 5.8450704 13.890845 18.7499998v40.721831h15.140845v-45.1584505c0-15.2816902-7.5-25.7042254-22.78169-25.7042254zm62.869718 60.9859159c-11.53169 0-17.922535-10.281691-17.922535-24.859155 0-14.5774651 5.96831-24.8767609 17.21831-24.8767609 8.204225 0 13.890845 5.1408451 15.56338 14.084507h15.211268c-2.640845-16.390845-14.859155-25.2816901-31.126761-25.2816901-20.28169 0-32.922535 17.3591549-32.922535 36.126761 0 19.172535 13.06338 36.12676 33.450704 36.12676 16.25 0 28.626761-9.172535 31.267606-25.56338h-15.422535c-1.426057 8.838028-7.271127 14.242958-15.316902 14.242958zm67.869719-60.9859159c-20.704226 0-32.517606 16.9542254-32.517606 36.1267609 0 19.172535 12.09507 36.12676 32.78169 36.12676 16.954225 0 27.799296-9.172535 30.704225-22.887324h-15.140845c-1.672535 5.563381-5.56338 11.672535-14.577464 11.672535-10.563381 0-17.922536-7.359154-18.626761-20h49.59507c2.165493-24.2253516-11.53169-41.0387319-32.218309-41.0387319zm-17.235916 29.7359159c.96831-11.2500004 7.042254-18.4859159 17.235916-18.4859159s16.109154 7.2359155 17.077464 18.4859159zm-425.4929577-72.7288736-23.89084505 23.9788732c23.14790315 23.1663605 23.14790315 60.7068794 0 83.8732394l23.89084505 23.978873c17.4853948-17.480007 27.3090403-41.191219 27.3090403-65.9154927 0-24.7242735-9.8236455-48.4354852-27.3090403-65.9154929z"/><path d="m54.6830986.75704225-23.9788732 23.89084505 66.3028169 66.3732395c1.4879521 1.4831844 2.3242769 3.497678 2.3242769 5.5985915 0 2.1009136-.8363248 4.1154067-2.3242769 5.5985917l-66.3028169 66.302817 23.9788732 23.961267 36.3908451-36.390845c7.3854628-7.38735 11.5335783-17.406156 11.5316903-27.852112v-63.239437c.001888-10.4459563-4.1462275-20.4647623-11.5316903-27.8521127z"/></g></svg>