<svg xmlns="http://www.w3.org/2000/svg" width="500" height="95" viewBox="0 0 500 95"><defs><linearGradient id="a" x1="31.847%" x2="72.939%" y1="65.609%" y2="30.281%"><stop offset="0%" stop-color="#36BDBA"/><stop offset="93%" stop-color="#39D8AA"/></linearGradient><linearGradient id="b" x1="29.807%" x2="63.521%" y1="80.072%" y2="29.864%"><stop offset="20%" stop-color="#2576F4"/><stop offset="100%" stop-color="#3298DA"/></linearGradient></defs><g fill="none"><path fill="#00207A" d="M302.997 81.697c-8.192 0-14.364-6.872-14.364-15.986v-.163c0-9.022 6.172-15.827 14.364-15.827 4.952 0 8.851 1.987 12.552 6.359l10.636-8.231c-5.564-7.341-13.092-10.914-23.029-10.914-16.634 0-29.177 12.373-29.177 28.776v.159c0 7.921 2.957 15.207 8.347 20.509 5.298 5.227 12.472 8.104 20.199 8.104 10.425 0 17.886-3.665 24.062-11.86l-10.6-7.552c-3.43 3.998-7.027 6.626-12.989 6.626zm69.022-8.259c5.167-2.194 11.3-6.896 11.3-16.86v-.163c0-5.421-1.59-9.599-4.833-12.766-3.899-3.975-9.984-5.994-18.096-5.994h-26.284v55.684h14.281v-17.345h8.18l11.526 17.345h16.391l-13.359-19.519.894-.382zm-3.064-15.898c0 4.678-3.577 7.583-9.304 7.583h-11.264v-15.31h11.188c5.962 0 9.384 2.782 9.384 7.583l-.004.143zM406.479 70.767h27.492v-10.93h-27.492v-10.262h30.357v-11.908h-44.475v55.68h44.885v-11.908h-30.767zM491.737 45.417c-5.588-5.072-13.645-7.75-23.295-7.75h-21.304v55.68h20.97c9.698 0 17.83-2.782 23.517-7.993 5.449-5.012 8.347-11.924 8.347-20.012v-.159c-.008-8.048-2.854-14.881-8.235-19.766zm-6.467 20.163c0 9.424-6.359 15.278-16.582 15.278h-7.242v-30.711h7.262c10.231 0 16.582 5.855 16.582 15.278l-.02.155zm-245.89-28.585c-15.274 0-26.793 12.369-26.793 28.768 0 16.606 11.868 28.657 28.219 28.657 8.875 0 15.942-3.017 21.574-9.217l-5.624-5.004c-4.909 4.463-9.646 6.359-15.715 6.359-9.599 0-16.558-6.117-18.16-15.962l-.286-1.749h42.925c.056-.692.099-1.395.099-2.114 0-8.251-2.353-15.7-6.63-20.974-4.65-5.727-11.435-8.764-19.61-8.764zm-16.86 26.105l.231-1.705c1.347-10.056 7.834-16.554 16.522-16.554 8.939 0 15.147 6.359 16.196 16.602l.171 1.657h-33.12zm-50.652-26.22c-12.655 0-25.465 9.881-25.465 28.772 0 14.308 8.744 28.768 25.465 28.768 7.607 0 13.688-3.359 18.585-10.266l2.742-3.863v13.048h10.302v-83.835h-10.302v40.517l-2.703-3.482c-5.04-6.498-11.133-9.658-18.625-9.658zm21.55 28.772c0 11.526-7.893 20.227-18.359 20.227-10.572 0-18.247-8.506-18.247-20.227 0-11.924 7.504-20.231 18.247-20.231 10.465 0 18.359 8.696 18.359 20.231z"/><path fill="url(#a)" d="M87.838 70.747l22.655 22.655h-22.258l-37.361-37.361h23.116c10.317 0 18.68-8.364 18.68-18.68 0-10.317-8.364-18.68-18.68-18.68h-7.536l-18.68-18.68h25.358c20.634 0 37.361 16.727 37.361 37.361 0 15.151-6.677 27.027-22.655 33.386z"/><path fill="url(#b)" d="M22.655 22.655l-22.655-22.655h22.277l37.361 37.361h-23.116c-10.317 0-18.68 8.364-18.68 18.68 0 10.317 8.364 18.68 18.68 18.68h7.516l18.68 18.68h-25.358c-20.634 0-37.361-16.727-37.361-37.361 0-15.151 6.677-27.027 22.655-33.386z"/></g></svg>