<svg xmlns="http://www.w3.org/2000/svg" width="500" height="136" viewBox="0 0 500 136"><defs><linearGradient id="a" x1="49.839%" x2="49.839%" y1="100.192%" y2="-.19%"><stop offset="0%" stop-color="#164990"/><stop offset="100%" stop-color="#1AC0F1"/></linearGradient><linearGradient id="b" x1="50.075%" x2="50.075%" y1="99.739%" y2=".157%"><stop offset="0%" stop-color="#F79425"/><stop offset="100%" stop-color="#D51F26"/></linearGradient><linearGradient id="c" x1="50.044%" x2="50.044%" y1="99.976%" y2=".329%"><stop offset="31.2%" stop-color="#B91C8D"/><stop offset="69.1%" stop-color="#513695"/></linearGradient></defs><g fill="none"><path fill="url(#a)" fill-rule="nonzero" d="M18.939 19.707c2.02-2.273 4.293-4.293 6.818-5.808 2.778-2.02 5.808-3.535 9.091-4.293 5.051-1.263 10.354-2.778 15.404-4.293 6.566-2.02 8.838-3.535 14.899-4.293 5.808-.505 10.606.505 11.111 2.778.505 2.273-5.303 5.051-12.626 5.303-6.818.758-8.333-1.263-13.384-1.263-5.303-.253-10.859 1.515-15.152 4.545-1.768 1.263-3.283 3.03-6.566 5.051-2.525 1.768-5.051 3.03-7.828 4.293-2.525.758-4.04.505-1.768-2.02zm-12.121 23.737c3.03-2.525 5.808-9.343 13.131-14.141 10.606-4.545 8.333 3.283 16.919 1.263 2.02-.505 13.636-5.051 15.152-13.131 1.01-5.051-3.283-6.566-9.343-5.051-6.818 2.273-9.848 7.071-17.424 11.364-11.364 6.566-10.354 1.263-17.677 15.152-2.02 4.293-2.525 6.313-.758 4.545zm82.576-15.909c9.343 1.263 7.828-6.061 20.202-2.778 9.091 3.788 11.869 10.606 16.162 12.626 2.525 1.768 2.778-.505 1.01-4.545-3.03-5.556-5.303-9.343-10.354-9.848-6.313-.505-12.626-2.525-18.182-6.061-4.04-2.525-6.818-4.798-11.616-5.556-6.061-.758-10.859 1.263-10.606 5.808-.253 4.293 6.061 9.596 13.384 10.354zm10.354-15.152c6.061 3.03 11.111 4.798 11.616 3.535.758-1.515-3.03-4.798-8.586-7.828-5.303-2.778-10.606-4.04-11.616-3.03-1.01.758 2.525 4.293 8.586 7.323z"/><path fill="url(#b)" fill-rule="nonzero" d="M20.707 114.152c2.778 1.01 5.303 2.525 7.576 4.293 3.03 2.02 4.545 3.788 6.566 5.051 4.293 3.283 9.848 4.798 15.152 4.545 5.051 0 6.566-2.02 13.384-1.263 7.323.253 12.879 3.03 12.626 5.303-.253 2.273-5.303 3.03-11.111 3.03-6.061-.758-8.333-2.273-14.899-4.293-5.051-1.515-10.354-3.03-15.404-4.293-3.283-.758-6.313-2.273-9.091-4.293-2.525-1.768-4.798-3.535-6.818-5.808-2.02-3.03-.505-3.283 2.02-2.273zm-13.384-17.424c7.323 13.889 6.313 8.586 17.677 15.152 7.576 4.293 10.859 9.091 17.424 11.364 6.313 1.515 10.606 0 9.343-5.051-1.768-7.828-13.131-12.626-15.152-13.131-8.586-2.02-6.313 5.808-16.919 1.263-7.323-4.798-10.101-11.616-13.131-14.141-1.515-1.768-1.01.505.758 4.545zm68.182 21.97c-.253 4.545 4.545 6.566 10.606 5.808 4.798-1.01 7.576-3.03 11.616-5.556 5.556-3.283 11.616-5.303 18.182-6.061 5.051-.505 7.323-4.293 10.354-9.848 1.768-3.788 1.515-6.061-1.01-4.545-4.293 2.02-6.818 8.838-16.162 12.626-12.121 3.283-10.606-4.04-19.949-2.778-7.071.505-13.384 5.808-13.636 10.354zm15.657 12.374c1.01 1.01 6.313-.253 11.616-3.03 5.303-3.03 9.091-6.566 8.586-7.828-.758-1.263-5.808.505-11.616 3.535-6.061 2.778-9.596 6.313-8.586 7.323z"/><path fill="url(#c)" fill-rule="nonzero" d="M4.545 79.556c-3.03-.505-4.293-6.061-4.293-11.616 0-5.556 1.263-11.111 4.293-11.616 5.556-.758 5.556 23.99 0 23.232zm92.929 5.303c9.343 0 16.919-7.576 16.919-16.919s-7.576-16.919-16.919-16.919c-15.657 0-11.869 13.636-33.586 13.636-17.929 0-18.182-10.859-27.525-10.859s-12.121 9.343-12.121 14.141 2.778 14.141 12.121 14.141c9.091 0 9.596-10.859 27.525-10.859 21.97 0 17.929 13.636 33.586 13.636zm-85.859.505c0 6.818 6.061 15.909 10.354 15.909 2.778 0 2.525-4.04 9.343-4.04 1.263 0 2.525.253 4.293.505 15.404 1.768 16.414 10.859 26.515 11.616h.505c9.596 0 13.636-6.818 13.636-12.121 0-7.071-6.818-13.889-14.899-13.889h-.505c-10.101 0-10.606 9.343-23.232 9.343-.758 0-1.768 0-2.778-.253-5.303-.758-10.354-3.788-13.636-8.081-3.283-5.051-4.798-10.606-4.798-16.414 0-5.808 1.515-11.364 4.798-16.414 3.283-4.293 8.081-7.323 13.636-8.081 1.01 0 2.02-.253 2.778-.253 12.626 0 13.131 9.343 23.232 9.343 14.394 0 15.404-13.384 15.404-13.889 0-5.303-4.04-12.121-13.636-12.121h-.505c-10.101.758-11.364 9.848-26.515 11.616-1.515.253-3.03.505-4.293.505-6.818 0-6.566-4.293-9.343-4.293-4.293 0-10.354 9.343-10.354 16.162 0 2.778 2.273 7.323 2.273 17.677s-2.273 14.646-2.273 17.172z"/><path fill="#26313B" d="M365.152 25.515h2.273v82.323h-2.273v-82.323zm-174.242 48.232c2.02-20.96-8.586-31.313-25.758-31.313-16.414 0-27.02 11.111-27.02 26.515 0 16.162 10.354 27.02 28.03 27.02 8.081.253 15.909-2.778 21.717-8.333l-7.828-7.828c-3.788 3.03-8.586 4.798-13.384 4.798-8.838 0-14.394-4.545-15.152-10.859h39.394zm-39.394-10.354c1.768-6.566 7.323-9.848 14.141-9.848 7.323 0 12.374 3.283 13.131 9.848h-27.273zm49.242-40.657v71.97h12.374v-71.97h-12.374zm51.515 61.111c-7.828.253-14.141-6.061-14.394-13.636v-.758c0-8.081 6.566-14.394 14.394-14.394 8.081 0 14.394 6.566 14.394 14.394.253 7.828-6.061 14.141-13.636 14.394h-.758zm-15.404 32.071v-27.273c3.535 5.556 11.616 7.071 16.919 7.071 16.162 0 25.758-11.869 25.758-26.515s-10.354-26.515-26.01-26.515c-6.566 0-12.626 3.03-16.414 8.081l-.758-7.071h-11.869v71.97h12.374v.253zm64.141-72.222v51.01h-12.626v-51.01h12.626zm-13.636-14.141c0 9.848 14.899 9.848 14.899 0s-14.899-9.596-14.899 0zm65.152 19.697c-5.556-4.798-12.626-7.071-19.697-6.566-9.343 0-21.465 4.04-21.465 15.909s11.364 15.152 20.96 15.657c7.323.505 10.101 1.768 10.101 5.303s-4.545 6.313-9.091 6.061c-5.556 0-13.889-3.03-17.424-7.071l-6.061 8.838c7.323 7.828 15.404 9.091 23.485 9.091 14.646 0 21.717-7.828 21.717-16.667 0-13.636-12.121-15.657-21.717-16.414-6.566-.505-9.596-2.273-9.596-5.556s3.283-5.051 9.343-5.051c4.545-.253 9.091 1.263 12.626 4.545l6.818-8.081zm30.303 1.515h3.03v-13.889h5.303v-2.778h-13.636v2.778h5.303v13.889zm24.747 0v-16.667h-3.03v7.071h-8.081v-7.071h-3.03v16.667h3.03v-6.566h8.081v6.566h3.03zm15.404-3.283h-9.343v-3.788h9.091v-3.03h-9.091v-3.788h9.343v-3.03h-12.374v16.667h12.374v-3.03zm19.697-1.01c-1.01 1.01-2.525 1.768-4.04 1.768-3.03.253-5.556-2.02-5.808-5.051v-.758c-.253-3.03 2.02-5.556 5.051-5.808h.505c1.515 0 3.03.505 4.04 1.515l2.02-2.02c-1.515-1.515-3.788-2.525-6.061-2.525-4.545-.253-8.586 3.283-8.838 7.828v.758c-.253 4.545 3.283 8.333 7.828 8.586h1.01c2.273 0 4.545-.758 6.313-2.525l-2.02-1.768zm16.162 1.01h-9.343v-3.788h9.091v-3.03h-9.091v-3.788h9.343v-3.03h-12.374v16.667h12.374v-3.03zm2.525-13.384v16.667h11.616v-2.778h-8.586v-13.636h-3.03v-.253zm13.889 0v16.667h11.616v-2.778h-8.586v-13.636h-3.03v-.253zm-83.838 27.525c-1.263-2.273-3.788-3.535-6.566-3.283-3.03 0-6.313 1.515-6.313 4.798 0 3.283 3.03 4.545 6.566 5.051 2.273.253 3.788 1.01 3.788 2.525s-1.768 2.525-3.788 2.525c-2.02.253-3.788-.758-4.798-2.525l-2.525 1.263c1.263 2.778 4.293 4.545 7.323 4.04 3.788 0 7.071-1.515 7.071-5.303 0-3.788-3.283-4.798-6.566-5.303-2.02-.253-3.788-.758-3.788-2.02 0-1.263 1.01-2.273 3.535-2.273 1.515 0 3.03.758 4.04 1.768l2.02-1.263zm15.404 9.596c-1.01 1.01-2.525 1.768-4.04 1.768-3.03.253-5.556-2.02-5.808-4.798v-.758c-.253-3.03 2.02-5.556 5.051-5.808h.505c1.515 0 3.03.505 4.04 1.515l2.02-2.02c-1.515-1.515-3.788-2.525-6.061-2.525-4.545-.253-8.586 3.283-8.838 7.828v.758c-.253 4.545 3.283 8.333 7.576 8.586h1.01c2.273 0 4.545-.758 6.313-2.525l-1.768-2.02zm7.071 4.293v-16.667h-3.03v16.667h3.03zm15.152-3.283h-9.343v-3.788h9.091v-2.778h-9.091v-3.788h9.343v-3.03h-12.374v16.667h12.374v-3.283zm13.889-3.03l-8.081-10.354h-2.525v16.667h3.03v-11.111l8.586 11.111h2.02v-16.667h-3.03v10.354zm18.434 2.02c-1.01 1.01-2.525 1.768-4.04 1.768-3.03.253-5.556-2.02-5.808-4.798v-.758c-.253-3.03 2.02-5.556 5.051-5.808h.505c1.515 0 3.03.505 4.04 1.515l2.02-2.02c-1.515-1.515-3.788-2.525-6.061-2.525-4.545-.253-8.586 3.283-8.838 7.828v.758c-.253 4.545 3.283 8.333 7.576 8.586h1.01c2.273 0 4.545-.758 6.313-2.525l-1.768-2.02zm16.414 1.01h-9.343v-3.788h9.091v-2.778h-9.091v-3.788h9.343v-3.03h-12.374v16.667h12.374v-3.283zm-86.616 23.737c-1.01 1.01-2.525 1.768-4.04 1.768-3.03.253-5.556-2.02-5.808-4.798v-.758c-.253-3.03 2.02-5.556 5.051-5.808h.505c1.515 0 3.03.505 4.04 1.515l2.02-2.02c-1.515-1.515-3.788-2.525-6.061-2.525-4.545-.253-8.586 3.283-8.838 7.828v1.01c-.253 4.545 3.283 8.333 7.576 8.586h1.01c2.273 0 4.545-.758 6.313-2.525l-1.768-2.273zm11.616-12.626c-4.545-.253-8.333 3.535-8.586 8.081v.758c0 4.798 3.788 8.586 8.586 8.586s8.586-3.788 8.586-8.586c.253-4.545-3.283-8.333-7.828-8.586-.253-.253-.505-.253-.758-.253zm0 2.778c3.03 0 5.303 2.273 5.556 5.303v.758c0 3.03-2.525 5.556-5.556 5.556-3.03 0-5.303-2.525-5.303-5.556-.253-3.03 1.768-5.556 4.798-5.808 0-.253.253-.253.505-.253zm25.253 14.141h3.03v-16.667h-3.535l-5.303 7.071-5.303-7.071h-3.535v16.667h3.03v-12.121l5.303 7.323h.505l5.303-7.071.505 11.869zm9.091-13.636h4.798c1.515-.253 3.03 1.01 3.283 2.778.253 1.515-1.01 3.03-2.778 3.283h-5.303v-6.061zm4.798-3.03h-7.828v16.667h3.03v-5.051h4.798c3.283 0 5.808-2.525 5.808-5.808s-2.525-5.808-5.808-5.808zm21.465 16.667h3.535l-7.323-16.667h-3.535l-7.323 16.667h3.283l1.515-3.03h8.586l1.263 3.03zm-2.525-6.061h-6.313l3.03-7.071 3.283 7.071zm18.434-.253l-8.081-10.354h-2.525v16.667h3.03v-11.364l8.586 11.111h2.02v-16.667h-3.03v10.606zm8.586-10.354h-3.788v.253l6.313 9.596v6.818h3.03v-6.818l6.566-9.596v-.253h-3.788l-4.293 6.818-4.04-6.818z"/></g></svg>