<svg xmlns="http://www.w3.org/2000/svg" width="500" height="138" viewBox="0 0 500 138"><g fill="none"><path fill="#42C1CA" d="M136.366 78.618c-5.524 37.452-40.363 63.333-77.814 57.809-37.452-5.524-63.333-40.363-57.809-77.813 5.524-37.452 40.361-63.333 77.813-57.811 37.452 5.524 63.333 40.363 57.81 77.814v.001zm-37.065-51.121c-13.859-8.765-23.77 10.532-24.002 11.118-2.471 4.82-4.505 12.197-5.766 17.699l-18.099-2.671-.709 4.868 17.817 2.628c-.494 2.546-.745 4.183-.745 4.183l-.878 5.364.05.007-.054.318-17.686-2.608-.665 4.874 17.476 2.581c-4.593 23.185-7.992 30.175-11.414 34.013-.696.822-5.603 4.105-8.072-1.769-1.725-4.104-4.998-3.539-4.998-3.539-.924-.088-5.218 2.686 1.511 6.943 13.858 8.764 23.77-10.533 24.002-11.118 2.47-4.818 5.764-17.842 7.027-23.343l18.167 2.679.709-4.867-17.886-2.64c.494-2.545.746-4.182.746-4.182l.877-5.365-.05-.007.055-.318 17.685 2.609.665-4.875-17.475-2.577c4.593-23.185 6.731-24.533 10.153-28.37.696-.821 5.604-4.105 8.072 1.77 1.725 4.103 4.999 3.538 4.999 3.538.924.088 5.217-2.686-1.511-6.942z"/><path fill="#272941" d="M211.321 61.352h-30.675v-25.07h31.694l.713-7.643h-41.172v74.395h8.764v-34.548h30.675v-7.134zm20.484-32.713h-8.357v9.783h8.357v-9.783zm0 19.771h-8.357v54.624h8.357v-54.624zm22.318-20.484l-8.357.917v50.854c0 18.14.306 24.357 13.758 24.357.815 0 2.752-.102 5.605-.611l-.51-6.522c-2.548.204-3.261.306-4.484.306-5.707 0-6.013-3.669-6.013-15.592v-53.707zm40.764 76.331c-15.592 0-25.07-11.108-25.07-28.637 0-16.306 9.783-28.127 24.051-28.535 13.554 0 22.013 10.293 22.013 26.395 0 .815-.102 2.854-.102 3.771h-37.401c0 12.331 7.236 19.873 16.815 19.873 7.745 0 13.452-2.854 17.325-5.503l2.548 6.115c-4.484 3.873-11.414 6.522-20.178 6.522zm-16.204-32.815h29.146c0-11.618-5.809-17.529-13.962-17.529-8.255 0-14.268 6.828-15.185 17.529zm86.115 27.822c-3.567 3.363-9.376 4.994-14.777 4.994-17.019 0-26.293-13.35-26.293-28.535.102-15.083 9.885-28.637 26.191-28.637 6.318 0 11.822 1.834 14.879 4.79l-2.14 5.911c-4.178-2.752-8.662-3.771-12.841-3.771-9.987 0-17.631 9.274-17.631 21.911 0 12.535 7.338 21.503 18.242 21.503 4.892 0 9.274-1.936 12.331-4.076l2.038 5.911zm48.611-23.439c0-11.618-4.28-21.809-16.611-21.809-11.72 0-17.121 10.803-17.121 21.911 0 11.006 5.401 21.503 17.325 21.503 11.822 0 16.408-10.497 16.408-21.605zm8.662-.102c0 15.083-8.866 28.535-25.274 28.535-16.51 0-25.682-12.739-25.682-28.433 0-15.592 9.376-28.739 25.885-28.739 16.713 0 25.07 12.943 25.07 28.637zm20.076-47.083h-8.357v9.783h8.357v-9.783zm0 19.771h-8.357v54.624h8.357v-54.624zm39.745-1.325c-7.541 0-15.185 3.567-19.465 9.376l-.713-8.051h-7.236l.204 13.248v41.376h8.357v-37.299c1.325-4.892 7.847-11.516 17.019-11.516 10.089 0 10.701 7.236 10.701 21.401v27.414h8.357v-32.713c0-15.287-5.197-23.236-17.223-23.236z"/></g></svg>