<svg height="106" viewBox="0 0 500 106" width="500" xmlns="http://www.w3.org/2000/svg" xmlns:xlink="http://www.w3.org/1999/xlink"><mask id="a" fill="#fff"><path d="m0 0h110.459443v105.180108h-110.459443z" fill="#fff" fill-rule="evenodd"/></mask><mask id="b" fill="#fff"><path d="m0 0h79.3217651v102.904095h-79.3217651z" fill="#fff" fill-rule="evenodd"/></mask><mask id="c" fill="#fff"><path d="m0 0h76.0315839v77.5004554h-76.0315839z" fill="#fff" fill-rule="evenodd"/></mask><g fill="#1d1d1b" fill-rule="evenodd"><path d="m68.3875946-.00008576c-.0920522 1.25699825-.1889643 2.51371063-.2755848 3.77128063-.2672944 3.88220065-.3822167 7.76583073-.2361339 11.65803703.1026296 2.7318343.2572887 5.4588086.529443 8.1783502.3104617 3.10233.7595734 6.186364 1.3081701 9.2555323.0423097.2352762.1186387.4645491.1958253.7618604 1.6397867-.1046307 3.215537-.4110901 4.7938603-.668093 1.5543096-.2530005 3.1009006-.5614611 4.6409165-.8913624 1.5737492-.3370482 3.141495-.7064004 4.7009504-1.1046261 1.5594554-.3979399 3.1126216-.8247533 4.6552103-1.2835848s3.0766011-.9499671 4.5997503-1.4691185c1.4902733-.5080022 2.9702551-1.0488803 4.4402312-1.613486 1.497992-.5751832 2.9779737-1.1966784 4.4902597-1.807882.303601.272726.337048.6340737.441393.9539694 1.335042 4.0937491 2.665511 8.1892135 3.996837 12.2841061 1.158085 3.5620192 2.316456 7.1243242 3.472826 10.6869151.106918.3293296.200113.6629473.317894 1.0554555-.33619.0974838-.629499.1992558-.930241.2675802-10.2315144 2.3241746-19.9873303 5.9282176-29.2500095 10.8587268-.3401928.1809597-.6786704.36535-1.0134316.5554577-.0563176.0320182-.0903369.1026296-.1649506.1909654-.0317323.3416222.2041157.6249257.3510561.9299557 3.0517299 6.3261575 6.6494836 12.3267018 10.7721063 18.013068 2.0786068 2.8673397 4.2841428 5.6331932 6.6106044 8.3032782.2052592.2355621.399941.4802723.5797572.6972524-.0174385.0797595-.0200113.1134929-.0325899.1426523-.0134362.0314464-.0303029.0666092-.0563176.0869064-.2192672.1738128-.4365332.3510561-.6629473.515435-6.798711 4.9385138-13.5988514 9.8758838-20.4513072 14.8515618-.7478525-1.069464-1.3327555-2.183238-2.0171435-3.23269-.6695223-1.026868-1.326752-2.0623117-2.0114259-3.0791738-.7041134-1.0463074-1.421663-2.0837526-2.1572228-3.1080476-.7152626-.9957072-1.4485354-1.9794077-2.1966738-2.9508155-.7695791-.9991378-1.5551672-1.9865547-2.3550492-2.9616789-.7775837-.9482518-1.5703188-1.8844968-2.3779194-2.8073056-.8307566-.9491094-1.6758071-1.8862121-2.536009-2.808735-.8364741-.8970799-1.6889574-1.7792943-2.5543051-2.6483584-.8873601-.8913624-1.7987339-1.7589971-2.6869516-2.6246306-1.6060533 1.0491661-7.8678886 7.7661165-11.5010909 12.3081198-3.5065592 4.3836277-6.6706385 9.0042466-9.4985272 13.7883876-.094911.033733-.1243562.053173-.1532297.052315-.0334476-.001143-.0720409-.012007-.0991991-.031446-6.7784138-4.916787-13.55597-9.834432-20.3329545-14.7532203-.2535723-.1843902-.4988542-.3802155-.7930209-.6052002.1495133-.3739262.4482541-.6183505.6898196-.8950788 5.0825954-5.8267315 9.5885782-12.0679837 13.4124601-18.7886505 1.349908-2.3727736 2.5706-4.8190174 3.8444649-7.2349583.1786728-.3387635.3224685-.6961089.4802723-1.040304-.2204107-.3879342-.6160635-.4859898-.9453931-.6626614-6.4979691-3.4819737-13.2635185-6.3295879-20.2949329-8.5468448-3.07259883-.9688349-6.1777876-1.814743-9.32014029-2.5268609-.26615087-.0603199-.52343957-.1612343-.8070289-.2501418.02515712-.1821033.02401361-.3221827.06489393-.44854 2.64835838-8.153479 5.30014728-16.3058145 7.95565258-24.4704427.4336744-.0837617.72212362.1538015 1.02743955.2833035 4.38562893 1.8633419 8.85845003 3.4831173 13.43504433 4.8135857 4.4751082 1.3007374 9.0051046 2.3616245 13.6094289 3.0946114 1.1412183.1815315 2.2812931.3690663 3.4242267.5388769.3013137.0448826.6109178.0331616.9828429.0503142.1841043-1.024009.3687805-1.9814089.5268701-2.9430969.5566012-3.3887781.966262-6.7969958 1.2141168-10.2212225.3670652-5.0717321.4396778-10.1494676.1360771-15.22863248-.0814747-1.36363013-.1906795-2.725545-.2755848-4.08888925-.0237277-.38278841-.0048599-.76786384-.0054316-1.15208163z" mask="url(#a)"/><path d="m79.2972359-.00008576c.0057175.42023821.016295.84019055.016295 1.26042877.0011435 7.6025953.0017152 15.20490469-.0020012 22.80749999-.0002858.4105184.0577471.8313284-.0994849 1.2847283-1.4871287.1077754-2.952245.036878-4.4150742.0494566-1.50714.0128644-3.0142801.0028588-4.5214201.0028588h-4.4162177-4.4159317-4.5214202-4.4162176-4.5211343-4.4162176-4.4162177c-1.50714 0-3.0139942-.0008577-4.5211343.0002858-1.4648303.0014294-2.9299465-.0062892-4.3118728.0054317-.1026296.1246421-.1283584.1495133-.1460828.1792444-.0171525.0285877-.0351627.0614635-.0377356.0934816-.0122927.1743846-.0285877.349055-.0283018.5237255.0040023 5.2201019.0097198 10.4399179.0182961 15.6597339 0 .0651798.0411662.1303596.0846194.2598616.1649506.0291594.3607759.0837618.5588882.0946251.3147499.0174384.6306432.0057175.9462507.0057175 12.5825611.0002859 25.1648363 0 37.7473974.0011435.4148065 0 .8293272.0131503 1.2361293.0200114.2252705.4625479.1415087.8882177.1420805 1.2978785.0057175 6.6566305.0040023 13.313261.0040023 19.9698915-.0002859.455401.0042881.9110879-.0051458 1.3662031-.0034305.1672376-.0403086.3336176-.0666092.536304-.2032581.0357345-.3693522.0840476-.5374475.0909086-.3499126.014008-.7006829.0068611-1.0511673.0068611-12.5473983.0002858-25.0947966-.0005718-37.6424808.0031446-.4445377.0002859-.9022257-.0688962-1.3764945.1200681-.1246421 1.2395598-.0425956 2.4605376-.0568894 3.6783708-.0148656 1.2610005-.0031447 2.5222869-.0031447 3.7835733v3.6786567 3.6786567 3.7838592 3.6786567 3.6786567 3.6786567c0 1.2612864.0037164 2.5225728-.0011435 3.7838592-.0048599 1.2206918.0237278 2.4422418-.0237277 3.7221098-.2401361.04088-.4348179.089194-.6320726.103201-.2441384.01643-.4905638.006576-.7358457.006576-9.1125941.000285-18.2251882.001143-27.33806817-.003145-.4108043-.000286-.83533066.071469-1.26357341-.11921-.02687238-.139508-.06975383-.271297-.07432785-.404801-.01172093-.349913-.00829041-.700397-.00829041-1.050882-.00028588-33.3183151 0-66.6366304-.00142938-99.95465977 0-.45397162-.01743846-.90765737-.02687238-1.36162899z" mask="url(#b)" transform="translate(146.843468)"/><path d="m46.9592755 42.7040912c-.2712967.0991991-.4628338.1623778-.6486535.2387067-.7121179.2927374-1.4168031.6043426-2.1340668.8827862-2.6180555 1.0157186-5.3327372 1.6941031-8.0682879 2.3021621-1.8127418.4030856-3.6000407.89708-5.3010049 1.6606557-.9310992.4179512-1.8078819.9228088-2.5763175 1.6034803-.8916483.7898763-1.4968485 1.7587112-1.7838684 2.9116505-.2124061.8536268-.2987407 1.7264072-.226414 2.6069063.2064027 2.5117095 1.4225206 4.3578989 3.6920929 5.4670991.5923357.2895927 1.2306976.5205808 1.8730617.6672354 3.1109063.7101168 6.1323333.383646 9.0193985-.9628315 2.7484151-1.2815837 4.5700191-3.4187951 5.536567-6.2807032.4050867-1.1992512.6609461-2.4376675.6746681-3.7069584.0248713-2.3118819.0177244-4.6240498.020299-6.9362176.0002841-.1023437-.0337352-.2046874-.0774742-.4539716zm29.0724799 32.8531945c-.312177.0265865-.6243539.0766149-.936245.0766149-8.2718318.0042881-16.5433777.0034305-24.8149237.0034305h-.871351c-.1783869-.2955962-.3567737-.5500261-.4937085-.8250391-.8507679-1.7069676-1.3404741-3.5291434-1.6961043-5.3924854-.1100624-.5766125-.2115485-1.1546545-.3170368-1.7315529-.3756415-.0651798-.469409.1998275-.6069155.3776426-.9456789 1.2235507-1.9902711 2.3530481-3.1626499 3.363621-3.0365785 2.6171978-6.5594326 4.2504093-10.4344863 5.1832238-3.3330322.802169-6.7166645.9837005-10.1257399.8456222-3.243267-.1315031-6.396483-.7321293-9.4273439-1.9107974-3.0485853-1.185815-5.7398251-2.9136516-7.95079269-5.3456016-2.16494149-2.3816358-3.61919442-5.1563515-4.39477692-8.2661143-1.02543842-4.1114735-1.06517523-8.2518205-.11635167-12.3858782 1.09433462-4.7704184 3.74555176-8.4659418 7.81871781-11.154037 2.32817687-1.5365853 4.87161867-2.6063346 7.53055447-3.414507 2.6177696-.7958797 5.2884263-1.3559114 8.0005352-1.710684 2.2224026-.2904503 4.4510945-.5323017 6.671496-.8364741 3.2601338-.4465389 6.5228404-.8979376 9.6826316-1.8624844.8015972-.2444242 1.5940464-.5351605 2.3587656-.8762109.5711809-.2547158 1.1154895-.5891912 1.6286375-.9496812 1.2238366-.8602019 1.8547657-2.073747 1.9591105-3.5548723.0794737-1.1292115-.0537447-2.2421281-.4007986-3.3193101-.4982824-1.546591-1.4762654-2.6892387-2.970541-3.3556164-.4456812-.1986841-.9070856-.3893636-1.3813545-.4917073-2.1194871-.4588316-4.2404037-.4819876-6.3415947.1186386-2.1995326.628928-3.8416063 1.9633987-4.9445172 3.9633896-.5628905 1.0208644-.917663 2.1166284-1.1620873 3.2518433-.0723267.3361906-.1518003.6706659-.210405.9279546-.1097765.0834759-.1349336.1097765-.1658082.1237844-.0311606.014008-.0677527.020869-.1023438.0220125-.3147498.0108633-.6294997.0280159-.9445354.0280159-7.9911012-.0002859-15.9822025-.002287-23.9733037-.0065752-.10262961 0-.20583097-.030017-.30760294-.0508859-.03316166-.0068611-.0628928-.0300171-.12664322-.0620352-.17838683-.4556869-.06460805-.9476801-.01915371-1.4222348.41880883-4.3670469 1.76328524-8.4141982 4.24812236-12.0539757 2.19124212-3.20924778 5.01970261-5.73382171 8.35788061-7.6995074 3.0420101-1.79130113 6.3130071-3.00427443 9.7375198-3.82531127 4.2155324-1.01057285 8.4996752-1.36906177 12.8232689-1.33761538 1.4719773.0108633 2.945098.02172661 4.4147883.08976517 3.9956935.18439024 7.9613701.59862505 11.8355662 1.66208503 3.6580736 1.00399769 7.0185499 2.59804414 9.9736536 4.99997712 4.2132455 3.42479853 6.8115755 7.83301163 7.9968188 13.10600063.5485967 2.4405263.7309858 4.9153578.7315576 7.4081994.0017152 12.0519746-.0031447 24.1042351.0057175 36.1562097.0008576 1.4708338.0363063 2.9433828.1180669 4.4116436.0503142.9059422.1961112 1.8090255.3390493 2.7066772.2507136 1.5731775.9090868 2.9348065 2.1666568 3.9636754z" mask="url(#c)" transform="translate(423.968416 27.257052)"/><path d="m277.251762 65.7346622c-.048885-.8424776-.09634-2.3481883-.23156-3.8456085-.217837-2.4105093-.656944-4.7821394-1.447963-7.0782981-.677813-1.9676868-1.59662-3.802727-2.937094-5.4133543-2.961679-3.5585887-7.52598-4.4628155-11.416471-3.2072467-2.222975.7175497-3.903928 2.1443584-5.222675 4.0331434-1.031442 1.477123-1.74842 3.106904-2.289584 4.8167304-.947394 2.9931253-1.337043 6.0794462-1.458255 9.2003582-.112921 2.9070764-.029445 5.8101506.396511 8.6955005.3542 2.3973589.907657 4.7409732 1.893644 6.9659487.628071 1.4165172 1.418805 2.7315484 2.467399 3.8824865 1.33104 1.461114 2.939952 2.4671128 4.85904 2.9639659 1.059458.2744413 2.138927.3484832 3.229259.307317 2.048304-.0777583 3.914791-.6892478 5.58145-1.8916437 1.238988-.8936494 2.22469-2.0200022 3.041152-3.3018717 1.043735-1.6380714 1.755853-3.4196527 2.274432-5.2832806.927097-3.3307452 1.222122-6.7395346 1.260715-10.844147zm-14.722631 39.6027348c-1.038017-.139508-2.073747-.30017-3.114337-.415092-7.680354-.847052-14.733495-3.317881-20.858395-8.1286082-6.183219-4.857039-10.230085-11.1543229-12.395312-18.6820186-1.319891-4.5883152-1.739558-9.2784024-1.520862-14.0370999.204401-4.4436618 1.040304-8.7606804 2.678947-12.8987403 4.064304-10.2626747 11.361011-17.236342 21.663709-21.1022477 3.259276-1.2232649 6.639192-1.9582529 10.099153-2.3527623 3.319596-.3785002 6.640621-.4465388 9.968222-.1660941 6.660919.5614611 12.942479 2.3481882 18.636564 5.9242153 7.517404 4.7209618 12.517667 11.4001766 15.224059 19.8220934 1.72755 5.3753328 2.221545 10.899893 1.829894 16.503641-.367351 5.2569799-1.633783 10.2992668-4.011417 15.023945-4.132628 8.2117977-10.545692 13.9430465-19.059661 17.3484054-3.199528 1.279583-6.518552 2.123775-9.939348 2.555449-1.250709.157803-2.505421.285304-3.756987.437105-.275013.033161-.544595.110634-.816749.167809z"/><path d="m418.500459 102.514454c-.540593.34105-1.150939.369352-1.724978.499998-2.633207.598911-5.300148.999137-7.992245 1.198107-1.256712.09291-2.521143.08948-3.78243.104631-2.806734.033448-5.606321-.091194-8.389327-.470552-2.328463-.317609-4.615187-.811603-6.830157-1.624064-5.515984-2.023433-8.98881-5.8896241-10.511101-11.5422569-.659803-2.4496744-.929384-4.9516641-1.023724-7.4773815-.027444-.7349881-.02144-1.4711196-.021726-2.2069653-.001144-11.2114982-.000286-22.4229964-.002001-33.6342087 0-.4145206-.019154-.8287555-.028874-1.2215495-.367923-.2601475-.728413-.1720976-1.066319-.1732411-2.383351-.0077187-4.766702-.0017153-7.150053-.006861-.379072-.0008577-.768721.0594622-1.170377-.1197822-.022013-.2069745-.062321-.4099467-.062607-.612633-.002859-5.1815086-.001724-10.3630172-.000858-15.5019303.43053-.2678661.826183-.1781009 1.20354-.1795303 2.348188-.0088622 4.696662-.002287 7.04485-.0065751.376785-.0008577.763576.0506001 1.18267-.1263574.100629-1.2964492.035163-2.586895.046598-3.8741961.011721-1.2964492.002573-2.5926125.002573-3.8890617v-3.9939783-3.8890617c0-1.2964492-.00343-2.5926125.001144-3.88906166.004574-1.29073166-.021441-2.58203507.020297-3.93222901.243852-.03945094.439106-.08633466.636647-.09948497.244424-.01658083.490563-.00571752.735845-.00571752 7.956225 0 15.912449-.00028588 23.868673.00085762.41595 0 .831614.01172093 1.209543.01743846.276157.42338286.174099.81989333.17467 1.19410546.007433 5.64062602.005146 11.28153792.005146 16.92216392 0 1.4716913-.003144 2.9430968.002287 4.4145023.00143.3419081.032018.6838162.050314 1.0474509.46312.1477981.882787.1020579 1.294163.1026297 3.785288.0037163 7.570863-.0002859 11.356151.0060034.378786.0005717.77158-.0757573 1.176095.1326466.01944.184962.055746.3873624.06032.5906205.099485 4.4322267.04717 14.5656852-.07833 15.5519586-.348197.2301304-.744993.1366489-1.121493.1375065-3.820451.0071469-7.640616.0034305-11.461068.0060034-.379072.0002859-.757858.0214407-1.103197.0320182-.25786.3770708-.16981.7367033-.170954 1.0757526-.007718 2.4876959-.004288 4.9751059-.004288 7.4628018 0 6.9370752-.001143 13.8741504.001144 20.8112255.000571.9453931.020583 1.886498.232131 2.8201701.46655 2.059739 1.682383 3.4113623 3.693523 4.0605875 1.212687.3913647 2.464825.5557436 3.725254.5751832 1.434813.0222983 2.871342-.0537448 4.306727-.094911.521439-.0148655 1.042305-.0517436 1.603195-.0806171.043453.2672944.104344.4674078.104344.6675213.005146 6.2363922.004575 12.4727845.002288 18.7091768 0 .172383-.02916.345053-.044025.511147"/><path d="m311.678706 29.6819111c.12407-.0488848.219267-.1189245.314464-.1189245 8.340728-.0082905 16.68117-.0114351 25.021612-.0108633.132647 0 .265007.0474554.416236.0766148.169239.3933659.10263.7824436.103487 1.1575133.00629 2.9076482.001716 5.8152964.006004 8.7229447.000286.3387634-.053745.6892478.123784 1.0811843.149513-.0620352.302457-.0783301.371068-.1629495.219839-.2712967.410804-.5660352.608344-.8547703 1.750993-2.5597367 3.76099-4.8819102 6.220384-6.7938511 3.05173-2.3724877 6.500828-3.8084446 10.311273-4.4199341 1.979694-.3176086 3.969393-.4705524 5.967955-.3682087.937674.0483131 1.869059.2484265 2.799015.4048009.234704.0394509.4534.1743846.651512.2544299.034877.0640363.052887.0934816.067181.1246421.01458.0314464.036306.064894.036306.097198.00972 7.4613724.01801 14.9227448.024586 22.3838313 0 .1375065-.023728.275013-.041738.4754123-.194968.0365922-.392509.1212116-.578614.1006285-.973981-.1066319-1.944531-.2464254-2.91794-.3627771-2.308165-.2758706-4.61776-.2655791-6.918207.0571753-4.270421.5991968-7.999106 2.2618536-10.829282 5.6334791-1.530867 1.823891-2.571457 3.9125035-3.293295 6.1694972-.74042 2.3158842-1.110915 4.6983776-1.248708 7.1186067-.047741.8387611-.049171 1.6806669-.049456 2.5214293-.003145 9.4933813-.002002 18.9867627-.002002 28.4804298v1.302167c-.255001.05546-.446253.116923-.641506.134362-.243567.021551-.490278.00829-.73556.00829-8.165486.000286-16.330972.00143-24.496457-.003716-.413092-.000286-.839619.08176-1.249852-.11235-.033733-.097198-.096912-.19411-.096912-.291022-.00829-24.1362529-.012578-48.2725062-.013436-72.4087594 0-.1329325.04574-.265865.069754-.3965105"/></g></svg>