<svg height="183" viewBox="0 0 500 183" width="500" xmlns="http://www.w3.org/2000/svg" xmlns:xlink="http://www.w3.org/1999/xlink"><linearGradient id="a" x1="7.18%" x2="73.582%" y1="50%" y2="57.104%"><stop offset="0" stop-color="#a879ff"/><stop offset="1" stop-color="#9099ff"/></linearGradient><linearGradient id="b" x1="0%" x2="100%" y1="70.886%" y2="29.114%"><stop offset="0" stop-color="#a879ff"/><stop offset="1" stop-color="#9593ff"/></linearGradient><linearGradient id="c" x1="50%" x2="50%" y1="0%" y2="100%"><stop offset="0" stop-color="#45afff"/><stop offset="1" stop-color="#8adcff"/></linearGradient><g fill="none"><path d="m281.945137 93.6533666h-26.458853c-1.857855 0-2.755611.8603491-2.755611 2.6309227v2.5810474c0 1.2468823.286783 2.7556113 2.755611 2.7556113h20.997507v22.643391c-2.581048 1.783043-12.032419 6.571072-25.785537 6.571072-21.864141 0-39.588528-17.724388-39.588528-39.5885282 0-21.8641407 17.724387-39.5885287 39.588528-39.5885287 9.852129-.0249865 19.335801 3.7434782 26.483791 10.5236908.499764.5716097 1.211544.9139845 1.970075.9476309.720567-.0586728 1.380208-.4271621 1.80798-1.0099751.648379-.648379 1.421446-1.4214463 2.007481-2.1321695.501095-.5325718.765292-1.2452899.732407-1.9758019s-.36005-1.4166093-.906971-1.9020036c-8.619024-8.1434111-20.103197-12.5569536-31.957606-12.2817955-26.361325-.0138276-47.756061 21.3195412-47.817955 47.680798 0 26.5835408 20.997507 47.3815458 47.817955 47.3815458 18.703242 0 31.059851-8.092269 31.620948-8.478803 1.471363-.880319 2.335119-2.502262 2.244389-4.214464v-29.9251866c-.079312-1.4652369-1.288236-2.613989-2.755611-2.6184538zm88.092269-19.8379053c0-16.0972568-13.129675-28.6790441-29.925187-28.6790441h-31.957606c-.735983-.0165034-1.446947.2682784-1.96751.7888407-.520562.5205622-.805344 1.231526-.788101 1.9675102v87.0199499c.020275 1.511367 1.244168 2.729722 2.755611 2.743142h2.319202c.784042.068753 1.56225-.184929 2.155149-.702538.592898-.51761.949295-1.254457.986996-2.040604v-32.132169h22.680798c1.446384 0 2.730673 0 4.164589-.087282l18.366583 33.216957c.473258 1.09803 1.573293 1.791746 2.76808 1.745636h4.002494c.831386.037954 1.614834-.389818 2.032419-1.109725.444592-.901172.373249-1.971307-.187033-2.805487l-18.19202-32.306733c12.481297-4.1022442 20.785536-15.0374063 20.785536-27.6184537zm-8.354114 0c-.116538 11.912653-9.857745 21.4809062-21.770574 21.3840399h-26.184538v-41.9950124h26.047381c12.082294 0 21.907731 9.2518703 21.907731 20.6109725zm33.216957-28.7032418h-2.842892c-1.513463.0201374-2.735474 1.2421487-2.755611 2.7556109v87.0199506c.026811 1.508591 1.246914 2.723173 2.755611 2.743142h2.718204c.748126.026917 1.475501-.248968 2.017599-.76525.542097-.516283.853113-1.229344.8627-1.977892v-87.0199506c-.020137-1.5134622-1.242148-2.7354735-2.755611-2.7556109zm57.967581 0h-27.369077c-1.470147.0729268-2.6261 1.2836642-2.630923 2.7556109v87.0199506c.011418 1.467119 1.165558 2.670488 2.630923 2.743142h27.369077c16.526876 0 31.798337-8.816983 40.061775-23.129676 8.263437-14.312693 8.263437-31.9466587 0-46.259352-8.263438-14.3126934-23.534899-23.1296755-40.061775-23.1296755zm37.917706 46.1346633c0 22.0573562-16.745636 38.6533662-38.952618 38.6533662h-20.74813v-77.0822939h20.74813c21.832917 0 38.952618 16.882793 38.952618 38.4289277z" fill="#6c4aa2"/><path d="m152.182045 69.5137157c-2.880299 22.7057357-31.433915 22.2194514-44.887781 19.5885287-29.5261842-5.7605985-48.8279298-22.2194514-80.3117204-39.3142145-37.5436409-20.3491272-42.892768 57.2942641 37.1571073 84.8753121 11.5531809 3.829854 23.6965959 5.569452 35.8603491 5.137157 26.795511-.835412 56.27182-25.299252 52.182045-70.2867833z" fill="url(#a)"/><path d="m96.9077307 146.446384c-24.7381546.174564-36.0473816-.586035-44.0274314 5.74813-5.8852868 4.67581-11.4962594 12.755611-11.4962594 30.137157 22.5561097 0 43.9650873-11.795511 55.5236908-35.885287z" fill="url(#b)"/><path d="m150.299252 59.1770574c-5.660848-23.0174564-20.523691-41.6458853-31.309227-50.03740653-9.426434-7.34413965-21.1970075-12.56857855-27.7182046-4.27680798-5.2369077 6.63341651-3.0049875 21.78304241 2.2443891 33.79052371 4.5760598 10.436409 10.5985035 26.3715711 12.9551125 43.0299252 11.583541 2.3441396 41.658354 4.052369 43.82793-22.5062344z" fill="url(#c)"/></g></svg>