<svg xmlns="http://www.w3.org/2000/svg" width="500" height="183" viewBox="0 0 500 183"><g fill="#52398C"><path d="M281.945 93.653h-26.459c-1.858 0-2.756.86-2.756 2.631v2.581c0 1.247.287 2.756 2.756 2.756h20.998v22.643c-2.581 1.783-12.032 6.571-25.786 6.571-21.864 0-39.589-17.724-39.589-39.589 0-21.864 17.724-39.589 39.589-39.589 9.852-.025 19.336 3.743 26.484 10.524.5.572 1.212.914 1.97.948.721-.059 1.38-.427 1.808-1.01.648-.648 1.421-1.421 2.007-2.132.501-.533.765-1.245.732-1.976-.033-.731-.36-1.417-.907-1.902-8.619-8.143-20.103-12.557-31.958-12.282-26.361-.014-47.756 21.32-47.818 47.681 0 26.584 20.998 47.382 47.818 47.382 18.703 0 31.06-8.092 31.621-8.479 1.471-.88 2.335-2.502 2.244-4.214v-29.925c-.079-1.465-1.288-2.614-2.756-2.618zm88.092-19.838c0-16.097-13.13-28.679-29.925-28.679h-31.958c-.736-.017-1.447.268-1.968.789-.521.521-.805 1.232-.788 1.968v87.02c.02 1.511 1.244 2.73 2.756 2.743h2.319c.784.069 1.562-.185 2.155-.703.593-.518.949-1.254.987-2.041v-32.132h22.681c1.446 0 2.731 0 4.165-.087l18.367 33.217c.473 1.098 1.573 1.792 2.768 1.746h4.002c.831.038 1.615-.39 2.032-1.11.445-.901.373-1.971-.187-2.805l-18.192-32.307c12.481-4.102 20.786-15.037 20.786-27.618zm-8.354 0c-.117 11.913-9.858 21.481-21.771 21.384h-26.185v-41.995h26.047c12.082 0 21.908 9.252 21.908 20.611zm33.217-28.703h-2.843c-1.513.02-2.735 1.242-2.756 2.756v87.02c.027 1.509 1.247 2.723 2.756 2.743h2.718c.748.027 1.476-.249 2.018-.765.542-.516.853-1.229.863-1.978v-87.02c-.02-1.513-1.242-2.735-2.756-2.756zm57.968 0h-27.369c-1.47.073-2.626 1.284-2.631 2.756v87.02c.011 1.467 1.166 2.67 2.631 2.743h27.369c16.527 0 31.798-8.817 40.062-23.13 8.263-14.313 8.263-31.947 0-46.259-8.263-14.313-23.535-23.13-40.062-23.13zm37.918 46.135c0 22.057-16.746 38.653-38.953 38.653h-20.748v-77.082h20.748c21.833 0 38.953 16.883 38.953 38.429zm-338.603-21.733c-2.88 22.706-31.434 22.219-44.888 19.589-29.526-5.761-48.828-22.219-80.312-39.314-37.544-20.349-42.893 57.294 37.157 84.875 11.553 3.83 23.697 5.569 35.86 5.137 26.796-.835 56.272-25.299 52.182-70.287zm-55.274 76.933c-24.738.175-36.047-.586-44.027 5.748-5.885 4.676-11.496 12.756-11.496 30.137 22.556 0 43.965-11.796 55.524-35.885zM150.299 59.177c-5.661-23.017-20.524-41.646-31.309-50.037-9.426-7.344-21.197-12.569-27.718-4.277-5.237 6.633-3.005 21.783 2.244 33.791 4.576 10.436 10.599 26.372 12.955 43.03 11.584 2.344 41.658 4.052 43.828-22.506z"/></g></svg>