<svg xmlns="http://www.w3.org/2000/svg" width="496" height="496" viewBox="0 0 496 496"><g fill-rule="evenodd"><path d="M248.013 495.73c-136.81 0-247.717-110.906-247.717-247.717 0-136.81 110.906-247.717 247.717-247.717 136.81 0 247.717 110.906 247.717 247.717 0 136.81-110.906 247.717-247.717 247.717zm-.539-26.583c122.127 0 221.131-99.004 221.131-221.131s-99.004-221.131-221.131-221.131-221.131 99.004-221.131 221.131 99.004 221.131 221.131 221.131zM352.312 165.01c-5.276-11.844-10.191-35.243-23.721-40.447-17.418-6.697-28.185 37.15-30.751 48.228h-2.594c-4.391-18.982-10.285-45.886-31.127-51.878-9.649 40.527 10.08 84.247 28.533 119.319 19.703-9.416 29.303-38.903 31.127-59.66h2.594l20.751 62.254c16.694-4.799 22.502-21.319 28.53-36.315 12.941-32.185 23.799-71.768 15.566-106.35-24.914 7.055-32.494 42.683-38.908 64.847zm-249.014 83.005c22.295-10.645 32.904-44.34 36.315-67.441h2.594c2.638 11.136 9.691 39.863 23.604 41.707 17.727 2.345 27.021-36.989 28.274-49.489h2.594c5.652 19.529 11.608 44.926 31.127 54.472 7.201-30.245-1.421-62.5-12.482-90.786-2.843-7.273-8.682-26.883-18.71-26.883-16.43 0-25.667 43.308-28.468 55.416h-2.594l-20.751-62.254c-36.501 17.431-56.329 110.119-41.502 145.258zm-38.908 31.127c27.088 118.155 152.034 185.137 264.578 135.241 40.96-18.16 73.451-50.516 92.185-91.144 4.84-10.498 14.347-29.498 8.804-43.271-5.52-13.719-59.055 8.697-72.432 14.552-1.878.835-3.203 2.568-3.512 4.602-.438 2.877.34 5.808 2.153 8.088 1.811 2.28 4.49 3.701 7.393 3.925l22.476 1.73c-40.69 78.764-150.708 113.589-228.263 50.664-17.358-14.082-32.844-30.816-43.266-50.664-5.04-9.597-9.714-21.872-18.282-28.458-8.23-6.329-20.717-8.498-31.832-5.263z"/></g></svg>