<svg height="452" viewBox="0 0 500 452" width="500" xmlns="http://www.w3.org/2000/svg"><path d="m391.728369 88.3281869c-7.168466-16.0920428-13.847051-47.884929-32.229902-54.9547139-23.665805-9.099793-38.295255 50.4753038-41.780807 65.5276724h-3.52432c-5.966673-25.7909701-13.973926-62.3452119-42.291834-70.4863899-13.110468 55.0639678 13.695506 114.4663725 38.767515 162.1186965 26.770731-12.793279 39.814237-52.857744 42.291834-81.059348h3.524319l28.194556 84.583668c22.682521-6.519991 30.573472-28.966382 38.76399-49.340473 17.58283-43.729756 32.335632-97.510872 21.149442-144.49709952-33.851089 9.58614903-44.149151 57.99267732-52.864793 88.10798742zm-338.3346714 112.7782241c30.2915261-14.463807 44.7059929-60.244718 49.3404734-91.632307h3.524319c3.584233 15.129903 13.166858 54.161742 32.071308 56.667533 24.085199 3.185985 36.712836-50.256796 38.415082-67.2404916h3.52432c7.679492 26.5346016 15.771329 61.0412136 42.291833 74.0107096 9.783511-41.093566-1.931327-84.9184785-16.959025-123.3511826-3.862654-9.8821918-11.795897-36.5260472-25.420916-36.5260472-22.32304 0-34.873142 58.8420383-38.679407 75.2935617h-3.524319l-28.194556-84.58366792c-49.5942244 23.68342702-76.5341226 149.61793602-56.3891124 197.36189202zm-52.8647924 42.291834c36.8044685 160.536277 206.5674148 251.544779 359.4805888 183.75097 55.652529-24.673761 99.798155-68.636123 125.25079-123.837539 6.576381-14.262921 19.493012-40.078561 11.961541-58.792698-7.499752-18.640125-80.238182 11.817044-98.413098 19.771433-2.551607 1.134831-4.352534 3.489076-4.771928 6.252142-.59561 3.908471.461685 7.890952 2.925185 10.988829 2.459975 3.097877 6.100597 5.029204 10.04431 5.332295 13.325452 1.025577 30.538229 2.350721 30.538229 2.350721-55.286 107.015962-204.766487 154.333475-310.140116 68.837009-23.584746-19.133531-44.6249334-41.868916-58.7856491-68.837009-6.8477528-13.039982-13.1985765-29.717062-24.8394038-38.665309-11.1826658-8.59934-28.1487399-11.545671-43.2504489-7.150844z" fill-rule="evenodd"/></svg>