<svg width="213" height="213" viewBox="0 0 213 213" fill="none" xmlns="http://www.w3.org/2000/svg">
<path fill-rule="evenodd" clip-rule="evenodd" d="M100.663 95.2408C102.077 96.6228 102.785 101.333 102.785 101.333L106.625 136.141H107.736L110.95 101.333C110.95 101.333 111.114 97.1292 112.687 95.2408C114.261 93.3524 119.264 91.3528 119.264 91.3528L205 60.0001C201.764 74.7415 176.593 85.6067 127.223 105.583L126.872 109.076L194.71 83.4587C191.831 98.1105 168.891 108.714 123.895 128.088L123.621 131.075L181.281 107.262C178.892 121.673 122.59 149.138 122.59 149.138C122.59 149.138 113.643 153 106.625 153C99.6071 153 90.7597 149.138 90.7597 149.138C90.7597 149.138 34.1053 121.67 31.7187 107.262L89.3789 131.075L89.1045 128.092C44.1093 108.714 21.1691 98.1106 18.2898 83.4623L86.125 109.076L85.7739 105.583C36.4036 85.6066 11.2331 74.7414 8 60L92.57 90.658C92.57 90.658 98.6558 93.2804 100.663 95.2408Z" fill="white"/>
</svg>
