<svg height="244" viewBox="0 0 500 244" width="500" xmlns="http://www.w3.org/2000/svg"><path d="m235.184044 92.1259775c2.393731 2.408522 4.189029 7.7176142 5.385895 15.9272765l9.747051 90.99221h2.820035l8.156783-90.99221c.278448-7.327111 1.74855-12.6362031 4.410303-15.9272765 2.661754-3.2910734 8.225664-6.6790481 16.691732-10.1639252l217.604157-81.9620523c-8.213931 38.5370143-72.098272 66.9407243-197.403286 119.163721l-.891028 9.130393 172.178002-66.9686773c-7.307927 38.3025789-65.53173 66.0217443-179.73294 116.6701693l-.69635 7.80864 146.345643-62.253536c-4.043324 25.11631-53.697243 61.607584-148.961757 109.473821-15.139761 6.729824-28.646859 10.094735-40.521294 10.094735s-25.296808-3.364911-40.267118-10.094735c-95.861792-47.872428-145.8118257-84.363702-149.8501027-109.473821l146.3456427 62.253536-.69635-7.799258c-114.2012102-50.657712-172.4250522-78.3768774-179.7329391-116.6701701l172.1705831 66.9591541-.891027-9.130394c-125.3053951-52.2232344-189.18992519-80.6267066-197.395679-119.163578l214.644551 80.1456101c10.29746 4.5703945 17.143958 8.56385 20.539493 11.9803674z" fill="#0cc16b"/></svg>