<svg height="123" viewBox="0 0 500 123" width="500" xmlns="http://www.w3.org/2000/svg" xmlns:xlink="http://www.w3.org/1999/xlink"><mask id="a" fill="#fff"><path d="m.063.062h82.544v86.802h-82.544z" fill="#fff" fill-rule="evenodd"/></mask><g fill="#1d1d1b" fill-rule="evenodd"><path d="m209.046261 35.6000125h16.66189c.49975 3.5902293.740029 7.181331 1.227816 10.8802343.197283-.1966601.329013-.2826521.398804-.4040379 3.124127-5.4429213 7.895937-8.7177219 13.803714-10.5067298 4.219965-1.2777917 8.516949-1.6759721 12.912761-1.3068295 3.118395.2617148 6.164507.800972 9.089606 1.9115154 6.119642 2.3235294 10.474826 6.5643071 13.336366 12.3974327.382229.7790379.727318 1.5761466 1.145564 2.4869143.292996-.4654786.533275-.8353689.761839-1.2122383 2.846212-4.6951645 6.484796-8.603689 11.288136-11.3533151 3.310319-1.8949402 6.870638-3.0462363 10.62824-3.6749751 3.133973-.5244267 6.285145-.5884845 9.435194-.4349451 4.918869.2399053 9.709372 1.1554088 14.224203 3.2128614 7.385842 3.365653 12.429461 8.9796859 15.584746 16.3676471 1.60668 3.7620887 2.531281 7.7075025 3.040877 11.7612163.373629 2.9719591.481057 5.9513958.478366 8.9431705-.013884 14.9037886-.006407 29.8074523-.006407 44.7112413v1.384347c-.116401.11827-.142323.152293-.175598.176221-.031531.022682-.07004.047607-.106555.049601-.289756.01508-.579886.034896-.869891.034647-5.523305-.004113-11.046485-.010469-16.56979-.020813-.074153-.000249-.14843-.057702-.343096-.138584-.008101-.477692-.02505-1.007727-.02505-1.537887-.001496-14.903664-.001496-29.8074523-.000997-44.7111163.000125-3.2045114-.213111-6.3827268-1.093345-9.4871635-.591974-2.0871136-1.421112-4.0679212-2.554835-5.9194915-2.491651-4.069666-6.032154-6.6974078-10.739781-7.5934696-3.891077-.7405284-7.770314-.5968345-11.539257.7248255-3.981057 1.3960618-7.025424 4.0081007-9.394317 7.4518943-2.181456 3.1712363-3.498505 6.675349-3.922109 10.4951396-.168744 1.5219342-.252119 3.0610668-.253988 4.5924726-.01832 14.820663-.011092 29.6413259-.011092 44.4619889v1.404038c-.097208.107926-.122383.141949-.153664.168619-.029661.025424-.064681.058948-.099576.061815-.247508.020189-.495514.046984-.743395.047108-5.645563.002059-11.291127.002059-16.90491.002059-.365404-.46143-.216476-.93663-.217348-1.373694-.011341-6.061191-.005858-12.122258-.008101-18.183449-.003614-9.4652297.037513-18.9308329-.034272-28.395439-.038883-5.13335-1.41999-9.9071536-4.380857-14.167996-2.803839-4.0351446-6.542373-6.7131107-11.422234-7.5214357-8.029412-1.3302593-14.780782.8824775-19.773554 7.5537138-2.674227 3.5731556-4.176969 7.6132852-4.572159 12.0550848-.113659 1.2790379-.183574 2.5666749-.184571 3.850324-.012587 14.8621635-.008101 29.7244521-.008101 44.5866151v1.527667h-17.765329c-.026794-.02829-.057328-.056829-.08325-.089108-.024925-.031032-.06493-.065802-.06493-.098828-.013958-28.1044368-.025299-56.2088735-.034896-84.3133102 0-.2423978.021561-.4847956.039133-.8555583m174.781805 85.3615275h-17.706132c-.068544-.054337-.107801-.075149-.131605-.107303-.022682-.030782-.038759-.072781-.0415-.111042-.017697-.247881-.043869-.495887-.043869-.743893.002119-27.9814306.006107-55.9628613.013709-83.9444167 0-.1164008.052468-.2328016.078141-.3402293.97308-.2088733 15.297108-.2340478 16.621012-.0160767.377367 3.5053589.757976 7.0401296 1.154162 10.7205882.208749-.1836989.382478-.2748006.465479-.4183699 3.465977-5.9892821 8.871884-9.2512463 15.401794-10.8892074 3.771934-.9461615 7.600324-1.1764706 11.486914-.8328763 3.456381.3054586 6.81032.9695912 9.994268 2.3482053 5.531405 2.3948156 9.4914 6.4334497 12.147059 11.7978565.399302.8067049.763708 1.6307328 1.214107 2.5967098.295613-.4451645.527667-.7666999.731057-1.105309 2.447657-4.0734048 5.516575-7.5767697 9.467223-10.2595962 3.873131-2.6301097 8.153166-4.2088734 12.781531-4.8634098 6.708125-.9487787 13.332751-.5846211 19.806954 1.4596211 9.262089 2.9246012 15.532029 9.1175225 19.255857 17.9813061 1.682328 4.0044865 2.666127 8.2031406 3.022308 12.5251745.231556 2.8086989.371262 5.6328514.378365 8.4505234.036267 14.6964108.016949 29.3930704.016949 44.0896064v1.6584h-17.926719c-.301845-.39332-.156032-.8669-.15678-1.302717-.010967-6.642573-.004985-13.28502-.00835-19.9274679-.004611-9.0088484.022557-18.0178215-.038385-27.0262961-.025174-3.7190927-.699776-7.3460867-2.209746-10.7760468-1.132228-2.5719093-2.639082-4.8933201-4.776919-6.7561067-2.415005-2.1041874-5.241775-3.2893819-8.40491-3.7166002-3.587488-.4845464-7.122508-.3131854-10.555957.9025424-4.112039 1.4562562-7.207004 4.1984048-9.588485 7.7860169-2.273554 3.4247258-3.525174 7.2123629-3.812562 11.306331-.116027 1.6540379-.169866 3.3158026-.171361 4.9740778-.012961 14.3229063-.007478 28.6458126-.007478 42.9687186v1.451271c-.99975.226571-15.727193.3001-17.900299.105185-.258848-.391326-.135967-.860045-.137462-1.296112-.011964-3.611789-.00673-7.223579-.00673-10.835493 0-11.3752496.00648-22.7506234-.003988-34.1258727-.00324-3.5893569-.416251-7.122009-1.693794-10.5073529-1.310319-3.4722084-3.245264-6.5321536-6.073155-8.9775673-2.616276-2.262338-5.671361-3.5119641-9.091601-3.9794367-3.09322-.4226072-6.129237-.2299352-9.108923.6615154-4.318419 1.2917498-7.582004 4.0110918-10.119392 7.6628864-2.934945 4.224327-4.273055 8.9440428-4.282901 14.0585742-.01159 5.93669-.002866 11.8733799-.002866 17.8100698 0 9.3411018.000498 18.6820788-.001371 28.0230558-.000125.487787-.021062.975573-.033649 1.520563m-303.1487165.006568h-17.8993021c-.0124627-.526421-.0341476-1.011341-.0341476-1.496261-.0018694-14.860045-.0071037-29.7200898.0027418-44.5801346.0021186-3.2972333-.328016-6.551346-1.307328-9.704013-2.3584248-7.5916002-7.4602443-12.2143569-15.2923729-13.5914756-4.8989282-.8614157-9.771685-.5735294-14.3707627 1.5726571-5.6470589 2.6352193-9.4689681 7.030658-11.8862164 12.6894317-1.4192423 3.3224077-2.0027418 6.8354935-2.0051097 10.4381854-.0098454 14.3619143-.0041126 28.723829-.0041126 43.085743v1.391201c-.119018.110917-.1468096.142822-.1805833.166376-.0321535.022433-.0697906.049601-.1060568.051221-.3315055.014457-.6631356.033032-.9946411.033032-5.4393071-.005738-10.87861413-.013715-16.31792121-.025928-.0720339-.000249-.14394317-.061067-.28352443-.124128v-120.87400254h17.68020934c.0454886.04561316.0778914.07265703.1031905.10518445.0239282.0310319.0457377.06592722.0584496.10269192.0132104.0386341.0157029.08125623.0208126.12238286.0052343.04112662.0095962.08250249.011341.12387836.0034895.08287637.0054835.16587737.0068544.24887837.0012463.08300099.0013709.16600199.0013709.24900299.000997 15.48267699.001994 30.96535389.0031156 46.44790629 0 .0415005.0007478.0832502.0056082.1243769.0047358.041002.0094716.0833748.0244267.1211365.0130858.033026.0401296.0605683.1416999.2061317.2947408-.3500748.581007-.6724826.8480808-1.0102194 2.4963858-3.1559073 5.4171236-5.833001 8.8955633-7.8798604 3.8778664-2.2817797 8.0694167-3.593345 12.527667-4.1539133 2.9829262-.375 5.9694666-.3737537 8.9494018-.1841974 4.753988.302343 9.3425972 1.3469591 13.6319791 3.498006 5.7007726 2.8587986 9.784646 7.3199153 12.7182203 12.9015454 2.2013958 4.1885593 3.5171984 8.6671236 4.2695663 13.3220339.5974576 3.6960369.7954885 7.4173728.7903549 11.1598953-.0207886 14.6109172-.0085752 29.2219591-.0085752 43.8330011z"/><path d="m82.6072782 85.5929711h-16.0671735c-.4724576-4.0509721-.6435693-8.1006979-1.0879861-12.1905534-.5254237.0685444-.6942921.4881606-.9477816.7587239-3.0873629 3.295987-6.5471087 6.1152791-10.5269193 8.2744267-3.9029162 2.1173978-8.0550847 3.4584995-12.4608674 4.0346461-6.7453888.8821036-13.3460867.3463359-19.6697407-2.243021-8.6226321-3.5309073-14.53925726-9.8281406-18.20849953-18.3077019-1.57427717-3.6382103-2.49202393-7.4587487-3.03826022-11.3804835-.39606181-2.8442174-.53738792-5.6981556-.53738792-8.5644317.00099709-14.7377867 0-29.4755733 0-44.21323532v-1.60929711c3.02268204-.1607677 5.95363917-.05371386 8.88110676-.07315553 2.94242271-.01956631 5.88509471-.00436192 8.88808571-.00436192.0583251.36727318.1238784.63983051.1400798.91525424.0219342.37225822.0064806.74688434.0064806 1.12051346.0001246 14.40565798.0004985 28.81131608-.0002493 43.21697408-.0001246 2.7462612.1849452 5.4735793.8573031 8.1476819 1.3301346 5.2902543 3.9897807 9.7202144 8.4829262 12.9305833 2.8231555 2.0170738 6.0090977 3.0984546 9.4294616 3.5949651 2.3600449.3425972 4.7300599.3940678 7.0808824.1692423 4.8978066-.4684696 9.2133599-2.3555583 12.7946161-5.7696909 4.4604936-4.2521187 7.0938435-9.4505235 7.8283899-15.5725325.1921734-1.6018195.2736789-3.2259471.2761715-4.83998.0206879-14.0735294.0119641-28.1470588.0119641-42.22058825v-1.53900797c.3541874-.05944666.6304835-.14568794.9067796-.14606182 5.3574277-.0081007 10.7149801-.00772682 16.0725324-.00186939.2820289.00024925.5640578.06368395.8880858.10269192z" mask="url(#a)" transform="translate(102.193 35.62)"/></g></svg>