<svg xmlns="http://www.w3.org/2000/svg" width="500" height="285" viewBox="0 0 500 285">
  <g fill="none" fill-rule="evenodd">
    <path fill="#69C9D2" fill-opacity=".23" fill-rule="nonzero" d="M253.972789,206.660544 L253.972789,77.6931973 C253.972789,73.1251189 251.515476,68.9102008 247.540136,66.6598639 L133.248299,1.96054422 C129.373318,-0.233295408 124.631444,-0.233295408 120.756463,1.96054422 L6.46530612,66.6591837 C2.48996661,68.9095205 0.0326530612,73.1244386 0.0326530612,77.692517 L0.0326530612,206.660544 C0.0326530612,211.228623 2.48996661,215.443541 6.46530612,217.693878 L120.757143,282.392517 C124.632124,284.586357 129.373999,284.586357 133.24898,282.392517 L247.540816,217.693878 C251.51579,215.44326 253.972789,211.228442 253.972789,206.660544 Z"/>
    <polygon stroke="#69C9D2" stroke-width="5" points="236.226 203.409 236.226 79.614 126.706 17.716 17.186 79.614 17.186 203.409 126.706 265.306"/>
    <ellipse cx="18.373" cy="79.888" fill="#FFF" fill-rule="nonzero" stroke="#69C9D2" stroke-width="2" rx="6.819" ry="6.676"/>
    <ellipse cx="235.633" cy="79.888" fill="#FFF" fill-rule="nonzero" stroke="#69C9D2" stroke-width="2" rx="6.819" ry="6.676"/>
    <ellipse cx="127.003" cy="265.936" fill="#FFF" fill-rule="nonzero" stroke="#69C9D2" stroke-width="2" rx="6.819" ry="6.676"/>
    <ellipse cx="127.003" cy="141.799" fill="#FFF" fill-rule="nonzero" stroke="#69C9D2" stroke-width="2" rx="6.819" ry="6.676"/>
    <path fill="#69C9D2" fill-opacity=".39" fill-rule="nonzero" d="M235.083673,86.3265306 C232.413605,86.3265306 230.563265,85.0884354 229.521088,83.370068 L133.114286,138.314966 C133.736735,139.791156 133.846259,141.494558 133.436735,143.04966 C132.827891,145.746939 130.704762,148.060544 127.057823,148.060544 C127.038776,148.060544 127.021088,148.057823 127.002721,148.057823 L127.002721,258.390476 C130.134694,258.444218 132.119048,260.213605 132.959864,262.44898 L229.885034,205.721088 C227.303401,201.82449 229.113605,195.151701 235.310884,195.151701 C235.421769,195.151701 235.52517,195.162585 235.632653,195.167347 L235.632653,86.3 C235.451701,86.3122449 235.272789,86.3265306 235.083673,86.3265306 L235.083673,86.3265306 Z"/>
    <path fill="#69C9D2" fill-opacity=".16" fill-rule="nonzero" d="M126.429932,258.405442 L126.429932,148.031293 C121.864626,147.680952 119.944218,143.540136 120.642177,139.972109 C120.711215,139.534468 120.820289,139.10409 120.968027,138.686395 L24.0557823,83.4530612 C23.029932,85.244898 21.147619,86.5489796 18.4088435,86.5489796 C18.1993197,86.5489796 17.9993197,86.5346939 17.8,86.5197279 L17.8,195.387755 C17.8904762,195.385034 17.9761905,195.37483 18.0687075,195.37483 C24.1782313,195.37483 26.0163265,201.840136 23.6088435,205.758503 L120.707483,262.587075 C121.494558,260.357143 123.406803,258.563265 126.429932,258.405442 Z"/>
    <path fill="#69C9D2" fill-rule="nonzero" d="M229.338776,76.3006803 L132.272109,20.9802721 C132.204082,21.1013605 132.102041,21.1986395 132.02381,21.3129252 C131.153741,23.5517007 129.133333,25.3136054 125.953061,25.3136054 C123.039456,25.3136054 121.101361,23.8394558 120.126531,21.8748299 L24.0619048,76.337415 C25.2836735,78.4782313 25.2809524,81.3129252 24.0557823,83.4530612 L120.968027,138.686395 C121.796599,136.358503 123.844898,134.5 127.114286,134.5 C130.093197,134.5 132.055782,136.039456 133.007483,138.070068 L229.512245,83.3578231 C228.25034,81.2632653 228.193878,78.462585 229.338776,76.3006803 Z" opacity=".65"/>
    <path fill="#FFF" fill-rule="nonzero" stroke="#69C9D2" stroke-width="2.5" d="M120.182993,138.369388 L24.0469388,83.5884354 M229.958503,83.5884354 L133.821769,138.369388 M127.002721,148.048299 L127.002721,259.260544"/>
    <ellipse cx="18.373" cy="202.359" fill="#FFF" fill-rule="nonzero" stroke="#69C9D2" stroke-width="2" rx="6.819" ry="6.676"/>
    <ellipse cx="235.633" cy="202.359" fill="#FFF" fill-rule="nonzero" stroke="#69C9D2" stroke-width="2" rx="6.819" ry="6.676"/>
    <ellipse cx="125.979" cy="18.418" fill="#FFF" fill-rule="nonzero" stroke="#69C9D2" stroke-width="2" rx="6.819" ry="6.676"/>
    <path fill="#000" fill-rule="nonzero" d="M318.569388,172.02517 L307.453061,172.02517 L307.453061,99.0054422 L318.569388,99.0054422 L318.569388,172.02517 Z M359.553061,99.0054422 C364.331973,99.0054422 368.487755,99.5482993 372.019728,100.632653 C375.551701,101.718367 378.477551,103.251701 380.797959,105.234694 C383.117687,107.218367 384.840816,109.616327 385.966667,112.429932 C387.091837,115.244218 387.655102,118.363265 387.655102,121.786395 C387.655102,125.210884 387.048299,128.354422 385.836735,131.219048 C384.62449,134.084354 382.841497,136.55034 380.486395,138.617687 C378.131293,140.685714 375.196599,142.287755 371.682313,143.422449 C368.166667,144.558503 364.12449,145.12585 359.553061,145.12585 L348.021769,145.12585 L348.021769,172.02517 L336.957143,172.02517 L336.957143,99.0054422 L359.553061,99.0054422 L359.553061,99.0054422 Z M359.553061,136.582993 C362.357823,136.582993 364.82585,136.227211 366.955102,135.515646 C369.085034,134.803401 370.868027,133.795238 372.305442,132.489796 C373.742177,131.185714 374.82449,129.62585 375.551701,127.812245 C376.278912,125.998639 376.642857,123.990476 376.642857,121.786395 C376.642857,117.346259 375.231293,113.853741 372.408844,111.311565 C369.586395,108.769388 365.30068,107.498639 359.553061,107.498639 L348.021769,107.498639 L348.021769,136.584354 L359.553061,136.584354 L359.553061,136.582993 Z M410.926531,107.802721 L410.926531,132.261224 L440.846259,132.261224 L440.846259,141.058503 L410.926531,141.058503 L410.926531,172.02517 L399.810204,172.02517 L399.810204,99.0054422 L446.040816,99.0054422 L446.040816,107.802721 L410.926531,107.802721 L410.926531,107.802721 Z M495.7,110.904082 C495.353061,111.480952 494.989796,111.904762 494.608844,112.17551 C494.227211,112.446939 493.742857,112.582313 493.154422,112.582313 C492.530612,112.582313 491.820408,112.302721 491.02449,111.743537 C490.227211,111.184354 489.231973,110.557143 488.037415,109.861905 C486.842177,109.167347 485.414286,108.540136 483.751701,107.980272 C482.089116,107.420408 480.097959,107.141497 477.778231,107.141497 C475.596599,107.141497 473.682313,107.421088 472.038095,107.980272 C470.392517,108.539456 469.016327,109.302041 467.908844,110.268027 C466.8,111.234014 465.961224,112.370748 465.389116,113.67551 C464.817687,114.980272 464.531973,116.395918 464.531973,117.921088 C464.531973,119.887755 465.042857,121.514286 466.064626,122.802721 C467.085714,124.091837 468.428571,125.192517 470.090476,126.107483 C471.752381,127.022449 473.639456,127.820408 475.752381,128.497959 C477.863946,129.17619 480.028571,129.879592 482.245578,130.608163 C484.451911,131.334075 486.619009,132.174211 488.738095,133.12517 C490.84966,134.07483 492.738095,135.269388 494.4,136.710204 C496.061905,138.151701 497.404082,139.914286 498.42585,141.998639 C499.446939,144.082993 499.958503,146.634014 499.958503,149.65102 C499.958503,152.872109 499.395238,155.889116 498.270748,158.702721 C497.144898,161.517007 495.508163,163.97415 493.361224,166.07619 C491.214286,168.178231 488.573469,169.831293 485.439456,171.033333 C482.305442,172.236735 478.746939,172.838776 474.765306,172.838776 C472.37551,172.838776 470.055102,172.609524 467.804762,172.151701 C465.553061,171.693878 463.42381,171.05102 461.415646,170.219728 C459.442542,169.408217 457.554646,168.403314 455.779592,167.219728 C454.07144,166.08446 452.494855,164.76273 451.078912,163.278912 L454.246939,158.091837 C454.554965,157.688497 454.933389,157.344182 455.363946,157.07551 C455.797279,156.804762 456.289796,156.668027 456.844898,156.668027 C457.572109,156.668027 458.411565,157.041497 459.363946,157.787075 C460.315646,158.533333 461.493878,159.355782 462.895918,160.253061 C464.298639,161.151701 465.977551,161.97415 467.934694,162.719728 C469.890476,163.465986 472.272109,163.838776 475.076871,163.838776 C477.362585,163.838776 479.405442,163.542177 481.206803,162.948299 C483.006803,162.355782 484.521769,161.508163 485.751701,160.406122 C486.980952,159.304762 487.92449,157.97415 488.582993,156.414966 C489.240136,154.855782 489.569388,153.127211 489.569388,151.227891 C489.569388,149.091837 489.067347,147.346939 488.063265,145.990476 C487.057823,144.635374 485.72517,143.49932 484.063265,142.583673 C482.401361,141.668027 480.512925,140.889116 478.401361,140.244898 C476.289116,139.601361 474.12449,138.931293 471.908163,138.236735 C469.691837,137.542177 467.527211,136.736735 465.414966,135.821088 C463.302721,134.905442 461.415646,133.710204 459.753741,132.236054 C458.091837,130.761224 456.757823,128.913605 455.753741,126.693197 C454.748299,124.473469 454.246939,121.735374 454.246939,118.481633 C454.246939,115.871429 454.766667,113.345578 455.805442,110.904762 C456.844218,108.463946 458.359184,106.302721 460.35102,104.421769 C462.342177,102.540136 464.791837,101.032653 467.701361,99.8965986 C470.610204,98.7612245 473.934694,98.192517 477.67483,98.192517 C481.863946,98.192517 485.717007,98.8455782 489.231973,100.15034 C492.746259,101.455782 495.802721,103.328571 498.40068,105.769388 L495.7,110.904082 L495.7,110.904082 Z"/>
  </g>
</svg>
