<svg xmlns="http://www.w3.org/2000/svg" width="500" height="234" viewBox="0 0 500 234"><g fill="none"><g opacity=".9"><path fill="#BDC831" d="M97.849 120.691h.001l.274-.158 32.275-18.57-32.553-18.944v.001l-.001-.001h-.001l-32.557 18.722 32.557 18.947z"/><path fill="#A1A938" d="M97.844 158.359v-.001l.002.001v-37.666l-32.562-18.949h-.001v37.666l.016.009z"/><path fill="#999B38" d="M130.406 101.968l-32.283 18.565-.274.158-.004.002v37.666l.006.004h.001l32.555-18.721h.001v-37.674l-.002.002z"/><path fill="#CD2B66" d="M130.412 139.636h.001l.001.001.274-.158 32.275-18.57-32.554-18.944v.001l-.001-.001-32.557 18.722 32.557 18.947z"/><path fill="#A31D4D" d="M130.408 177.305h.001v-37.666l-32.561-18.949h-.001v37.666l.015.009z"/><path fill="#B72555" d="M162.97 120.914l-32.283 18.565-.275.157-.004.003v37.666l.007.004h.001l32.555-18.721h.001v-37.674l-.002.001z"/><path fill="#CD2B66" d="M162.974 158.589h.002l.274-.158 32.275-18.57-32.553-18.944v.001l-.001-.001h-.001l-32.557 18.722 32.557 18.948z"/><path fill="#A31D4D" d="M162.97 196.257h.002v-37.666l-32.561-18.949h-.001v37.666l.015.009z"/><path fill="#B72555" d="M195.532 139.866l-32.283 18.565-.275.158-.003.002v37.666l.006.004.002.001 32.554-18.722h.001v-37.673l-.002.001z"/><path fill="#C9D92D" d="M65.293 139.412l.001-.001.001.001.274-.157 32.274-18.571-32.552-18.944h-.002l-32.557 18.722 32.557 18.947z"/><path fill="#C2D02F" d="M65.289 177.08v-.001l.002.002v-37.667l-32.562-18.949v.001l-.001-.001v37.666l.015.009z"/><path fill="#B9BE33" d="M97.851 120.689l-32.283 18.565-.275.158-.003.002v37.666l.006.004h.001l32.555-18.721v-37.673l-.001.001z"/><path fill="#CD2B66" d="M97.858 158.358l.001.001.274-.158 32.275-18.57-32.553-18.944h-.002l-32.557 18.722 32.557 18.947z"/><path fill="#A31D4D" d="M97.853 196.027v-.001l.001.001v-37.666l-32.561-18.95v.001l-.001-.001v37.667l.015.008z"/><path fill="#B72555" d="M130.415 139.636l-32.283 18.565-.274.157-.004.003v37.666l.006.004h.001l32.556-18.721v-37.674l-.002.001z"/><path fill="#33B4D7" d="M130.419 177.31l.001-.001.001.001.274-.157 32.275-18.57-32.553-18.945h-.002l-32.557 18.723 32.557 18.946z"/><path fill="#209AC5" d="M130.415 214.979v-.001l.001.001v-37.667l-32.561-18.949v.001l-.001-.001v37.666l.015.009z"/><path fill="#158DAF" d="M162.977 158.587l-32.283 18.565-.275.158-.003.002v37.667l.006.003h.001l32.555-18.721v-37.673l-.001.001z"/><path fill="#95D6E2" d="M32.738 158.134l.001.001.275-.158 32.274-18.57-32.553-18.945v.001l-.001-.001h-.001l-32.556 18.723 32.556 18.946z"/><path fill="#74CCDD" d="M32.733 195.803v-.001l.002.001v-37.666l-32.562-18.95v.001l-.001-.001v37.666l.016.009z"/><path fill="#3CAEBB" d="M65.295 139.411l-32.282 18.565-.275.158-.004.003v37.666l.006.003h.001l32.556-18.721v-37.673l-.002.001z"/><path fill="#95D6E2" d="M65.302 177.079h.001l.001.001.274-.158 32.274-18.57-32.553-18.944v.001l-.001-.001h-.001l-32.556 18.722 32.556 18.947z"/><path fill="#74CCDD" d="M65.297 214.748h.002v-37.666l-32.561-18.949h-.001v37.666l.015.009z"/><path fill="#3CAEBB" d="M97.86 158.357l-32.284 18.565-.274.157-.004.003v37.666l.007.004h.001l32.555-18.721v-37.674l-.001.001z"/><path fill="#33B4D7" d="M97.864 196.032h.001l.001.001.274-.158 32.275-18.57-32.553-18.944h-.002l-32.557 18.722 32.557 18.947z"/><path fill="#209AC5" d="M97.86 233.701v-.001l.001.001v-37.666l-32.561-18.95v.001l-.001-.001v37.667l.015.008z"/><path fill="#158DAF" d="M130.422 177.31l-32.283 18.565-.275.157-.004.003v37.666l.007.004h.001l32.555-18.721v-37.674l-.001.001z"/></g><g opacity=".9"><path fill="#BDC831" d="M97.864 79.362v-.001l.001.001.275-.158 32.282-18.556-32.546-18.958h-.001l-32.565 18.709 32.549 18.96z"/><path fill="#A1A938" d="M97.844 117.03v-.001l.002.001.015-37.666-32.554-18.962-.001-.001-.015 37.667.015.008z"/><path fill="#999B38" d="M130.429 60.652l-32.29 18.552-.275.158-.004.002-.015 37.666.006.004h.001l32.563-18.708h.001v-.005l.015-37.668-.002.001z"/></g><g opacity=".9"><path fill="#EF549A" d="M130.42 98.321h.001l.275-.158 32.282-18.556-32.546-18.958h-.001l-32.564 18.709 32.548 18.96z"/><path fill="#D01B68" d="M130.4 135.989v-.001l.002.001.015-37.665v-.001l-32.554-18.962-.001-.001-.015 37.667.015.009z"/><path fill="#EC1069" d="M162.985 79.611l-32.29 18.552-.275.158-.004.002-.015 37.666.006.004h.001l32.563-18.708.001.001v-.005l.015-37.669-.002.001z"/></g><g opacity=".9"><path fill="#A25AA4" d="M162.974 117.286h.002l.274-.157 32.282-18.557-32.545-18.957h-.002l-32.564 18.709 32.549 18.96z"/><path fill="#772A85" d="M162.955 154.955v-.001l.002.001.015-37.666-32.554-18.963v.001l-.001-.001-.015 37.666.015.009z"/><path fill="#8E3E96" d="M195.54 98.577l-32.291 18.552-.275.157-.003.003-.015 37.666.006.003.001.001 32.563-18.709v.001-.005l.015-37.669-.001.001z"/></g><g opacity=".9"><path fill="#C9D92D" d="M65.301 98.069h.001l.001.001.274-.158 32.282-18.557-32.545-18.958v.001h-.001v-.001h-.001l-32.565 18.71 32.549 18.96z"/><path fill="#C2D02F" d="M65.281 135.738v-.001l.002.001.015-37.666-32.553-18.962-.001-.001-.016 37.667.016.009z"/><path fill="#B9BE33" d="M97.866 79.36l-32.29 18.552-.275.157-.004.003-.015 37.666.007.004v-.001l.001.001 32.562-18.708v-.004l.016-37.67-.002.001z"/></g><g opacity=".9"><path fill="#F6AF1A" d="M97.858 117.028h.001l.274-.157 32.283-18.557-32.546-18.958v.001l-.001-.001-32.565 18.709 32.549 18.961z"/><path fill="#F29020" d="M97.838 154.697v-.001l.001.001.015-37.666v-.001l-32.553-18.962v.001l-.001-.001-.015 37.666.015.009z"/><path fill="#FAA220" d="M130.423 98.319l-32.291 18.552-.274.157-.004.002-.016 37.667.007.003.001.001 32.563-18.709v.001-.005l.015-37.669-.001.001z"/></g><g opacity=".9"><path fill="#A25AA4" d="M130.412 135.994l.001.001.274-.158 32.283-18.557-32.546-18.958v.001l-.001-.001-32.565 18.71 32.549 18.96z"/><path fill="#772A85" d="M130.392 173.662l.001.001.016-37.666-32.554-18.963h-.001l-.015 37.666.015.009z"/><path fill="#8E3E96" d="M162.977 117.285l-32.291 18.551-.274.158-.004.003-.015 37.665.006.005.001-.001v.001l32.563-18.708v-.005l.015-37.669-.001.001z"/></g><g opacity=".9"><path fill="#F5DD07" d="M32.738 116.778v-.001l.001.001.275-.158 32.282-18.557-32.546-18.957h-.001l-32.565 18.709 32.55 18.96z"/><path fill="#F8BB1C" d="M32.718 154.446v-.001l.001.001.016-37.666-32.554-18.962-.001-.001-.015 37.666.015.01z"/><path fill="#E9AE21" d="M65.303 98.068l-32.29 18.552-.275.158-.004.002-.016 37.666.007.004v-.001l.001.001 32.563-18.708v-.005l.016-37.668-.002.001z"/></g><g opacity=".9"><path fill="#F6AF1A" d="M65.294 135.737h.001l.001.001.274-.158 32.282-18.557-32.545-18.957h-.002l-32.564 18.709 32.549 18.959z"/><path fill="#F29020" d="M65.274 173.406v-.001l.002.001.016-37.666-32.554-18.963v.001l-.001-.001-.015 37.666.015.009z"/><path fill="#FAA220" d="M97.86 117.028l-32.291 18.552-.275.157-.003.003-.016 37.666.007.003.001.001 32.562-18.708h.001v-.005l.015-37.668h-.001z"/></g><g opacity=".9"><path fill="#32848C" d="M97.849 154.703v-.001l.002.001.274-.157 32.282-18.557-32.545-18.958h-.002l-32.565 18.709 32.55 18.96z"/><path fill="#23636D" d="M97.829 192.371l.002.001.015-37.667-32.554-18.962-.001-.001-.015 37.667.015.009z"/><path fill="#1D4B57" d="M130.414 135.993l-32.29 18.552-.275.158-.004.002-.015 37.666.006.004h.002l32.562-18.708v-.004l.016-37.669-.002.001z"/></g><g opacity=".9"><path fill="#BDC831" d="M97.849 38.032l.001.001.274-.158 32.275-18.57-32.553-18.944h-.002l-32.557 18.722 32.557 18.947z"/><path fill="#A1A938" d="M97.844 75.701v-.001l.002.001v-37.666l-32.562-18.949h-.001v37.666l.016.009z"/><path fill="#999B38" d="M130.406 19.31l-32.283 18.565-.274.157-.004.003v37.666l.006.004v-.001l.001.001 32.555-18.721h.001v-37.674l-.002.001z"/></g><g opacity=".9"><path fill="#EF549A" d="M130.412 56.979h.002l.274-.157 32.275-18.57-32.554-18.945v.001l-.001-.001-32.557 18.722 32.557 18.947z"/><path fill="#D01B68" d="M130.408 94.648v-.001l.001.001v-37.667l-32.561-18.949v.001l-.001-.001v37.666l.015.009z"/><path fill="#EC1069" d="M162.97 38.256l-32.283 18.566-.275.157-.004.002v37.667l.007.003.001.001 32.555-18.722h.001v-37.673l-.002.001z"/></g><g opacity=".9"><path fill="#A25AA4" d="M162.974 75.93h.001l.001.001.274-.158 32.275-18.57-32.553-18.944h-.002l-32.557 18.722 32.557 18.947z"/><path fill="#772A85" d="M162.97 113.599v-.001l.002.001v-37.666l-32.561-18.949h-.001v37.666l.015.009z"/><path fill="#8E3E96" d="M195.532 57.208l-32.283 18.565-.275.157-.003.003v37.666l.006.004h.002l32.554-18.721h.001v-37.674l-.002.001z"/></g><g opacity=".9"><path fill="#C9D92D" d="M65.293 56.754l.001-.001.001.001.274-.158 32.274-18.57-32.552-18.944h-.002l-32.557 18.722 32.557 18.947z"/><path fill="#C2D02F" d="M65.289 94.422v-.001l.002.001v-37.666l-32.562-18.949-.001-.001v37.667l.015.009z"/><path fill="#B9BE33" d="M97.851 38.031l-32.283 18.565-.275.158-.003.002v37.666l.006.004h.001l32.555-18.721v-37.673l-.001.001z"/></g><g opacity=".9"><path fill="#C9D92D" d="M97.858 75.7l.001.001.274-.158 32.275-18.57-32.553-18.945-.001.001v-.001h-.001l-32.557 18.723 32.557 18.946z"/><path fill="#C2D02F" d="M97.853 113.368l.001.001v-37.666l-32.561-18.95v.001l-.001-.001v37.666l.015.009z"/><path fill="#B9BE33" d="M130.415 56.977l-32.283 18.565-.274.158-.004.003v37.665l.006.004h.001l32.556-18.721v-37.673l-.002.001z"/></g><g opacity=".9"><path fill="#843792" d="M130.419 94.652l.001-.001.001.001.273-.159 32.185-18.726-32.645-18.787v.001l-.001-.001h-.001l-32.465 18.88 32.648 18.789z"/><path fill="#662977" d="M130.598 132.32v-.001l.001.001-.183-37.666-32.652-18.791h-.001l.183 37.665.015.009z"/><path fill="#4E205B" d="M162.886 75.771l-32.193 18.722-.274.159-.003.002.182 37.666.006.004.001-.001.001.001 32.464-18.879v-.004l-.182-37.669-.002.001z"/></g><g opacity=".9"><path fill="#F5DD07" d="M32.738 75.476v-.001l.001.001.275-.157 32.274-18.57-32.553-18.945v.001l-.001-.001h-.001l-32.556 18.723 32.556 18.946z"/><path fill="#F8BB1C" d="M32.733 113.144l.002.001v-37.666l-32.562-18.95v.001l-.001-.001v37.666l.016.009z"/><path fill="#E9AE21" d="M65.295 56.753l-32.282 18.565-.275.158-.004.003v37.665l.006.004h.001l32.556-18.721v-37.673l-.002.001z"/></g><g opacity=".9"><path fill="#F6AF1A" d="M65.302 94.421h.001l.001.001.274-.158 32.274-18.57-32.553-18.944h-.002l-32.556 18.722 32.556 18.947z"/><path fill="#F29020" d="M65.297 132.09v-.001l.002.001v-37.666l-32.561-18.949h-.001v37.666l.015.009z"/><path fill="#FAA220" d="M97.86 75.699l-32.284 18.565-.274.157-.004.003v37.666l.007.004h.001l32.555-18.721v-37.674l-.001.001z"/></g><g opacity=".9"><path fill="#F6AF1A" d="M97.864 113.373h.001l.001.001.274-.158 32.275-18.57-32.553-18.944h-.002l-32.557 18.722 32.557 18.947z"/><path fill="#F29020" d="M97.86 151.042v-.001l.001.001v-37.666l-32.561-18.949h-.001v37.666l.015.009z"/><path fill="#FAA220" d="M130.422 94.651l-32.283 18.565-.275.157-.004.003v37.666l.007.004h.001l32.555-18.721v-37.674l-.001.001z"/></g><path fill="#46505E" d="M239.962 80.069v57.737h-11.367v-57.737h11.367zm22.548 5.534c0 7.847-13.528 7.847-13.528 0s13.528-7.847 13.528 0zm-12.495 11.317v40.887h11.461v-40.887h-11.461zm33.257-16.851v22.55c2.725-4.213 10.334-6.526 15.219-6.526 13.528 0 23.58 7.269 23.58 21.311 0 13.381-10.24 21.311-23.862 21.311-5.636 0-11.367-1.652-14.937-6.526l-.751 5.617h-10.71v-57.737h11.461zm.751 37.335c0 7.351 6.2 11.977 13.434 11.977 7.328 0 13.153-4.873 13.153-11.977 0-7.351-5.824-11.894-13.153-11.894-7.234 0-13.434 4.79-13.434 11.894zm47.914 37.417v-57.82h4.509v9.664c3.664-6.195 11.086-10.242 20.104-10.242 12.588.413 22.546 7.847 22.546 20.98 0 13.712-10.522 21.146-23.58 21.146-7.891 0-15.219-3.387-19.165-10.16v26.432h-4.415zm42.557-37.417c0-11.482-8.456-17.098-18.977-17.098-10.804 0-18.789 7.186-18.789 17.181 0 9.995 8.173 17.181 18.789 17.181 10.522 0 18.977-5.782 18.977-17.263zm15.033-22.054c0-12.307 13.34-16.107 25.177-16.107 12.119 0 25.271 4.378 25.365 16.85 0 11.811-13.528 16.602-25.177 16.602-9.583.083-20.762 2.065-20.762 11.977v8.839h45.281v4.295h-50.26v-13.051c0-12.803 13.434-16.107 25.553-16.107 8.549 0 20.668-2.808 20.668-12.555 0-10.16-11.649-12.968-20.668-12.968-8.737 0-20.198 2.643-20.198 12.225h-4.979zm62.945 59.472v-57.82h4.509v9.664c3.664-6.195 11.086-10.242 20.104-10.242 12.588.413 22.546 7.847 22.546 20.98 0 13.712-10.522 21.146-23.58 21.146-7.891 0-15.219-3.387-19.165-10.16v26.432h-4.415zm42.556-37.417c0-11.482-8.455-17.098-18.976-17.098-10.804 0-18.789 7.186-18.789 17.181 0 9.995 8.173 17.181 18.789 17.181 10.522 0 18.976-5.782 18.976-17.263z"/></g></svg>