<svg height="170" viewBox="0 0 500 170" width="500" xmlns="http://www.w3.org/2000/svg"><g fill="none" fill-rule="evenodd"><g fill-rule="nonzero"><g fill="#e16055" transform="translate(199.606 40.551)"><path d="m18.008 70.274v-63.049h-18.008v79.964h50.309v-16.915z"/><path d="m86.1679294 88.570918c18.2389376 0 31.9503266-13.3373735 31.9503266-30.9424547 0-17.6054749-13.711389-30.9471791-31.9503266-30.9471791-18.2389381 0-31.9503267 13.3373735-31.9503267 30.9471791s13.7066642 30.9424547 31.9503267 30.9424547zm0-16.3405168c-8.3680927 0-14.5228042-6.2594357-14.5228042-14.6019379 0-8.3428959 6.1547115-14.5881584 14.5228042-14.5881584 8.3680926 0 14.5228046 6.2547113 14.5228046 14.6019379s-6.1779403 14.6019379-14.5228046 14.6019379zm74.5687406-28.7306484v-15.411385h-12.909028v-15.5310697h-16.016501v10.6606075c0 3.2468436-1.627556 4.8704622-4.882667 4.8704622h-4.992903v15.411385h8.944076v24.4578227c0 12.6287136 7.201559 19.2377549 21.378695 19.2377549h8.478328v-15.4161094h-5.924397c-4.412195 0-6.970851-2.4326721-6.970851-6.6043168v-21.6751514zm43.542429 0v-15.411385h-12.909816v-15.5310697h-16.021226v10.6606075c0 3.2468436-1.627556 4.8704622-4.882273 4.8704622h-4.993297v15.411385h8.94447v24.4578227c0 12.6287136 7.201166 19.2377549 21.377908 19.2377549h8.484234v-15.4161094h-5.929122c-4.412589 0-6.971639-2.4326721-6.971639-6.6043168v-21.6751514z"/><path d="m214.204 87.189h16.961v-59.103h-16.961z"/><path d="m233.050692 10.3368303c0-1.36259558-.3937-3.50314226-1.188974-5.06022561-.594487-1.55708335-1.590548-1.94645261-2.381885-2.33542817-1.787398-.9732263-3.972432-2.72479743-6.555104-2.91928521-5.755894-.38936926-9.925176 4.47636856-10.322813 9.73108194 0 1.36220185 0 2.72479745.397637 3.89251155.3937 1.167714 1.389761 2.1409403 2.181098 2.9192852 1.988184 1.5570833 4.370069 2.9192852 7.346441 3.113773 5.75983.1948814 10.5236-4.2814871 10.5236-9.3417127zm67.342378 47.53179c0-17.9637418-13.830679-31.1770999-31.948752-31.1770999-18.240119 0-31.952688 13.3373735-31.952688 30.9471791s13.712569 30.9286752 32.070798 30.9286752c14.637765 0 26.488134-8.2275417 30.889699-20.1668868h-18.114135c-2.20472 3.1318832-6.850379 5.4499886-12.448793 5.4499886-7.200772 0-12.448792-4.1712511-14.291308-10.7802923h45.306991c.342519-1.7125949.503936-3.4555046.488188-5.2015639zm-31.948752-16.5566582c3.141726-.0484251 6.208649.9661397 8.70077 2.8787341 2.488183 1.9122007 4.255896 4.6098329 5.015737 7.6531336h-27.425139c1.972437-6.5074667 7.086599-10.5456472 13.708632-10.5456472z"/></g><path d="m84.6454916 0c46.7484144 0 84.6454914 37.8970775 84.6454914 84.6454916 0 46.7484144-37.897077 84.6454914-84.6454914 84.6454914-46.7484141 0-84.6454916-37.897077-84.6454916-84.6454914 0-46.7484141 37.8970775-84.6454916 84.6454916-84.6454916zm-29.1164743 36.3034277c-.93425-.6549592-2.0606256-.4886604-3.019285.0081496-.7118095.3658654-1.3417295.9099194-1.9133818 1.4673985-.7996046.7764945-1.5043276 1.6449572-2.1003893 2.5866875-1.4531466 2.3106251-2.3511762 4.9306983-3.0511747 7.5558897-.7370063 2.76338-1.2275565 5.5889646-1.6692878 8.412187-.3988181 2.5433018-.7303135 5.1216428-1.2240132 7.6169132-1.2393675 6.2818765-3.1527493 12.5629657-3.0177102 19.0251569.0311023 1.4405481.1803146 2.8763719.4452746 4.2925107.1901571 1.0141711.4751959 2.0047202.9326752 2.9318836.5767705 1.1673204 1.5547212 2.092909 2.911805 2.1027515 1.3350365.0094488 2.5767662-.8366125 3.5669216-1.6464533 1.2740131-1.0425175 2.3496014-2.3452706 3.2775522-3.6995985.7814944-1.1267693 1.4460599-2.3307038 1.982673-3.5929059.2570861-.131102.4149597-.5377941.469684-.7751952.204724-.8850375.4023614-1.7744057.5598414-2.6696794.0200787-.0377952.0381889-.0759841.0547243-.1145667.4114164 1.7133822.7322819 3.4511739 1.0692891 5.1783356.5236209 2.6858211 1.0480293 5.3771541 1.7999962 8.009432.6499986 2.2724362 1.470863 4.6102265 2.8787341 6.5334508.9413366 1.2842497 1.9330668 2.5366087 3.1909382 3.5271577.2674891.210556.5457883.410046.8356423.590102-2.1158407-1.223874-4.4664041-2.341917-7.051771-2.537342-9.7712393-.662203-16.846815 7.614551-17.5206719 16.553509 0 2.317712 0 4.635029.6738569 6.621639.6740143 1.986217 2.3586564 3.641725 3.7062914 4.965738 3.3692843 2.648813 7.4125829 4.966131 12.466903 5.297233 9.7712393.331102 17.8574428-7.283449 17.8574428-15.891305 0-.902188-.1020682-2.004993-.3074217-3.171543.2553709.714856.6642412 1.41257.9369479 1.902254.7562977 1.358265 1.7251933 2.589365 2.7362148 3.76574.9685019 1.12362 1.9960588 2.194484 3.011411 3.274797 1.0055097 1.070076 2.100783 2.197633 3.3425126 3.21141 5.1838474 4.246448 11.843676 6.528333 18.5172837 6.822427 4.283456.188188 8.598801-.242913 12.744462-1.343304 3.77322-1.001179 7.472819-2.512594 10.643678-4.811801 2.60905-1.893697 4.79999-4.308259 6.602742-6.970852 1.867713-2.757081 3.237395-5.77046 4.528731-8.82321.699605-1.645272 1.259052-3.346056 1.673225-5.084635.405904-1.718894.664172-3.469284.906297-5.215343.054331-.387795.281102-.516141.020866-.929919-.470078-.741731-5.913767.957478-6.622427 1.119289-3.316922.757085-6.642899 1.395666-9.988168 2.026373-2.074011.38937-4.160621.71181-6.248412 1.016927l-1.618335.236077c2.115423-.656023 4.049714-1.624842 5.70061-2.859693 1.766532-1.321257 3.122434-2.9948759 4.124007-4.750384 1.090155-1.9090511 1.735036-3.9582594 2.2122-6.0196724.489369-2.1810978.822833-4.3692822 1.058266-6.5669154 1.246847-12.2106043 3.598024-25.7967962 1.038974-38.0577941-.394488-1.8917283-1.268895-3.8606218-3.19645-5.1468396-.19685-.1334643-.406692-.2578735-.615353-.3657473.009055-.1212595-.01811-.2433065-.07874-.3562984-.061024-.1133856-.153543-.2141728-.27126-.295275-.930313-.6307073-2.016924-1.0964544-3.183851-1.3649578-1.400391-.2999993-2.8559-.363385-4.271251-.1870074-2.362987.2909442-4.531487 1.2555091-6.382664 2.3921209-4.524006 2.7783407-8.014156 6.5295139-11.1834409 10.2739942-3.0669226 3.6220397-5.845657 7.3968349-8.4743916 11.2365906-3.4940872 5.1023515-6.968883 10.2275376-9.7665149 15.6145342-.9260207 1.7831355-1.7790719 3.5959277-2.5149343 5.4402354.3924991-1.4686091.754461-2.9454712 1.0924963-4.4272454.6334632-2.7787344 1.1826747-5.5755789 1.6472406-8.3893525.3685032-2.2492079.6228334-4.5074709.9086595-6.7673086.5311013-4.1925109 1.0476356-8.5007696.5192903-12.7192647-.2397633-1.90787-.7102347-3.8381809-1.7480278-5.4822719-1.001179-1.5822802-2.5484199-2.5751915-4.3342429-3.0645605-4.1988101-1.1515724-8.0944712 1.337005-10.8818669 4.273613-2.5381837 2.6720417-4.5551086 5.8834523-6.1306958 9.2306893-.1098423-2.5362151-.1787398-5.072824-.3791331-7.6058895-.1484249-1.8759803-.3547236-3.7480237-.662597-5.6055001-.2673223-1.6149572-.6133846-3.2373947-1.1952731-4.7695175-.4311015-1.1342102-1.0114152-2.31657-2.0232241-3.0340488zm21.0425174 55.3291246c-.5267976 2.4636598-.7417601 5.0058748.5023193 7.4062162 2.5169238 4.8566825 10.0405301 6.3334515 15.8428801 7.0173085 3.4661345.409448 6.9984105.649211 10.4905289.811415.949863.04425 1.900767.05726 2.848253.03327-.959534.150876-1.918362.306591-2.876205.469091-4.2602277.722833-8.504707 1.539367-12.741706 2.389365-3.0220409.602361-6.0397511 1.230313-9.0582487 1.85354-1.1177142.228346-2.2358221.49055-3.3492055.761809-1.6598391.401968-3.3401505.768896-4.9842416 1.235824-.102004.217915-.145538.457909-.143568.71041-.3365447-1.482975-.8306526-2.995662-1.4824128-4.27615-1.0106278-2.64842-2.6952699-3.310623-4.0429049-3.972826-1.1376825-.621051-2.3701647-1.428433-3.6975985-2.211329.554602.303258 1.1473839.529759 1.7794923.629048.9866121.152362 1.9436967-.020472 2.8429074-.439762.97362-.457086 1.8145631-1.189762 2.5326719-1.978343.9192894-1.00984 1.6814925-2.1496015 2.3645619-3.3291266 1.2168358-2.1008435 2.1767182-4.3524113 3.005445-6.6403743z" fill="#ebd6bb" fill-opacity=".5"/><path d="m52.5097323 36.3115773c-.7118095.3658654-1.3417295.9099194-1.9133818 1.4673985-.7996046.7764945-1.5043276 1.6449572-2.1003893 2.5866875-1.4531466 2.3106251-2.3511762 4.9306983-3.0511747 7.5558897-.7370063 2.76338-1.2275565 5.5889646-1.6692878 8.412187-.3988181 2.5433018-.7303135 5.1216428-1.2240132 7.6169132-1.2393675 6.2818765-3.1527493 12.5629657-3.0177102 19.0251569.0311023 1.4405481.1803146 2.8763719.4452746 4.2925107.1901571 1.0141711.4751959 2.0047202.9326752 2.9318836.5767705 1.1673204 1.5547212 2.092909 2.911805 2.1027515 1.3350365.0094488 2.5767662-.8366125 3.5669216-1.6464533 1.2740131-1.0425175 2.3496014-2.3452706 3.2775522-3.6995985.7814944-1.1267693 1.4460599-2.3307038 1.982673-3.5929059.2570861-.131102.4149597-.5377941.469684-.7751952.204724-.8850375.4023614-1.7744057.5598414-2.6696794.0200787-.0377952.0381889-.0759841.0547243-.1145667.4114164 1.7133822.7322819 3.4511739 1.0692891 5.1783356.5236209 2.6858211 1.0480293 5.3771541 1.7999962 8.009432.6499986 2.2724362 1.470863 4.6102265 2.8787341 6.5334508.9413366 1.2842497 1.9330668 2.5366087 3.1909382 3.5271577.8767698.690156 1.8696811 1.261415 2.9850331 1.436611.9866121.152362 1.9436967-.020472 2.8429074-.439762.97362-.457086 1.8145631-1.189762 2.5326719-1.978343.9192894-1.00984 1.6814925-2.1496015 2.3645619-3.3291266 1.5818865-2.7310966 2.7295219-5.7169171 3.7192836-8.7062809 1.0645647-3.2173161 1.9370038-6.4960494 2.6905455-9.799192.6334632-2.7787344 1.1826747-5.5755789 1.6472406-8.3893525.3685032-2.2492079.6228334-4.5074709.9086595-6.7673086.5311013-4.1925109 1.0476356-8.5007696.5192903-12.7192647-.2397633-1.90787-.7102347-3.8381809-1.7480278-5.4822719-1.001179-1.5822802-2.5484199-2.5751915-4.3342429-3.0645605-4.1988101-1.1515724-8.0944712 1.337005-10.8818669 4.273613-2.5381837 2.6720417-4.5551086 5.8834523-6.1306958 9.2306893-.1098423-2.5362151-.1787398-5.072824-.3791331-7.6058895-.1484249-1.8759803-.3547236-3.7480237-.662597-5.6055001-.2673223-1.6149572-.6133846-3.2373947-1.1952731-4.7695175-.4311015-1.1342102-1.0114152-2.31657-2.0232241-3.0340488-.93425-.6549592-2.0606256-.4886604-3.019285.0081496z" fill="#7bbd83"/></g><path d="m127.616268 85.4805292c1.246847-12.2106043 3.598024-25.7967962 1.038974-38.0577941-.394488-1.8917283-1.268895-3.8606218-3.19645-5.1468396-.19685-.1334643-.406692-.2578735-.615353-.3657473.009055-.1212595-.01811-.2433065-.07874-.3562984-.061024-.1133856-.153543-.2141728-.27126-.295275-.930313-.6307073-2.016924-1.0964544-3.183851-1.3649578-1.400391-.2999993-2.8559-.363385-4.271251-.1870074-2.362987.2909442-4.531487 1.2555091-6.382664 2.3921209-4.524006 2.7783407-8.014156 6.5295139-11.1834409 10.2739942-3.0669226 3.6220397-5.845657 7.3968349-8.4743916 11.2365906-3.4940872 5.1023515-6.968883 10.2275376-9.7665149 15.6145342-1.820075 3.504717-3.3582607 7.1240007-4.2964477 10.8657252-.7350378 2.9303088-1.3669263 6.0436881.1389761 8.9491938 2.5169238 4.8566825 10.0405301 6.3334515 15.8428801 7.0173085 3.4661345.409448 6.9984105.649211 10.4905289.811415 3.355111.156299 6.723214-.077165 9.917302-.857478 2.583853-.638188 4.939754-1.728343 6.89723-3.192513 1.766532-1.321257 3.122434-2.9948759 4.124007-4.750384 1.090155-1.9090511 1.735036-3.9582594 2.2122-6.0196724.489369-2.1810978.822833-4.3692822 1.058266-6.5669154zm-24.118454 19.0511408c.684251.031496.274015.017717 0 0z" fill="#74b3c2"/><path d="m73.6415777 118.652507c0-2.317712-.6736206-5.959436-2.0216493-8.607856-1.0106278-2.64842-2.6952699-3.310623-4.0429049-3.972826-3.0326708-1.655509-6.7389622-4.63503-11.119268-4.966132-9.7712393-.662203-16.846815 7.614551-17.5206719 16.553509 0 2.317712 0 4.635029.6738569 6.621639.6740143 1.986217 2.3586564 3.641725 3.7062914 4.965738 3.3692843 2.648813 7.4125829 4.966131 12.466903 5.297233 9.7712393.331102 17.8574428-7.283449 17.8574428-15.891305z" fill="#e16055" fill-rule="nonzero"/><path d="m78.2301508 112.374567c-1.6598391.401968-3.3401505.768896-4.9842416 1.235824-.5255894 1.122833.5011801 2.831884 1.0251947 3.772827.7562977 1.358265 1.7251933 2.589365 2.7362148 3.76574.9685019 1.12362 1.9960588 2.194484 3.011411 3.274797 1.0055097 1.070076 2.100783 2.197633 3.3425126 3.21141 5.1838474 4.246448 11.843676 6.528333 18.5172837 6.822427 4.283456.188188 8.598801-.242913 12.744462-1.343304 3.77322-1.001179 7.472819-2.512594 10.643678-4.811801 2.60905-1.893697 4.79999-4.308259 6.602742-6.970852 1.867713-2.757081 3.237395-5.77046 4.528731-8.82321.699605-1.645272 1.259052-3.346056 1.673225-5.084635.405904-1.718894.664172-3.469284.906297-5.215343.054331-.387795.281102-.516141.020866-.929919-.470078-.741731-5.913767.957478-6.622427 1.119289-3.316922.757085-6.642899 1.395666-9.988168 2.026373-2.074011.38937-4.160621.71181-6.248412 1.016927-4.256684.62244-8.518092 1.209053-12.760209 1.928736-4.2602277.722833-8.504707 1.539367-12.741706 2.389365-3.0220409.602361-6.0397511 1.230313-9.0582487 1.85354-1.1177142.228346-2.2358221.49055-3.3492055.761809z" fill="#eda6c6" fill-rule="nonzero"/></g></svg>