<svg width="500" height="200" viewBox="0 0 500 200" xmlns="http://www.w3.org/2000/svg"><title>marvelfusion</title><desc>Created with Sketch.</desc><path d="M9.955 146.143h9.714l12.048 36.361 12.23-36.361h9.57l8.782 52.136h-9.568l-5.602-32.927-11.091 32.927h-8.745l-10.95-32.927-5.709 32.927h-9.677l9-52.136zm91.359 13.57h9.641v38.566h-9.641v-4.077c-1.886 1.802-3.786 3.084-5.686 3.884-1.911.784-3.966 1.184-6.193 1.184-4.982 0-9.289-1.936-12.93-5.793-3.643-3.859-5.457-8.661-5.457-14.409 0-5.95 1.755-10.825 5.275-14.636 3.52-3.798 7.802-5.709 12.834-5.709 2.311 0 4.486.448 6.52 1.318 2.032.87 3.907 2.189 5.636 3.932v-4.259zm-10.173 7.95c-3 0-5.491 1.05-7.477 3.168-1.982 2.116-2.975 4.825-2.975 8.13 0 3.339 1.005 6.07 3.025 8.225 2.02 2.152 4.511 3.23 7.464 3.23 3.048 0 5.575-1.064 7.584-3.182 2.007-2.105 3.011-4.875 3.011-8.311 0-3.35-1.005-6.07-3.011-8.141-2.009-2.08-4.548-3.118-7.62-3.118zm30.973-7.95h8.286v4.864c.907-1.911 2.093-3.364 3.58-4.355 1.489-1.005 3.12-1.5 4.9-1.5 1.245 0 2.552.339 3.932.991l-3.014 8.336c-1.136-.57-2.068-.848-2.807-.848-1.486 0-2.745.918-3.773 2.759-1.03 1.85-1.536 5.455-1.536 10.85l.036 1.875v15.593h-9.605v-38.566zm24.984 0h9.845l9.75 22.755 9.702-22.755h9.823l-16.416 38.566h-6.266l-16.439-38.566zm87.064 22.089h-31.086c.445 2.734 1.657 4.911 3.602 6.534 1.948 1.62 4.427 2.43 7.452 2.43 3.618 0 6.725-1.27 9.327-3.798l8.152 3.834c-2.032 2.88-4.464 5.009-7.307 6.4-2.83 1.38-6.193 2.068-10.1 2.068-6.048 0-10.97-1.911-14.77-5.723-3.809-3.82-5.709-8.6-5.709-14.332 0-5.893 1.9-10.768 5.684-14.661 3.8-3.884 8.552-5.832 14.261-5.832 6.075 0 11.009 1.948 14.82 5.832 3.798 3.893 5.709 9.023 5.709 15.398l-.036 1.85zm-9.714-7.62c-.641-2.152-1.9-3.895-3.773-5.25-1.877-1.341-4.066-2.02-6.545-2.02-2.686 0-5.057.764-7.089 2.275-1.27.943-2.455 2.614-3.543 4.995h20.95zm20.159 24.098h9.677v-53.443h-9.677v53.443zm34.048-52.136h26.13v5.141h-20.95v16.307h20.95v5.141h-20.95v25.548h-5.18v-52.136zm37.345 13.57h4.995v18.014c0 4.391.243 7.414.714 9.073.714 2.357 2.057 4.22 4.052 5.6 1.998 1.366 4.38 2.057 7.15 2.057 2.757 0 5.105-.68 7.027-2.009 1.923-1.332 3.255-3.084 3.993-5.261.495-1.489.736-4.645.736-9.459v-18.014h5.068v18.932c0 5.311-.616 9.314-1.85 12.014-1.245 2.695-3.109 4.8-5.6 6.325-2.493 1.525-5.625 2.286-9.375 2.286-3.761 0-6.895-.761-9.411-2.286s-4.391-3.652-5.639-6.375c-1.232-2.734-1.861-6.834-1.861-12.314v-18.582zm67.757 4.223l-3.195 3.302c-2.648-2.577-5.236-3.87-7.766-3.87-1.609 0-2.975.532-4.123 1.595-1.15 1.066-1.718 2.311-1.718 3.727 0 1.245.47 2.443 1.414 3.58.945 1.15 2.927 2.516 5.952 4.077 3.689 1.911 6.193 3.75 7.511 5.527 1.307 1.791 1.959 3.811 1.959 6.061 0 3.157-1.111 5.841-3.336 8.043-2.216 2.191-4.998 3.291-8.323 3.291-2.227 0-4.343-.484-6.364-1.452-2.02-.968-3.689-2.309-5.02-4.005l3.12-3.543c2.53 2.855 5.214 4.282 8.045 4.282 1.984 0 3.677-.63 5.068-1.911 1.391-1.27 2.093-2.77 2.093-4.5 0-1.414-.461-2.684-1.38-3.786-.932-1.089-3-2.468-6.243-4.111-3.47-1.802-5.83-3.568-7.086-5.323-1.248-1.743-1.875-3.739-1.875-5.989 0-2.927.991-5.359 2.986-7.293 1.998-1.936 4.525-2.916 7.573-2.916 3.545 0 7.114 1.743 10.707 5.214zm14.13-20.093c1.127 0 2.093.4 2.905 1.211.798.798 1.198 1.766 1.198 2.902 0 1.114-.4 2.068-1.198 2.868-.811.809-1.777 1.209-2.905 1.209-1.111 0-2.068-.4-2.877-1.209-.8-.8-1.198-1.755-1.198-2.868 0-1.136.398-2.105 1.198-2.902.809-.811 1.766-1.211 2.877-1.211zm-2.48 54.434h4.995v-38.564h-4.995v38.564zm37.127-39.555c5.927 0 10.839 2.152 14.745 6.459 3.545 3.92 5.311 8.566 5.311 13.923 0 5.384-1.875 10.102-5.614 14.13-3.75 4.027-8.564 6.036-14.443 6.036-5.902 0-10.73-2.009-14.48-6.036-3.75-4.027-5.611-8.745-5.611-14.13 0-5.334 1.766-9.966 5.309-13.886 3.895-4.33 8.83-6.495 14.782-6.495zm0 4.861c-4.114 0-7.645 1.525-10.595 4.575-2.952 3.048-4.427 6.725-4.427 11.057 0 2.78.664 5.382 2.018 7.789 1.343 2.418 3.159 4.27 5.457 5.589 2.286 1.307 4.802 1.959 7.548 1.959 2.734 0 5.25-.652 7.548-1.959 2.286-1.318 4.114-3.17 5.457-5.589 1.343-2.407 2.02-5.009 2.02-7.789 0-4.332-1.489-8.009-4.452-11.057-2.964-3.05-6.484-4.575-10.573-4.575zm32.882-3.87h4.959v6.92c1.984-2.648 4.186-4.634 6.593-5.939 2.407-1.307 5.032-1.973 7.875-1.973 2.88 0 5.432.739 7.668 2.202 2.225 1.464 3.882 3.434 4.936 5.914 1.064 2.48 1.595 6.352 1.595 11.589v19.852h-4.923v-18.4c0-4.439-.193-7.402-.568-8.891-.593-2.552-1.693-4.464-3.327-5.759-1.632-1.282-3.761-1.934-6.386-1.934-3 0-5.686.991-8.057 2.975-2.37 1.995-3.943 4.452-4.693 7.38-.47 1.911-.714 5.407-.714 10.489v14.141h-4.959v-38.566zm-243.395-145.889l-64.936 86.845c-1.07 1.245-1.959 2.627-2.67 4.143-.714 1.514-1.07 3.161-1.07 4.941 0 3.566 1.245 6.593 3.741 9.086 2.495 2.495 5.523 3.741 9.086 3.741 4.275 0 7.659-1.693 10.155-5.077l30.855-41.186 30.684 41.452c2.484 3.357 5.968 4.811 9.886 4.811 3.564 0 6.593-1.245 9.086-3.741 2.495-2.493 3.741-5.52 3.741-9.086 0-3.205-.891-5.789-2.67-7.748l-.268-.268-34.361-46.907 15.309-20.432c1.248-1.425 2.807-2.984 4.677-4.677 1.868-1.691 3.784-2.539 5.743-2.539 1.959 0 3.875.848 5.745 2.539 1.87 1.693 3.341 3.252 4.409 4.677l62.798 83.37c2.673 3.209 5.968 4.811 9.886 4.811 3.564 0 6.591-1.245 9.086-3.741 2.493-2.493 3.741-5.52 3.741-9.086 0-3.205-.891-5.789-2.673-7.748l-.266-.268-64.668-87.114c-3.207-4.098-7.259-7.436-12.159-10.02-4.898-2.584-10.198-3.875-15.9-3.875-5.345 0-10.375 1.159-15.098 3.475-4.72 2.316-8.684 5.523-11.889 9.62" fill="#000" fill-rule="nonzero"/></svg>