<svg height="104" viewBox="0 0 500 104" width="500" xmlns="http://www.w3.org/2000/svg"><g fill="none"><path d="m170.159695 73.6603538-13.92736-26.9566274v41.9095189h-15.607335v-73.8173997h15.607335l20.843343 41.3837691 20.94757-41.3837691h15.501342v73.8173997h-15.501342v-41.9077487l-14.036886 26.9566274zm87.775579-37.5937678-9.111786 24.1154541h18.225339zm7.437112-21.2725106 28.70089 73.8209401h-16.131996l-5.864895-14.5333537h-28.386447l-5.758904 14.5333537h-16.131995l28.70089-73.8209401h14.874223zm56.56091 43.2831952c-14.347796-2.4234057-23.146905-9.9007366-23.146905-22.1151265 0-6.8453689 2.618004-12.2161601 7.960005-16.2185855 5.342001-4.1068673 11.731558-6.107195 19.166902-6.107195 11.418881 0 20.845111 3.8979836 28.282222 11.7948522l-10.475551 11.0566781c-5.550452-5.6876572-11.729791-8.5288305-18.644008-8.5288305-6.598007 0-10.788228 2.9473854-10.788228 7.2649067 0 3.8962134 3.457109 6.5302731 10.475551 7.7941969l7.225128 1.1577118c16.446438 2.6322895 24.720887 10.3202743 24.720887 23.0621842 0 6.7391569-2.723997 12.2143899-8.064231 16.3212572-5.343768 4.1068674-12.360444 6.2134071-21.159554 6.2134071-12.883338 0-23.881783-5.7920991-30.47979-14.1102757l10.684002-10.8477943c5.446227 7.0560229 12.358677 10.6371404 20.739118 10.6371404 7.960006 0 12.777346-3.3704635 12.777346-8.0030807 0-3.8979836-3.455342-6.5285029-10.263567-7.7941969l-9.009327-1.5790197zm67.456896 0c-14.349562-2.4234057-23.148671-9.9007366-23.148671-22.1151265 0-6.8453689 2.618004-12.2161601 7.961772-16.2185855 5.340234-4.1068673 11.729791-6.107195 19.166902-6.107195 11.417114 0 20.84511 3.8979836 28.282222 11.7948522l-10.475552 11.0566781c-5.552218-5.6876572-11.72979-8.5288305-18.644007-8.5288305-6.599774 0-10.788228 2.9473854-10.788228 7.2649067 0 3.8962134 3.455342 6.5302731 10.473784 7.7941969l7.226894 1.1577118c16.446439 2.6322895 24.719121 10.3202743 24.719121 23.0621842 0 6.7391569-2.723997 12.2143899-8.064231 16.3212572-5.343768 4.1068674-12.360444 6.2134071-21.159554 6.2134071-12.881571 0-23.880017-5.7920991-30.47979-14.1102757l10.684002-10.8477943c5.446227 7.0560229 12.360444 10.6371404 20.739118 10.6371404 7.960006 0 12.779112-3.3704635 12.779112-8.0030807 0-3.8979836-3.457108-6.5285029-10.265333-7.7941969l-9.009327-1.5790197zm74.473573-22.0106846-9.113553 24.1154541h18.225339zm7.437111-21.2725106 28.699124 73.8209401h-16.130229l-5.864895-14.5333537h-28.388214l-5.758903 14.5333537h-16.131996l28.70089-73.8209401z" fill="#000"/><path d="m51.9886364 0c28.711906 0 51.9886366 23.2767304 51.9886366 51.9886364s-23.2767306 51.9886366-51.9886366 51.9886366-51.9886364-23.2767306-51.9886364-51.9886366 23.2767304-51.9886364 51.9886364-51.9886364zm-8.0592568 61.4730245h-7.426948l-12.1531878 20.9349999c2.0255313 2.0259677 4.3886512 3.7142742 7.0893595 5.0649193l8.7773023-15.194758 8.1021251 13.8441129h7.4269481l8.1021251-13.8441129 8.7773023 15.194758c2.7007083-1.3506451 5.0638282-3.0389516 7.0893595-5.0649193l-12.1531877-20.9349999h-7.4269481l-8.1021251 13.8441128zm-4.7262397-48.2855642c-2.7007083 1.0129839-5.4014167 2.0259677-8.1021251 3.7142742l9.1148908 15.8700805h-15.8666618l-3.713474 6.4155645 8.1021252 13.8441128h-17.8921931c0 3.0389516.3375886 6.0779032 1.0127657 8.7791935h24.3063754s.5879093-.98006 1.315797-2.1934676l.2786445-.4645076c.2834563-.4725289.5787233-.9647465.8621796-1.4372754l.2786445-.4645076c.7278877-1.2134076 1.315797-2.1934676 1.315797-2.1934676l-8.1021252-13.8441128h15.8666618l3.713474-6.4155645zm25.3191411-.3376613-12.4907762 21.6103225 3.713474 6.4155644h15.8666617l-8.1021251 13.8441129 3.713474 6.4155644h24.3063754c.6751771-2.7012903 1.0127657-5.7402419 1.0127657-8.7791935 0 0-17.5546045.3376613-17.5546045.3376613l8.1021251-13.8441128-3.713474-6.4155645h-15.8666617l9.1148908-15.8700805c-2.3631199-1.3506452-5.0638282-2.7012903-8.1021252-3.7142742z" fill="#f00"/></g></svg>