<svg xmlns="http://www.w3.org/2000/svg" width="500" height="135" viewBox="0 0 500 135"><defs><linearGradient id="a" x1="14.645%" x2="85.355%" y1="85.355%" y2="14.645%"><stop offset="0%" stop-color="#FF351A"/><stop offset="100%" stop-color="#FF5C5C"/></linearGradient></defs><g fill="none"><g fill="#002036"><path d="M160.397 32.668h19.716l11.093 48.616 11.001-48.616h19.719v61.168h-12.1v-47.136l-10.912 47.136h-15.863l-11-47.413v47.413h-11.654zM268.789 80.72c-2.935 10.089-9.446 15.039-19.808 15.039-6.512 0-12.654-2.108-16.505-5.678-4.127-3.758-6.327-10.27-6.327-17.974 0-8.804 2.108-14.674 6.877-19.258 3.943-3.85 8.893-5.777 15.039-5.777 13.754 0 21.551 8.989 21.366 24.84v2.935h-31.086c1.008 7.246 4.493 11.097 10.085 11.097 4.127 0 6.789-1.65 8.162-5.227l12.197.004zm-11.647-14.031c-.823-6.05-4.308-9.535-9.262-9.535-5.043 0-8.343 3.485-9.262 9.535h18.524zm43.833 21.643c-2.75 4.312-8.162 6.969-14.194 6.969-8.896 0-14.397-5.135-14.397-13.485 0-4.858 1.923-9.17 5.224-11.356 2.296-1.65 6.512-2.839 13.389-3.762 5.227-.731 6.238-1.008 7.704-1.65 1.285-.735 1.927-1.65 2.019-2.935.273-3.027-2.754-5.408-6.969-5.408-5.227 0-8.162 2.2-8.517 6.327h-11.356c.185-4.862 1.285-7.704 4.127-10.454 3.577-3.577 8.896-5.227 16.781-5.227 7.52 0 13.485 2.484 16.231 6.508 1.192 1.835 1.65 4.127 1.65 7.52v23.467c-.013 1.614.214 3.222.674 4.769.273 1.1.735 1.742 2.016 2.75v1.469h-13.556l-.827-5.504zm-.458-15.681c-4.127 1.008-5.962 1.469-7.885 1.835-6.238 1.285-8.07 2.75-8.07 6.327s2.292 5.504 6.416 5.504c3.485 0 7.062-1.835 8.346-4.312.827-1.285 1.192-3.485 1.192-6.054v-3.3zm15.224-24.209h6.143v-12.747h12.104v12.747h7.612v8.517h-7.427v23.109c0 3.027.355 4.219 1.285 4.677.823.355 2.484.642 4.216.642l1.927-.092v9.17h-9.262c-6.604 0-10.454-3.85-10.454-10.454v-27.04h-6.143v-8.527zm57.402 39.89c-2.75 4.312-8.162 6.969-14.194 6.969-8.896 0-14.397-5.135-14.397-13.485 0-4.858 1.923-9.17 5.227-11.356 2.292-1.65 6.508-2.839 13.389-3.762 5.227-.731 6.235-1.008 7.7-1.65 1.285-.735 1.927-1.65 2.019-2.935.273-3.027-2.754-5.408-6.969-5.408-5.227 0-8.162 2.2-8.517 6.327h-11.412c.185-4.862 1.285-7.704 4.127-10.454 3.577-3.577 8.896-5.227 16.781-5.227 7.52 0 13.485 2.484 16.231 6.508 1.192 1.835 1.65 4.127 1.65 7.52v23.467c.006 1.617.254 3.225.735 4.769.273 1.1.735 1.742 2.016 2.75v1.469h-13.57l-.816-5.504zm-.458-15.681c-4.127 1.008-5.962 1.469-7.885 1.835-6.238 1.285-8.07 2.75-8.07 6.327s2.292 5.504 6.419 5.504c3.481 0 7.058-1.835 8.343-4.312.827-1.285 1.192-3.485 1.192-6.054v-3.3zm19.081-39.982h11.828v21.182c3.762-4.677 7.889-6.785 13.666-6.785 4.524.07 8.865 1.801 12.197 4.862 4.585 4.219 6.785 10.546 6.785 19.808 0 7.52-2.2 14.12-6.033 18.155-3.45 3.549-8.18 5.565-13.13 5.596-6.143 0-9.993-2.111-13.662-7.427l-.185 5.777h-11.466v-61.167zm11.739 38.424c0 8.712 4.035 14.031 10.646 14.031 5.777 0 9.539-5.227 9.539-13.389 0-9.081-3.485-14.308-9.631-14.308-6.434 0-10.561 5.319-10.561 13.666h.007zM440.635 32.668h11.831v61.168h-11.831zM499.325 80.72c-2.935 10.089-9.446 15.039-19.808 15.039-6.512 0-12.654-2.108-16.508-5.678-4.123-3.758-6.327-10.27-6.327-17.974 0-8.804 2.129-14.674 6.881-19.258 3.943-3.85 8.893-5.777 15.039-5.777 13.754 0 21.551 8.989 21.366 24.84v2.935h-31.089c1.011 7.246 4.496 11.097 10.089 11.097 4.127 0 6.785-1.65 8.162-5.227l12.197.004zm-11.647-14.031c-.827-6.05-4.312-9.535-9.262-9.535-5.043 0-8.346 3.485-9.262 9.535h18.524z"/></g><path fill="url(#a)" d="M67.385 0c37.214 0 67.385 30.163 67.385 67.385 0 37.221-30.163 67.385-67.385 67.385-37.221 0-67.385-30.163-67.385-67.385 0-37.221 30.163-67.385 67.385-67.385zm-37.683 96.877c3.332.001 6.528-1.322 8.884-3.678 2.356-2.356 3.679-5.552 3.678-8.884 0-6.938-5.624-12.562-12.562-12.562s-12.562 5.624-12.562 12.562 5.624 12.562 12.562 12.562zm50.245-25.124v-.014c.008-6.93 5.628-12.544 12.559-12.544 5.081.001 9.663-3.058 11.608-7.752 1.945-4.694.872-10.098-2.721-13.691-3.592-3.593-8.996-4.669-13.69-2.725-4.695 1.944-7.756 6.525-7.756 11.606 0 6.938-5.624 12.562-12.562 12.562s-12.562-5.624-12.562-12.562c0-5.081-3.061-9.662-7.756-11.606-4.695-1.944-10.098-.869-13.69 2.725-3.592 3.593-4.666 8.997-2.721 13.691 1.945 4.694 6.527 7.754 11.608 7.752 6.936 0 12.559 5.623 12.559 12.559 0 6.938 5.624 12.562 12.562 12.562s12.562-5.624 12.562-12.562zm25.121 25.124c6.936-.002 12.559-5.626 12.559-12.562 0-5.081-3.061-9.662-7.756-11.606-4.695-1.944-10.098-.869-13.69 2.725-3.592 3.593-4.666 8.997-2.721 13.691 1.945 4.694 6.527 7.754 11.608 7.752z"/></g></svg>