<svg xmlns="http://www.w3.org/2000/svg" width="500" height="67" viewBox="0 0 500 67">
  <path d="M449.923889,66.27 L500,66.27 L500,50.5322222 L470.937778,50.5322222 C464.457222,50.5322222 464.457222,40.8166667 470.937778,40.8166667 L493.52,40.8166667 L493.52,26.9277778 L470.937778,26.9277778 C464.457222,26.9277778 464.457222,17.2116667 470.937778,17.2116667 L500,17.2116667 L500,1.47388889 L449.923889,1.47388889 L449.923889,66.27 Z M394.945556,66.27 L443.167778,66.27 L443.167778,50.5322222 L420.767778,50.5322222 C418.462655,50.5300132 416.25283,49.6121496 414.624477,47.9805669 C412.996124,46.3489842 412.082641,44.1373447 412.085,41.8322222 L412.085,1.47388889 L394.944444,1.47388889 L394.945556,66.27 Z M346.667778,26.4655556 L346.667778,15.265 L360.643333,15.265 C369.992222,15.265 369.992222,26.4655556 360.643333,26.4655556 L346.667778,26.4655556 Z M329.543333,66.27 L363.421111,66.27 C379.617222,66.27 387.950556,58.1233333 387.950556,47.2944444 C387.950556,38.0366667 381.839444,32.3916667 371.01,32.3916667 L371.01,30.0783333 C380.176667,30.0783333 385.543889,25.6338889 385.543889,17.6738889 C385.543889,8.325 378.138889,1.47388889 364.347778,1.47388889 L329.551667,1.47388889 L329.543333,66.27 Z M346.666667,52.29 L346.666667,39.3327778 L361.475556,39.3327778 C373.415556,39.3327778 373.415556,52.2905556 361.475556,52.2905556 L346.666667,52.29 Z M282.159444,38.4994444 L287.715,17.2122222 L294.195,17.2122222 L299.750556,38.4994444 L282.159444,38.4994444 Z M257.632222,66.2705556 L275.132222,66.2705556 L278.465556,53.3127778 L303.550556,53.3127778 L306.695,66.2705556 L324.375,66.2705556 L310.299444,14.715 C305.021667,-4.905 276.883889,-4.905 271.608333,14.715 L257.632222,66.2705556 Z M224.587778,66.2705556 L241.616667,66.2705556 L241.616667,25.9122222 C241.643703,21.1168566 245.525732,17.2368098 250.321111,17.2122222 L261.987778,17.2122222 L261.987778,1.47444444 L204.225,1.47444444 L204.225,17.2122222 L215.796667,17.2122222 C218.117957,17.1926824 220.351082,18.1002268 222.000655,19.7335297 C223.650229,21.3668325 224.579863,23.5908524 224.583333,25.9122222 L224.587778,66.2705556 Z M167.382778,38.4994444 L172.938333,17.2122222 L179.416111,17.2122222 L184.971667,38.4994444 L167.382778,38.4994444 Z M142.858333,66.2705556 L160.358333,66.2705556 L163.691667,53.3127778 L188.75,53.3127778 L191.896667,66.2705556 L209.5,66.2705556 L195.523889,14.715 C190.246111,-4.905 162.108333,-4.905 156.832778,14.715 L142.858333,66.2705556 Z M87.6,66.2705556 L137.675556,66.2705556 L137.675556,50.5327778 L108.508889,50.5327778 C102.12,50.5327778 102.12,40.8172222 108.508889,40.8172222 L131.187222,40.8172222 L131.187222,26.9283333 L108.515556,26.9283333 C102.126667,26.9283333 102.126667,17.2122222 108.515556,17.2122222 L137.682222,17.2122222 L137.682222,1.47444444 L87.6,1.47444444 L87.6,66.2705556 Z M2.84217094e-14,66.2705556 L17.2155556,66.2705556 L17.2155556,31.2705556 L11.6666667,17.215 L14.0755556,17.215 L24.8088889,43.6866667 C27.0532252,49.4480169 32.6027757,53.2419422 38.7858333,53.2419422 C44.968891,53.2419422 50.5184415,49.4480169 52.7627778,43.6866667 L63.4094444,17.215 L65.8116667,17.215 L60.3538889,31.2822222 L60.3538889,66.2822222 L77.4783333,66.2822222 L77.4783333,14.435 C77.4783333,-1.48055556 55.0783333,-5.64722222 49.3383333,9.25277778 L39.8938889,33.7822222 L37.5805556,33.7822222 L28.14,9.25277778 C22.4,-5.65055556 2.84217094e-14,-1.48388889 2.84217094e-14,14.4316667 L2.84217094e-14,66.2705556 Z"/>
</svg>
