<svg height="65" viewBox="0 0 500 65" width="500" xmlns="http://www.w3.org/2000/svg"><g fill="none"><g fill="#273441" transform="translate(116.861 12.52)"><path d="m10.3549694.79078493 21.9209743 35.27561187v-35.27561187h9.0443182v49.76928727h-9.1976116l-22.61079529-36.5025897v36.5025897h-9.04431814v-49.76928727zm66.2775515 16.94763097c1.2774524 1.6359786 2.2355273 3.5275505 2.8742536 5.6747723.6387262 2.1472219.9580845 4.1154792.9580845 5.9048307 0 1.7893516-.1021946 3.3997439-.306587 4.8312252h-24.0670838c.1021962 3.0163354.8431075 5.4702665 2.2227561 7.3618668 1.3796487 1.8916002 3.4746393 2.8373862 6.2850347 2.8373862 3.7301611 0 5.952895-1.6359541 6.6682684-4.9079113h9.1209649c-.6131772 3.7320762-2.3249378 6.6716811-5.1353332 8.818903-2.9125916 2.2494705-6.4638561 3.374189-10.6539001 3.374189-4.9054175 0-9.0187526-1.7893248-12.340129-5.3680279-3.4235725-3.7320762-5.1353331-8.5121294-5.1353331-14.3403032 0-5.9815466 1.7117606-10.7871616 5.1353331-14.4169892 3.2702783-3.4764545 7.3836134-5.2146557 12.340129-5.2146557 5.1609078 0 9.1720484 1.8148866 12.0335419 5.4447141zm-11.9568952 1.7637806c-2.5549049 0-4.5477008.8307579-5.9784476 2.4922987-1.4307467 1.6615407-2.2738526 3.7959495-2.5293431 6.4032904h15.86588c0-4.0388222-1.2774333-6.7483711-3.8323381-8.128728-.9708639-.5112433-2.1461025-.7668611-3.5257512-.7668611zm56.0652823 31.0578757h-11.037133l-9.197612-11.9630336-8.5844376 11.9630336h-11.1137808l14.4862382-18.5580393-14.4862382-18.7880977h11.1137808l9.1209646 11.9630337 8.661085-11.9630337h11.037133l-14.409591 18.7880977zm28.154912-.9202334c-3.372475 1.3292327-6.029536 1.993839-7.971264 1.993839s-3.640714-.230056-5.097009-.690175c-1.456297-.460119-2.746504-1.1502871-3.870662-2.0705251-2.350513-2.0960976-3.525751-4.984579-3.525751-8.6655307v-20.8586227h-5.21198v-6.0582029h5.21198v-9.81582252h9.044318v9.81582252h10.117373v6.0582029h-10.117373v20.5518782c0 3.0674599 1.456273 4.6011668 4.368865 4.6011668 1.481845 0 3.397995-.4089885 5.748508-1.2269778zm34.319501-48.84905387 13.643123 29.60083957 13.643124-29.60083957h12.493423v49.76928727h-9.120965v-37.8062537l-14.103004 32.3615397h-5.901802l-14.562884-33.4351453v38.8798593h-9.044318v-49.76928727zm60.824682 27.99043117c2.963689 0 6.38721.4856739 10.270666 1.4570362v-3.6809334c0-2.6073409-.523748-4.5372555-1.571259-5.7898015-1.047511-1.2525462-2.759271-1.8788098-5.135333-1.8788098s-4.202792.4728929-5.480244 1.4186931c-1.277452.9458001-1.916169 2.2877936-1.916169 4.0260209h-9.887433c0-4.2433195 1.494597-7.3107333 4.483836-9.2023335 2.989239-1.8916003 7.166446-2.8373863 12.531746-2.8373863 7.664715 0 12.621156 2.6839872 14.869472 8.0520419.766471 1.8404759 1.149702 4.0132274 1.149702 6.5183197v23.6960088h-7.894617l-.689821-4.9845973c-2.401611 4.0388221-6.080618 6.0582029-11.037134 6.0582029-4.803221 0-8.533327-1.175842-11.190428-3.5275612-2.452708-2.2494706-3.679044-5.0996093-3.679044-8.5505016s1.35408-6.1093177 4.062278-7.9753557c2.7082-1.8660381 6.412756-2.7990432 11.113782-2.7990432zm10.270666 7.2084947c-3.014788-.8179893-5.825141-1.2269778-8.431145-1.2269778-4.905417 0-7.358089 1.635954-7.358089 4.9079112 0 1.3803569.562071 2.5689798 1.686229 3.5659042 1.124158.9969245 2.925339 1.4953792 5.403596 1.4953792 2.478258 0 4.522152-.8307579 6.131742-2.4922986 1.60959-1.6615408 2.46547-3.744826 2.567667-6.2499182zm39.213944 13.650128c-3.372474 1.3292327-6.029536 1.993839-7.971264 1.993839-1.941727 0-3.640714-.230056-5.097009-.690175-1.456297-.460119-2.746504-1.1502871-3.870662-2.0705251-2.350513-2.0960976-3.525751-4.984579-3.525751-8.6655307v-20.8586227h-5.21198v-6.0582029h5.21198v-9.81582252h9.044318v9.81582252h10.117373v6.0582029h-10.117373v20.5518782c0 3.0674599 1.456274 4.6011668 4.368865 4.6011668 1.481845 0 3.397995-.4089885 5.748508-1.2269778zm24.070733 0c-3.372474 1.3292327-6.029535 1.993839-7.971263 1.993839-1.941727 0-3.640714-.230056-5.09701-.690175s-2.746503-1.1502871-3.870661-2.0705251c-2.350513-2.0960976-3.525752-4.984579-3.525752-8.6655307v-20.8586227h-5.21198v-6.0582029h5.21198v-9.81582252h9.044318v9.81582252h10.117373v6.0582029h-10.117373v20.5518782c0 3.0674599 1.456275 4.6011668 4.368866 4.6011668 1.481845 0 3.397995-.4089885 5.748507-1.2269778zm31.607666-31.9014229c1.277452 1.6359786 2.235527 3.5275505 2.874253 5.6747723.638727 2.1472219.958085 4.1154792.958085 5.9048307 0 1.7893516-.102195 3.3997439-.306587 4.8312252h-24.067084c.102197 3.0163354.843107 5.4702665 2.222756 7.3618668 1.379648 1.8916002 3.474639 2.8373862 6.285035 2.8373862 3.730161 0 5.952895-1.6359541 6.668268-4.9079113h9.120965c-.613177 3.7320762-2.324938 6.6716811-5.135333 8.818903-2.912591 2.2494705-6.463856 3.374189-10.6539 3.374189-4.905417 0-9.018753-1.7893248-12.340129-5.3680279-3.423573-3.7320762-5.135333-8.5121294-5.135333-14.3403032 0-5.9815466 1.71176-10.7871616 5.135333-14.4169892 3.270278-3.4764545 7.383613-5.2146557 12.340129-5.2146557 5.160908 0 9.172048 1.8148866 12.033542 5.4447141zm-11.956895 1.7637806c-2.554905 0-4.547701.8307579-5.978448 2.4922987-1.430747 1.6615407-2.273853 3.7959495-2.529343 6.4032904h15.86588c0-4.0388222-1.277433-6.7483711-3.832338-8.128728-.970864-.5112433-2.146103-.7668611-3.525751-.7668611zm31.625914 1.1502916c2.248316-5.3680547 5.62074-8.0520418 10.117373-8.0520418.868668 0 1.96726.1789325 3.295811.5368028l-.153293 9.0489613c-1.430748-.306746-2.835924-.4601167-4.215573-.4601167-6.029575 0-9.044318 4.1665705-9.044318 12.4998364v16.3341421h-9.044318v-37.346137h9.044318z"/><path d="m267.877 13.296h48.627v6.224h-48.627z"/></g><g fill="#1b57d1" transform="translate(.167)"><path d="m15.2312261 15.3321303c-1.6732456-1.6548245-3.9426537-2.5844953-6.30898044-2.5844953-4.9276202 0-8.92224566 3.9506479-8.92224566 8.8240191v33.7709935c0 4.8733711 3.99462546 8.8240191 8.92224566 8.8240191h34.14692294c2.3663266 0 4.6357347-.9296708 6.3089804-2.5844954 3.4843537-3.4459938 3.4843537-9.0330537 0-12.4790475z" fill-opacity=".75"/><path d="m26.1040225 53.5349267c0 5.8570766 4.8009533 10.6051753 10.7232293 10.6051753h45.156968c3.573387 0 6.2055381-1.5019911 7.9071834-4.5063363 1.6776886-3.5485425 1.2132496-6.8145134-1.3910384-9.8119882l-47.7843774-47.29210287c-3.0220431-2.70951445-6.6902182-3.35622132-10.2652397-1.38463689-2.7029863 1.68868648-4.1497167 4.05782729-4.3467252 7.1166432z" fill-opacity=".5"/><path d="m26.1040225 26.0844463 24.866565 24.6468446c3.1096552 3.0888765 3.0918022 8.0793258-.039876 11.1464805-1.4969527 1.4661103-3.5209486 2.2888953-5.6305289 2.2888953h-10.5197576c-4.7918448 0-8.6764025-3.8314662-8.6764025-8.5578192z"/></g></g></svg>