<svg xmlns="http://www.w3.org/2000/svg" width="500" height="65" viewBox="0 0 500 65"><g fill="none"><g fill="#273441"><path d="M127.216 13.311l21.921 35.276v-35.276h9.044v49.769h-9.198l-22.611-36.503v36.503h-9.044v-49.769h9.887zm66.278 16.948c1.277 1.636 2.236 3.528 2.874 5.675.639 2.147.958 4.115.958 5.905 0 1.789-.102 3.4-.307 4.831h-24.067c.102 3.016.843 5.47 2.223 7.362 1.38 1.892 3.475 2.837 6.285 2.837 3.73 0 5.953-1.636 6.668-4.908h9.121c-.613 3.732-2.325 6.672-5.135 8.819-2.913 2.249-6.464 3.374-10.654 3.374-4.905 0-9.019-1.789-12.34-5.368-3.424-3.732-5.135-8.512-5.135-14.34 0-5.982 1.712-10.787 5.135-14.417 3.27-3.476 7.384-5.215 12.34-5.215 5.161 0 9.172 1.815 12.034 5.445zm-11.957 1.764c-2.555 0-4.548.831-5.978 2.492-1.431 1.662-2.274 3.796-2.529 6.403h15.866c0-4.039-1.277-6.748-3.832-8.129-.971-.511-2.146-.767-3.526-.767zm56.065 31.058h-11.037l-9.198-11.963-8.584 11.963h-11.114l14.486-18.558-14.486-18.788h11.114l9.121 11.963 8.661-11.963h11.037l-14.41 18.788 14.41 18.558zm28.155-.92c-3.372 1.329-6.03 1.994-7.971 1.994-1.942 0-3.641-.23-5.097-.69-1.456-.46-2.747-1.15-3.871-2.071-2.351-2.096-3.526-4.985-3.526-8.666v-20.859h-5.212v-6.058h5.212v-9.816h9.044v9.816h10.117v6.058h-10.117v20.552c0 3.067 1.456 4.601 4.369 4.601 1.482 0 3.398-.409 5.749-1.227l1.303 6.365zm34.32-48.849l13.643 29.601 13.643-29.601h12.493v49.769h-9.121v-37.806l-14.103 32.362h-5.902l-14.563-33.435v38.88h-9.044v-49.769h12.953zm60.825 27.99c2.964 0 6.387.486 10.271 1.457v-3.681c0-2.607-.524-4.537-1.571-5.79-1.048-1.253-2.759-1.879-5.135-1.879s-4.203.473-5.48 1.419c-1.277.946-1.916 2.288-1.916 4.026h-9.887c0-4.243 1.495-7.311 4.484-9.202 2.989-1.892 7.166-2.837 12.532-2.837 7.665 0 12.621 2.684 14.869 8.052.766 1.84 1.15 4.013 1.15 6.518v23.696h-7.895l-.69-4.985c-2.402 4.039-6.081 6.058-11.037 6.058-4.803 0-8.533-1.176-11.19-3.528-2.453-2.249-3.679-5.1-3.679-8.551 0-3.451 1.354-6.109 4.062-7.975 2.708-1.866 6.413-2.799 11.114-2.799zm10.271 7.208c-3.015-.818-5.825-1.227-8.431-1.227-4.905 0-7.358 1.636-7.358 4.908 0 1.38.562 2.569 1.686 3.566 1.124.997 2.925 1.495 5.404 1.495 2.478 0 4.522-.831 6.132-2.492 1.61-1.662 2.465-3.745 2.568-6.25zm39.214 13.65c-3.372 1.329-6.03 1.994-7.971 1.994-1.942 0-3.641-.23-5.097-.69-1.456-.46-2.747-1.15-3.871-2.071-2.351-2.096-3.526-4.985-3.526-8.666v-20.859h-5.212v-6.058h5.212v-9.816h9.044v9.816h10.117v6.058h-10.117v20.552c0 3.067 1.456 4.601 4.369 4.601 1.482 0 3.398-.409 5.749-1.227l1.303 6.365zm24.071 0c-3.372 1.329-6.03 1.994-7.971 1.994-1.942 0-3.641-.23-5.097-.69-1.456-.46-2.747-1.15-3.871-2.071-2.351-2.096-3.526-4.985-3.526-8.666v-20.859h-5.212v-6.058h5.212v-9.816h9.044v9.816h10.117v6.058h-10.117v20.552c0 3.067 1.456 4.601 4.369 4.601 1.482 0 3.398-.409 5.749-1.227l1.303 6.365zm31.608-31.901c1.277 1.636 2.236 3.528 2.874 5.675.639 2.147.958 4.115.958 5.905 0 1.789-.102 3.4-.307 4.831h-24.067c.102 3.016.843 5.47 2.223 7.362 1.38 1.892 3.475 2.837 6.285 2.837 3.73 0 5.953-1.636 6.668-4.908h9.121c-.613 3.732-2.325 6.672-5.135 8.819-2.913 2.249-6.464 3.374-10.654 3.374-4.905 0-9.019-1.789-12.34-5.368-3.424-3.732-5.135-8.512-5.135-14.34 0-5.982 1.712-10.787 5.135-14.417 3.27-3.476 7.384-5.215 12.34-5.215 5.161 0 9.172 1.815 12.034 5.445zm-11.957 1.764c-2.555 0-4.548.831-5.978 2.492-1.431 1.662-2.274 3.796-2.529 6.403h15.866c0-4.039-1.277-6.748-3.832-8.129-.971-.511-2.146-.767-3.526-.767zm31.626 1.15c2.248-5.368 5.621-8.052 10.117-8.052.869 0 1.967.179 3.296.537l-.153 9.049c-1.431-.307-2.836-.46-4.216-.46-6.03 0-9.044 4.167-9.044 12.5v16.334h-9.044v-37.346h9.044v7.439zM384.738 25.816h48.627v6.224h-48.627z"/></g><path fill="#5481DD" d="M15.398 15.332c-1.673-1.655-3.943-2.584-6.309-2.584-4.928 0-8.922 3.951-8.922 8.824v33.771c0 4.873 3.995 8.824 8.922 8.824h34.147c2.366 0 4.636-.93 6.309-2.584 3.484-3.446 3.484-9.033 0-12.479l-34.147-33.771z"/><path fill="#8DABE8" d="M26.271 53.535c0 5.857 4.801 10.605 10.723 10.605h45.157c3.573 0 6.206-1.502 7.907-4.506 1.678-3.549 1.213-6.815-1.391-9.812l-47.784-47.292c-3.022-2.71-6.69-3.356-10.265-1.385-2.703 1.689-4.15 4.058-4.347 7.117v45.273z"/><path fill="#1B57D1" d="M26.271 26.084l24.867 24.647c3.11 3.089 3.092 8.079-.04 11.146-1.497 1.466-3.521 2.289-5.631 2.289h-10.52c-4.792 0-8.676-3.831-8.676-8.558v-29.524z"/></g></svg>