<svg xmlns="http://www.w3.org/2000/svg" width="499" height="200" viewBox="0 0 499 200"><g fill-rule="evenodd"><path d="M420.022 2.901h78.54v193.635h-51.004v-150.094h-27.536zM294.684 76.909c10.321-.622 20.095-.444 29.583-2.016 8.09-1.34 12.261-8.358 12.032-16.792-.224-8.265-5-15.169-13.089-16.015-9.295-.973-18.771-.226-28.526-.226v35.049zm.232 43.744v37.177c9.706 0 18.944.572 28.08-.157 9.625-.768 15.639-8.123 15.974-17.796.348-9.99-5.532-18.088-15.386-19.032-9.34-.893-18.831-.193-28.669-.193zm66.334-23.401c24.825 14.499 30.122 36.021 23.529 61.361-5.783 22.228-21.664 35.449-43.61 36.821-31.16 1.947-62.532.494-94.39.494v-193.037c2.535-.157 4.726-.411 6.917-.412 24.08-.024 48.161-.062 72.239.045 4.238.02 8.515.429 12.703 1.108 22.261 3.615 38.172 15.092 43.898 37.73 5.768 22.814-.426 41.699-21.286 55.89zm-201.852 2.241c-.032-30.123-24.432-54.645-54.538-54.808-30.395-.166-55.268 24.503-55.316 54.858-.05 30.423 24.655 55.246 54.989 55.251 30.366.005 54.896-24.721 54.864-55.3zm-159.398-1.9c.824-49.206 37.712-90.096 88.532-96.461 40.883-5.119 75.965 6.923 101.164 40.134 43.959 57.939 9.904 142.41-62.133 155.812-39.86 7.416-74.69-2.431-102.786-32.299-17.318-18.41-24.657-41.045-24.777-67.186z"/></g></svg>