<svg height="82" viewBox="0 0 500 82" width="500" xmlns="http://www.w3.org/2000/svg"><g fill="none"><g transform="translate(0 .196)"><path d="m70.2617384 77.8701387v-20.2530884h-22.0555526c-5.9979047 0-11.5538189 3.1485764-14.6257643 8.288966l-7.1503072 11.9641224z" fill="#63d2f9"/><path d="m.06503.06492673v20.25308837h58.0924241l12.1043232-20.25308837z" fill="#4e5ee4"/><path d="m27.867449 31.717414-27.73845592 46.1527636h23.63251022l33.1702435-55.2152417h-13.0499776c-6.5640224 0-12.6451989 3.4413372-16.0143202 9.0624781z" fill="#63b0f9"/></g><path d="m120.540645 58.6319523c-11.883455 0-20.6278842-8.6378613-20.6278842-20.2293136 0-11.4799965 8.8004832-20.229314 20.6839382-20.229314s20.683939 8.8607738 20.683939 20.229314c0 11.4799959-8.856538 20.2293136-20.739993 20.2293136zm.056054-7.0774735c7.511241 0 12.892428-5.5728134 12.892428-13.1518401 0-7.4675707-5.381187-13.1518406-12.892428-13.1518406-7.567294 0-12.948481 5.6842699-12.948481 13.1518406 0 7.5790267 5.381187 13.1518401 12.948481 13.1518401zm28.64154 19.1704796v-42.1304721h7.174916v3.7337852h.392378c.784757-1.2260189 3.475351-4.4582509 8.856538-4.4582509 8.239943 0 13.9014 6.1300951 13.9014 15.2695096 0 9.1394146-5.605404 15.4924221-13.677184 15.4924221-5.213025 0-8.015727-2.8978631-8.968645-4.5139793h-.392378v16.6069854zm15.022481-18.6689264c4.708539 0 7.903619-3.6223288 7.903619-8.8050454 0-5.3499014-3.19508-8.8050459-7.959673-8.8050459-4.820647 0-7.847565 3.8452416-7.847565 8.8050459 0 5.4613573 3.363242 8.8050454 7.903619 8.8050454zm36.15278 6.5759203c-8.688375 0-14.854319-6.4644636-14.854319-15.2137817 0-9.2508706 6.221998-15.54815 14.854319-15.54815 9.473132 0 14.630103 6.9660172 14.630103 15.2137814v2.2848535h-22.421613c.224216 4.4582512 3.307188 7.4675704 8.015726 7.4675704 3.587459 0 6.334106-1.6718439 7.343079-4.0681538h6.782538c-1.457405 5.9629107-6.726484 9.8638802-14.349833 9.8638802zm-7.679402-18.3902851h15.358805c-.336325-3.956698-3.419296-6.5759204-7.679403-6.5759204-4.091944 0-7.23097 2.8978631-7.679402 6.5759204zm30.154999 17.6658194v-29.3130003h6.9507v3.5666009h.392378c1.177135-2.1733974 4.091944-4.2910666 8.295997-4.2910666 6.614376 0 10.650266 4.6254352 10.650266 10.8669867v19.1704793h-7.287024v-17.2757226c0-3.5666006-2.298215-5.9629108-5.661458-5.9629108-3.531403 0-6.053835 2.786407-6.053835 6.464464v16.7741694zm33.518241 0v-6.6316485l20.403668-25.5792149v-.390097h-19.674966v-6.4087358h28.979935v6.5759202l-20.403668 25.579215v.4458253h20.515776v6.4087357zm49.549694.7244657c-8.688375 0-14.85432-6.4644636-14.85432-15.2137817 0-9.2508706 6.222-15.54815 14.85432-15.54815 9.473131 0 14.630102 6.9660172 14.630102 15.2137814v2.2848535h-22.421614c.224218 4.4582512 3.307189 7.4675704 8.015727 7.4675704 3.587459 0 6.334108-1.6718439 7.343079-4.0681538h6.782537c-1.457404 5.9629107-6.726482 9.8638802-14.349831 9.8638802zm-7.679404-18.3902851h15.358805c-.336323-3.956698-3.419293-6.5759204-7.679401-6.5759204-4.091945 0-7.230971 2.8978631-7.679404 6.5759204zm30.155 30.4832912v-42.1304721h7.174916v3.7337852h.392378c.784758-1.2260189 3.475351-4.4582509 8.856537-4.4582509 8.239942 0 13.901401 6.1300951 13.901401 15.2695096 0 9.1394146-5.605404 15.4924221-13.677183 15.4924221-5.213026 0-8.015726-2.8978631-8.968645-4.5139793h-.392381v16.6069854zm15.022482-18.6689264c4.708538 0 7.903617-3.6223288 7.903617-8.8050454 0-5.3499014-3.195079-8.8050459-7.959672-8.8050459-4.820648 0-7.847564 3.8452416-7.847564 8.8050459 0 5.4613573 3.363242 8.8050454 7.903619 8.8050454zm23.148245 18.6689264v-42.1304721h7.174915v3.7337852h.392378c.784756-1.2260189 3.475349-4.4582509 8.856538-4.4582509 8.239942 0 13.901401 6.1300951 13.901401 15.2695096 0 9.1394146-5.605404 15.4924221-13.677186 15.4924221-5.213023 0-8.015727-2.8978631-8.968645-4.5139793h-.392378v16.6069854zm15.022479-18.6689264c4.708538 0 7.903619-3.6223288 7.903619-8.8050454 0-5.3499014-3.195081-8.8050459-7.959671-8.8050459-4.820648 0-7.847567 3.8452416-7.847567 8.8050459 0 5.4613573 3.363244 8.8050454 7.903619 8.8050454zm36.152779 6.5759203c-8.688375 0-14.854316-6.4644636-14.854316-15.2137817 0-9.2508706 6.221997-15.54815 14.854316-15.54815 9.473134 0 14.630108 6.9660172 14.630108 15.2137814v2.2848535h-22.421616c.224215 4.4582512 3.307189 7.4675704 8.015726 7.4675704 3.58746 0 6.334105-1.6718439 7.343079-4.0681538h6.782538c-1.457407 5.9629107-6.726483 9.8638802-14.349835 9.8638802zm-7.679398-18.3902851h15.358802c-.336325-3.956698-3.419293-6.5759204-7.679404-6.5759204-4.091944 0-7.230971 2.8978631-7.679398 6.5759204zm37.329913 17.6658194c-5.156971 0-8.071779-3.0650474-8.071779-8.2477642v-33.5483389h7.287023v32.8796011c0 1.6718442.840808 2.5634942 2.35427 2.5634942h1.177131v6.3530078zm13.394843-33.2139699c-2.634541 0-4.484326-1.616116-4.484326-4.2353384 0-2.5077662 1.849785-4.1796103 4.484326-4.1796103s4.48432 1.6718441 4.48432 4.1796103c0 2.6192224-1.849779 4.2353384-4.48432 4.2353384zm-3.643512 33.2139699v-29.3130003h7.287024v29.3130003zm16.141489 0v-29.3130003h6.950703v3.5666009h.392375c1.177137-2.1733974 4.091945-4.2910666 8.296-4.2910666 6.614375 0 10.650268 4.6254352 10.650268 10.8669867v19.1704793h-7.287029v-17.2757226c0-3.5666006-2.298213-5.9629108-5.661457-5.9629108-3.531401 0-6.053834 2.786407-6.053834 6.464464v16.7741694z" fill="#282846"/></g></svg>