<svg height="157" viewBox="0 0 500 157" width="500" xmlns="http://www.w3.org/2000/svg" xmlns:xlink="http://www.w3.org/1999/xlink"><linearGradient id="a" x1="23.057%" x2="66.545%" y1="66.962%" y2="35.318%"><stop offset="0" stop-color="#230cff"/><stop offset=".43" stop-color="#266fe3"/><stop offset=".72" stop-color="#2af6bc"/></linearGradient><g fill="none"><path d="m365.719515 28.9948985c-8.891381 0-16.75124 3.9948647-21.134363 10.695699v-34.92259863h-20.616911v55.92776773l20.616911 25.5929053v-.0774487c4.768676 6.7011725 12.114465 10.3091319 20.748811 10.3091319 16.75124 0 28.223117-13.5308624 28.223117-33.7625592 0-20.1031792-11.339977-33.7628974-27.837565-33.7628974zm-7.345789 47.1649042c-8.116894 0-14.045609-5.5414712-14.045609-13.4020068 0-7.8608737 5.928715-13.4020067 14.045609-13.4020067 8.120276 0 14.048991 5.541133 14.048991 13.4020067 0 7.8605356-5.928715 13.4020068-14.048991 13.4020068zm42.914696-45.6186358h20.616911v64.4329199h-20.616911zm22.42292-18.4277171c0 6.9588839-5.154228 12.1134499-12.114465 12.1134499s-12.114464-5.154566-12.114464-12.1134499c0-6.95888384 5.154227-12.1134498 12.114464-12.1134498s12.114465 5.15456596 12.114465 12.1134498zm41.108686 16.8814487c-20.102841 0-35.183354 13.1442954-35.183354 33.7628974 0 20.6182639 15.080513 33.7625592 35.183354 33.7625592s35.179972-13.1442953 35.179972-33.7625592c0-20.618602-15.077131-33.7628974-35.179972-33.7628974zm0 47.2937599c-7.474306 0-14.048991-5.0257103-14.048991-13.5308625s6.574685-13.5308624 14.048991-13.5308624c7.474307 0 14.045609 5.0257102 14.045609 13.5308624s-6.571302 13.5308625-14.045609 13.5308625z" fill="url(#a)"/><g fill="#000"><path d="m45.1028749 38.5308963c-25.773168 0-45.1028749 19.3297069-45.1028749 45.1028748s19.3297069 45.1032129 45.1028749 45.1032129 45.1028748-19.330045 45.1028748-45.1032129-19.3297068-45.1028748-45.1028748-45.1028748zm0 68.2989287c-13.6600564 0-23.1960541-9.5359975-23.1960541-23.1960539 0-13.6597181 9.5359977-23.1957159 23.1960541-23.1957159 13.6597181 0 23.1957159 9.5359978 23.1957159 23.1957159 0 13.6600564-9.5359978 23.1960539-23.1957159 23.1960539zm72.0228921-31.3143008v-11.2114599h-19.8451294v64.4329197h20.6182634v-28.479476c0-11.2111213 5.412616-15.4636974 14.690902-15.4636974 2.835164 0 6.056556.3865671 8.376297 1.2885569v-22.293726c-1.933174-.6442785-3.737154-1.0308456-6.18575-1.0308456-9.007723 0-14.432852 5.0257103-17.654583 12.7577283zm40.592926-41.7526268c-6.958884 0-12.11345 5.154566-12.11345 12.1134498 0 6.9585457 5.154566 12.1134499 12.11345 12.1134499 6.958545 0 12.113137-5.1549042 12.113137-12.1134499.013164-6.9588838-5.14174-12.1134498-12.113137-12.1134498z"/><path d="m168.028 64.304h-20.619v64.433h20.619z"/><path d="m223.453021 73.4534949c-3.994864-6.5719786-11.726882-10.695699-20.103179-10.695699-17.010304 0-28.866043 13.6597182-28.866043 33.3759922 0 19.7166119 11.726883 32.6031959 29.510322 32.6031959 8.376296 0 15.33518-3.350586 19.716612-9.535998v3.350249c0 9.278286-6.18575 13.917767-18.556911 13.917767-6.185412 0-12.113112-1.675462-18.298861-5.28376l-8.247441 18.428056c8.376296 4.510287 17.396871 6.571978 28.092908 6.571978 24.226562 0 37.370857-11.340315 37.370857-32.216291v-59.6649207h-20.618264zm-13.788912 36.5977231c-8.118247 0-14.046285-5.669989-14.046285-13.5308629 0-7.8605355 5.928038-13.5308624 14.046285-13.5308624 8.118586 0 14.046624 5.6703269 14.046624 13.5308624 0 7.8608739-5.928038 13.5308629-14.046624 13.5308629zm53.72437-76.2883206c-6.958884 0-12.11345 5.154566-12.11345 12.1134498 0 6.9585457 5.154566 12.1134499 12.11345 12.1134499 6.958883 0 12.113473-5.1549042 12.113473-12.1134499.012828-6.9588838-5.141738-12.1134498-12.113473-12.1134498z"/><path d="m273.698 64.304h-20.619v64.433h20.619z"/><path d="m302.189938 73.9689177v-9.6648534h-20.103179v64.4329197h20.618602v-31.3143008c0-9.2786246 4.12372-14.6909019 11.21146-14.6909019 6.571978 0 9.793709 3.866009 9.793709 11.8557384v34.1494643h20.874622v-32.422595l-26.634911-33.0668738c-6.26286 1.2628535-11.752587 4.9611133-15.760303 10.7214025z"/></g></g></svg>