<svg xmlns="http://www.w3.org/2000/svg" width="500" height="207" viewBox="0 0 500 207"><g fill="#28333D"><path d="M103.478 206.89c-56.955 0-103.281-46.325-103.281-103.281 0-56.955 46.325-103.281 103.281-103.281 56.955 0 103.281 46.325 103.281 103.281 0 56.955-46.325 103.281-103.281 103.281zm0-199.409c-52.953 0-96.063 43.11-96.063 96.129 0 53.018 43.11 96.063 96.063 96.063s96.063-43.11 96.063-96.063-43.045-96.129-96.063-96.129zM303.478 15.879c12.467 0 22.047 8.858 22.047 22.572 0 13.714-9.58 22.572-22.047 22.572s-22.047-8.858-22.047-22.572c0-13.714 9.58-22.572 22.047-22.572zm0 38.78c8.924 0 14.961-6.496 14.961-16.207s-6.037-16.207-14.961-16.207-14.961 6.496-14.961 16.207 6.037 16.207 14.961 16.207zm28.346-37.008c0-.591.262-.853.853-.853h5.052c.591 0 .853.262.853.853v4.068c3.084-3.346 8.333-5.774 14.173-5.774 11.68 0 19.357 9.186 19.357 22.572s-7.677 22.572-19.357 22.572c-5.971 0-10.827-2.625-14.173-5.906v18.307c0 .591-.262.853-.853.853h-5.052c-.591 0-.853-.262-.853-.853v-55.84zm19.816 37.008c8.858 0 13.386-6.693 13.386-16.207 0-9.514-4.593-16.207-13.386-16.207-8.465 0-13.78 6.693-13.78 16.207 0 9.514 5.249 16.207 13.78 16.207zm32.808-14.108c.722 8.465 6.037 14.108 14.567 14.108 5.971 0 10.367-2.362 12.73-7.94.262-.722.591-.787 1.181-.787h5.643c.459 0 .591.262.591.591 0 .197 0 .328-.197.853-3.281 9.186-10.564 13.648-20.144 13.648-13.255 0-21.654-9.843-21.654-22.572 0-12.73 9.121-22.572 21.654-22.572 13.189 0 21.194 10.367 21.194 22.441v1.378c0 .591-.262.853-.853.853h-34.711zm.328-6.365h27.953c-1.378-7.087-6.824-11.877-13.911-11.877-6.627 0-12.467 4.003-14.042 11.877zm42.323-16.535c0-.591.262-.853.853-.853h5.052c.591 0 .853.262.853.853v4.921c3.346-4.068 8.136-6.693 14.37-6.693 9.121 0 15.092 5.643 15.092 15.748v27.69c0 .591-.262.853-.853.853h-5.052c-.591 0-.853-.262-.853-.853v-26.64c0-7.021-3.609-10.367-9.843-10.367-7.283 0-12.795 5.249-12.795 15.748v21.325c0 .591-.262.853-.853.853h-5.052c-.591 0-.853-.262-.853-.853v-41.732h-.066zm-163.189 108.53c-10.105 0-18.241-5.971-18.241-14.108 0-.525.262-.853.853-.853h5.512c.591 0 .787.262.853.853.722 5.052 4.79 7.677 11.286 7.677 5.774 0 10.039-1.837 10.039-6.299 0-4.528-3.806-6.037-12.664-7.415-10.367-1.64-14.829-5.052-14.829-12.664 0-7.94 7.283-12.402 16.47-12.402 9.711 0 15.682 4.921 16.732 12.467 0 .525-.262.853-.853.853h-4.856c-.591 0-.722-.262-.853-.853-1.312-4.265-5.709-6.037-10.367-6.037-5.512 0-9.449 1.903-9.449 5.774 0 4.265 3.478 5.709 12.205 7.283 8.333 1.444 15.551 3.871 15.551 12.139.066 8.727-7.218 13.583-17.388 13.583zm43.832-45.21c12.467 0 22.047 8.858 22.047 22.572 0 13.714-9.58 22.638-22.047 22.638s-22.047-8.858-22.047-22.572c0-13.714 9.58-22.638 22.047-22.638zm0 38.78c8.924 0 14.961-6.496 14.961-16.207s-6.037-16.207-14.961-16.207-14.961 6.496-14.961 16.207c0 9.777 6.037 16.207 14.961 16.207zm64.895 4.724c0 .591-.262.853-.853.853h-4.987c-.591 0-.853-.262-.853-.853v-4.921c-3.346 4.068-8.202 6.693-14.37 6.693-9.121 0-15.092-5.643-15.092-15.748v-27.69c0-.591.262-.853.853-.853h5.052c.591 0 .853.262.853.853v26.64c0 7.021 3.609 10.367 9.843 10.367 7.283 0 12.795-5.249 12.795-15.748v-21.325c0-.591.262-.853.853-.853h5.052c.591 0 .853.262.853.853v41.732zm36.352-35.367c0 .525-.328.984-.984.984-3.543-1.837-5.774-2.69-9.318-2.69-6.234 0-10.564 5.906-10.564 13.517v23.556c0 .591-.262.853-.853.853h-5.052c-.591 0-.853-.262-.853-.853v-41.732c0-.591.262-.853.853-.853h5.052c.591 0 .853.262.853.853v4.79c2.625-3.543 6.759-6.496 12.664-6.496 2.887 0 4.856.591 7.152 1.378.525.197.984.722 1.05 1.575v5.118zm9.514 14.501c0 10.302 5.774 16.207 14.37 16.207 5.906 0 10.499-3.084 12.27-8.661.262-.722.591-.787 1.181-.787h5.249c.328 0 .591.197.591.525 0 .197 0 .525-.066.853-2.165 8.661-8.727 14.436-19.291 14.436-13.058 0-21.457-9.711-21.457-22.572 0-12.927 8.399-22.572 21.457-22.572 10.564 0 17.126 5.774 19.291 14.436.066.328.066.722.066.853 0 .328-.262.525-.591.525h-5.249c-.591 0-.984-.066-1.181-.787-1.837-5.512-6.43-8.661-12.27-8.661-8.53 0-14.37 5.906-14.37 16.207zm45.472 2.034c.722 8.465 6.037 14.108 14.567 14.108 5.971 0 10.367-2.362 12.73-7.94.262-.722.591-.787 1.181-.787h5.643c.459 0 .591.262.591.591 0 .197 0 .328-.197.853-3.281 9.186-10.564 13.648-20.144 13.648-13.255 0-21.654-9.843-21.654-22.572 0-12.73 9.121-22.572 21.654-22.572 13.189 0 21.194 10.367 21.194 22.441v1.378c0 .591-.262.853-.853.853h-34.711zm.328-6.365h27.953c-1.378-7.087-6.824-11.877-13.911-11.877-6.562 0-12.467 4.003-14.042 11.877zm-158.596 69.423c0 10.302 5.774 16.207 14.37 16.207 5.906 0 10.499-3.084 12.27-8.661.262-.722.591-.787 1.181-.787h5.249c.328 0 .591.197.591.525 0 .197 0 .525-.066.853-2.165 8.661-8.727 14.436-19.291 14.436-13.058 0-21.457-9.711-21.457-22.572 0-12.861 8.399-22.572 21.457-22.572 10.564 0 17.126 5.774 19.291 14.436.066.328.066.722.066.853 0 .328-.262.525-.591.525h-5.249c-.591 0-.984-.066-1.181-.787-1.837-5.512-6.43-8.661-12.27-8.661-8.596 0-14.37 5.906-14.37 16.207zm60.236-22.572c12.467 0 22.047 8.858 22.047 22.572 0 13.714-9.58 22.572-22.047 22.572s-22.047-8.858-22.047-22.572c0-13.714 9.58-22.572 22.047-22.572zm0 38.78c8.924 0 14.961-6.496 14.961-16.207s-6.037-16.207-14.961-16.207-14.961 6.496-14.961 16.207 6.037 16.207 14.961 16.207zm27.165-53.478c0-.591.262-.853.853-.853h7.415c.591 0 .853.262.853.853v7.415c0 .591-.262.853-.853.853h-7.415c-.591 0-.853-.262-.853-.853v-7.415zm1.247 16.404c0-.591.262-.853.853-.853h5.052c.591 0 .853.262.853.853v41.732c0 .591-.262.853-.853.853h-5.052c-.591 0-.853-.262-.853-.853v-41.732zm14.764 0c0-.591.262-.853.853-.853h5.052c.591 0 .853.262.853.853v4.921c3.346-4.068 8.136-6.693 14.37-6.693 9.121 0 15.092 5.643 15.092 15.748v27.69c0 .591-.262.853-.853.853h-5.052c-.591 0-.853-.262-.853-.853v-26.64c0-7.021-3.609-10.367-9.843-10.367-7.283 0-12.795 5.249-12.795 15.748v21.325c0 .591-.262.853-.853.853h-5.052c-.591 0-.853-.262-.853-.853v-41.732h-.066z"/></g></svg>