<svg height="173" viewBox="0 0 500 173" width="500" xmlns="http://www.w3.org/2000/svg"><path d="m296.215909 53.7935606c12.630303-3.6522727 26.104546-3.1083333 38.4 1.5501515 12.294697 4.6584849 22.746212 13.1800758 29.785606 24.2850758l-24.174242 14.2727273c-3.898485-5.7984849-9.550758-10.1962122-16.129546-12.5492425s-13.737879-2.5378788-20.429545-.5272727c-6.691667 2.0106061-12.563637 6.1106061-16.756061 11.6992424-4.192424 5.589394-6.485606 12.3742426-6.542424 19.3613636-.057576 6.986364 2.123485 13.807576 6.224242 19.465152 4.1 5.657575 9.903788 9.85303 16.561364 11.972727 6.657576 2.120454 13.818939 2.052273 20.435606-.192424s12.340152-6.549243 16.333333-12.282576l24.348485 14.030303c-7.082575 11.077273-17.568182 19.557576-29.881818 24.167424-12.312879 4.609849-25.789394 5.100758-38.405303 1.398485s-23.690909-11.39697-31.560606-21.930303c-7.869697-10.532576-12.109848-23.334091-12.084208-36.481818.026632-13.1477275 4.316784-25.932576 12.228147-36.4338639 7.911364-10.5014394 19.015909-18.1528788 31.64697-21.8051515zm-85.943182-53.7935606v56.0757576h28.030303v28.0378788h-28.030303v46.7272726c.002273 3.716667 1.479546 7.280303 4.106818 9.908333 2.628031 2.627273 6.191667 4.104546 9.908334 4.106819h3.121212c2.112879.001515 4.199242-.475 6.101515-1.394697 1.90303-.919697 3.57197-2.258334 4.883333-3.915909l13.545455 22.984848c-6.084091 5.309849-13.567424 8.755303-21.557576 9.925758-7.989394 1.169697-16.14697.015151-23.498485-3.326516-7.350757-3.342424-13.584091-8.729545-17.954545-15.519697-4.371212-6.789393-6.694697-14.693939-6.69394-22.768939v-130.840909zm196.257576 0-.007576 66.6818182c7.834849-7.4661364 17.688637-12.4693182 28.339394-14.3895455 10.650758-1.9202272 21.631061-.673106 31.580303 3.586894 9.948485 4.2599242 18.429546 11.3453788 24.390152 20.3784091 5.961363 9.0333333 9.140909 19.6166666 9.144697 30.4393942v61.530303h-28.037879v-56.075758c0-8.675757-3.446212-16.996212-9.581061-23.1310605-6.134848-6.1348484-14.455303-9.5810606-23.13106-9.5810606-8.675758 0-16.996212 3.4462122-23.131061 9.5810606-6.134848 6.1348485-9.58106 14.4553035-9.58106 23.1310605v56.075758h-28.030304v-168.227273zm-242.969697 56.0757576v112.1515154h-28.030303v-112.1515154zm-109.8257575-56.0757576c8.8980303 0 17.7089394 1.75259848 25.9295454 5.15773485 8.2212122 3.40514394 15.6901516 8.39612875 21.9825761 14.68802275 6.291666 6.2918182 11.282575 13.7613636 14.687878 21.9821212 3.405304 8.2207576 5.157576 17.0316667 5.157576 25.929697 0 8.8977272-1.752272 17.7090909-5.157576 25.9295454-3.405303 8.2212118-8.396212 15.6901518-14.687878 21.9825758-6.2924245 6.291667-13.7613639 11.282576-21.9825761 14.687879-8.220606 3.405303-17.0315151 5.157576-25.9295454 5.157576h-25.7045455v32.712121h-28.030303v-168.227273zm0 28.030303h-25.7045455l.0075758 79.439394h25.6969697c10.5343182 0 20.637197-4.184849 28.0863636-11.6333334 7.4484849-7.4492424 11.6333334-17.5522727 11.6333334-28.0863636 0-10.5343182-4.1848485-20.637197-11.6333334-28.0860606-7.4491666-7.4488636-17.5520454-11.6336364-28.0863636-11.6336364zm95.8106065-28.030303c4.13106 0 8.092424 1.64101515 11.013636 4.5620303 2.921212 2.92102273 4.562121 6.8827424 4.562121 11.0137273 0 4.1309848-1.640909 8.0927272-4.562121 11.0137121-2.921212 2.9210606-6.882576 4.5620455-11.013636 4.5620455-4.131061 0-8.092425-1.6409849-11.013637-4.5620455-2.921212-2.9209849-4.562121-6.8827273-4.562121-11.0137121 0-4.1309849 1.640909-8.09270457 4.562121-11.0137273 2.921212-2.92101515 6.882576-4.5620303 11.013637-4.5620303z" fill="#2b2a35"/></svg>