<svg xmlns="http://www.w3.org/2000/svg" width="500" height="163" viewBox="0 0 500 163"><path fill="#383C43" d="M0 160.287v-151.316h57.637c41.532 0 60.815 18.412 60.815 50.58v.847c0 31.745-21.402 48.887-58.908 48.887h-16.316v51.003h-43.227zm43.227-80.631h12.502c13.985 0 21.402-6.561 21.402-19.047v-.847c0-12.909-7.628-18.2-21.19-18.2h-12.714v38.093zm92.092 80.631v-110.592h38.051v110.592h-38.051zm18.919-121.167c-11.904 0-20.832-8.247-20.832-19.454s8.928-19.666 20.832-19.666 21.045 8.458 21.045 19.666c0 11.207-9.141 19.454-21.045 19.454zm77.804 123.559c-24.891 0-38.813-12.069-38.813-38.114v-98.25h37.758v23.379h21.727v25.534h-21.727v45.737c0 8.046 4.008 11.646 11.18 11.646 4.219 0 6.785-.635 10.16-1.906v28.797c-4.852 1.27-11.426 3.176-20.285 3.176zm87.959 0c-32.959 0-58.101-19.232-58.101-56.429v-1.691c0-36.774 26.409-57.909 58.946-57.909 27.043 0 51.974 11.835 54.086 45.439h-35.494c-1.688-10.356-6.759-16.062-17.746-16.062-13.307 0-21.128 9.513-21.128 28.111v1.687c0 18.601 7.821 29.168 21.128 29.168 10.987 0 16.059-6.34 17.467-18.387h35.809c-1.056 27.898-19.262 46.073-54.967 46.073zm69.324-2.392v-151.316h37.952v58.566c5.937-11.409 18.022-20.705 36.467-20.705 21.414 0 36.255 13.31 36.255 41.621v71.834h-37.952v-64.228c0-12.465-4.876-18.592-15.902-18.592-11.237 0-18.87 6.761-18.87 20.916v61.904h-37.952z"/></svg>