<svg xmlns="http://www.w3.org/2000/svg" width="500" height="85" viewBox="0 0 500 85"><path fill-rule="evenodd" d="M452.399 42.325c0-12.411-.001-24.822.003-37.232 0-.501-.017-1.011.068-1.5.195-1.127 1.01-1.853 2.149-1.963.362-.035.73-.016 1.094-.016 13.461-.001 26.921 0 40.381 0l.274-.001c2.096-.197 3.106 1.187 3.064 3.079-.076 3.42-.011 6.844-.033 10.266-.003.537-.069 1.103-.25 1.603-.306.841-1.005 1.281-1.877 1.399-.449.061-.91.046-1.366.047-8.259.002-16.517.001-24.776.002-2.317 0-2.336.022-2.337 2.397-.001 3.833-.001 7.665 0 11.499 0 .365-.019.732.014 1.094.075.801.393 1.106 1.221 1.175.363.03.73.013 1.095.013h23.681c.365 0 .73-.009 1.095.004 1.588.056 2.503.891 2.516 2.445.033 3.832.031 7.666-.001 11.498-.012 1.433-.854 2.277-2.276 2.415-.452.044-.912.021-1.368.021-7.894.001-15.788-.001-23.681.001-2.243.001-2.296.056-2.297 2.309-.001 3.924-.001 7.848.001 11.772 0 .365-.01.732.03 1.093.063.57.41.912.973.979.406.048.819.034 1.23.034 8.487.002 16.974.051 25.46-.029 2.55-.024 3.435 1.082 3.371 3.315-.094 3.282-.023 6.57-.026 9.855-.001.41.011.826-.052 1.229-.156 1.001-.746 1.657-1.729 1.888-.482.114-.994.132-1.493.132-13.597.007-27.194-.013-40.791.023-2.253.006-3.407-.786-3.394-3.477.06-12.456.027-24.913.027-37.369m-50.965 40.798c-2.828 0-5.657.019-8.485-.008-1.505-.015-2.116-.521-2.566-1.967-.068-.218-.134-.436-.191-.656-1.097-4.189-2.192-8.378-3.288-12.567-5.432-20.77-10.863-41.539-16.295-62.307-.104-.397-.229-.79-.31-1.191-.311-1.544.58-2.695 2.165-2.806.227-.016.456-.007.684-.007h11.632c.228 0 .457-.009.684.006 1.215.079 1.823.539 2.131 1.745.44 1.722.825 3.458 1.231 5.189 3.776 16.108 7.552 32.217 11.328 48.326.062.266.123.533.197.796.231.82.51 1.066 1.189 1.06.672-.005.97-.246 1.171-1.087.655-2.749 1.288-5.503 1.926-8.256 3.502-15.096 7.002-30.192 10.504-45.289.072-.311.144-.622.233-.928.274-.938.918-1.44 1.876-1.541.316-.033.638-.021.957-.021 3.832-.001 7.664-.001 11.496 0 .319 0 .641-.017.957.019 1.322.148 2.12 1.115 2.007 2.451-.031.359-.139.714-.231 1.066-4.898 18.742-9.797 37.483-14.699 56.224-1.672 6.394-3.353 12.786-5.029 19.178-.058.22-.097.447-.166.663-.432 1.352-1.067 1.863-2.487 1.9-1.368.036-2.737.011-4.106.012h-4.516v-.003zm-50.919-40.691v36.958c0 .411.012.822-.005 1.232-.062 1.505-.849 2.341-2.356 2.502-.317.034-.638.029-.957.029-3.24.002-6.479.003-9.719-.002-.41-.001-.825-.001-1.228-.064-1.219-.19-1.948-.953-2.088-2.181-.046-.406-.028-.82-.028-1.231-.001-24.867-.001-49.734 0-74.602 0-.41-.017-.824.029-1.23.152-1.337 1.001-2.133 2.344-2.223.227-.015.456-.006.684-.006 3.422 0 6.844-.001 10.266 0 .274 0 .549-.014.821.012 1.238.119 2.106.973 2.218 2.205.041.453.017.912.017 1.368.001 12.411.001 24.821.001 37.232m-70.121 7.391c0-9.902.001-19.805-.001-29.707-.001-2.011-.091-2.104-2.071-2.106-4.061-.004-8.123-.001-12.184-.001-.365 0-.731.011-1.095-.005-1.716-.075-2.596-.939-2.688-2.633l-.003-.274c0-3.514-.003-7.028.005-10.541.001-.362.023-.734.106-1.084.254-1.066 1.022-1.735 2.11-1.847.407-.042.821-.022 1.231-.022 15.196-.001 30.392-.001 45.588-.001l.821.003c1.64.058 2.52.907 2.624 2.537.017.273.007.548.007.821v9.72c0 .228.007.456-.004.684-.083 1.693-.964 2.559-2.681 2.635-.319.014-.639.005-.958.005-4.062 0-8.123-.001-12.184.002-.41 0-.823-.003-1.23.035-.581.054-.909.4-.949.979-.031.454-.023.912-.023 1.368-.001 19.622-.001 39.245-.001 58.867 0 .456.017.914-.009 1.369-.087 1.506-.906 2.356-2.384 2.482-.272.023-.547.015-.821.015-3.331.001-6.662.001-9.994 0-.274 0-.549.008-.821-.015-1.477-.126-2.297-.979-2.381-2.485-.023-.409-.007-.821-.007-1.232v-29.57m-53.704-7.512c0-12.457.036-24.914-.031-37.371-.013-2.382 1.039-3.434 3.348-3.355 3.282.112 6.57.028 9.855.029.365 0 .733-.02 1.094.024 1.012.124 1.78.787 2.005 1.789.108.482.118.994.118 1.493.005 24.959.004 49.919.004 74.878 0 .228.007.457-.004.684-.08 1.719-.915 2.558-2.651 2.663-.228.014-.456.008-.685.008-3.24 0-6.479.004-9.719-.003-.454-.001-.917-.009-1.361-.091-1.141-.21-1.853-1.003-1.956-2.147-.037-.408-.016-.821-.016-1.232v-37.371m-70.407 10.736c1.825 0 3.65-.015 5.475.004 1.767.019 2.608.83 2.675 2.572.033.866.031 1.734.007 2.6-.169 6.111 3.841 8.926 7.766 9.783 2.873.627 5.723.538 8.493-.464 2.993-1.082 5.173-3.027 6.096-6.176.432-1.475.466-2.973.13-4.466-.368-1.632-1.282-2.948-2.681-3.827-1.15-.722-2.368-1.409-3.647-1.838-2.242-.751-4.543-1.339-6.841-1.914-4.036-1.009-7.998-2.216-11.711-4.124-1.174-.603-2.328-1.263-3.424-1.998-5.641-3.783-8.927-8.992-9.511-15.829-.645-7.539 1.614-14.044 6.962-19.414 3.398-3.413 7.517-5.607 12.186-6.719 7.319-1.743 14.444-1.168 21.145 2.351 7.305 3.835 11.665 9.902 12.86 18.113.235 1.615.199 3.278.18 4.917-.018 1.49-.93 2.331-2.416 2.416l-.547.005c-3.513 0-7.027-.06-10.539.025-1.788.043-3.102-.97-2.988-3.032.02-.364.003-.73.001-1.095-.022-3.386-1.625-5.819-4.554-7.396-2.108-1.135-4.409-1.436-6.768-1.275-1.506.102-2.992.369-4.374 1.019-2.949 1.388-4.577 3.66-4.632 6.98-.029 1.739.607 3.203 1.776 4.455 1.014 1.085 2.258 1.838 3.597 2.447 1.798.817 3.706 1.256 5.629 1.653 4.026.831 7.975 1.927 11.761 3.554 2.779 1.194 5.398 2.661 7.739 4.592 4.307 3.553 6.861 8.094 7.655 13.622.564 3.932.431 7.833-.694 11.656-1.78 6.053-5.455 10.666-10.845 13.901-8.65 5.193-20.937 5.735-29.983 1.258-7.25-3.588-11.933-9.297-13.762-17.24-.661-2.872-.624-5.8-.537-8.718.047-1.58.951-2.373 2.57-2.394 1.916-.025 3.832-.006 5.748-.006m-45.951 5.22c-.564 5.486-4.16 9.099-9.677 9.57-1.918.164-3.826.092-5.689-.481-4.016-1.234-6.422-3.955-7.027-8.068-.45-3.06-.644-6.165-.816-9.257-.283-5.101-.283-10.211 0-15.313.166-3.001.394-6.006.768-8.988.585-4.675 3.702-7.837 8.391-8.667 2.319-.41 4.637-.343 6.906.335 4.062 1.213 6.632 4.411 7.111 8.79.591 5.399.878 10.813.845 15.905.019 5.632-.271 10.907-.812 16.174m16.703-29.903c-.325-3.743-.989-7.414-2.448-10.902-2.971-7.102-7.828-12.366-15.062-15.23-4.272-1.692-8.73-2.19-13.305-1.764-7.401.689-13.544 3.785-18.299 9.528-2.963 3.579-4.86 7.696-5.923 12.202-.905 3.837-1.126 7.762-1.338 11.677-.426 7.894-.282 15.782.519 23.652.301 2.96.859 5.866 1.908 8.66 2.792 7.444 7.611 13.029 15.034 16.136 4.827 2.02 9.879 2.477 15.042 1.792 6.963-.923 12.708-4.074 17.136-9.538 3.754-4.631 5.773-10 6.473-15.877.643-5.397.902-10.819.861-16.552.061-4.408-.192-9.1-.598-13.784m-90.948-2.007c-.125 4.147-3.52 7.666-7.697 7.794-3.507.108-7.02.044-10.53.025-1.139-.006-1.43-.325-1.441-1.505-.021-2.234-.006-4.467-.006-6.701 0-2.143-.015-4.286.006-6.428.012-1.258.269-1.519 1.547-1.525 3.465-.015 6.932-.074 10.393.025 4.365.125 7.86 3.956 7.729 8.315m13.851-10.925c-4.464-8.85-11.871-13.569-21.831-13.788-8.346-.183-16.699-.04-25.049-.041-.228 0-.457-.007-.684.01-1.318.102-2.2.932-2.344 2.24-.05.451-.024.912-.024 1.368-.001 12.366-.001 24.731-.001 37.097 0 12.365 0 24.731.001 37.096 0 .456-.023.915.016 1.368.115 1.345.932 2.18 2.259 2.319.362.038.729.023 1.094.023 3.24.002 6.481-.068 9.718.024 2.374.068 3.361-.987 3.344-3.368-.066-8.989-.027-17.978-.025-26.967 0-.41-.007-.823.028-1.231.05-.577.384-.917.963-.971.408-.038.82-.041 1.23-.041 3.011-.003 6.024.042 9.034-.02 1.545-.032 3.104-.145 4.625-.408 15.914-2.747 24.917-20.299 17.647-34.712"/></svg>