<svg height="206" viewBox="0 0 500 206" width="500" xmlns="http://www.w3.org/2000/svg"><path d="m19.1802186 77.0308123v-20.9006679h13.1012422c9.3630211 0 16.6298434-2.4599584 21.800467-7.3798751 5.1706236-4.9199166 7.7559354-11.8329383 7.7559354-20.7390648 0-8.4033614-2.5853118-14.9213532-7.7559354-19.55397545-5.1706236-4.63262228-12.4374459-6.94893342-21.800467-6.94893342h-32.2814608v75.52251667zm12.1579528-36.6300366h-12.1579528v-23.1631114h12.1579528c3.9129043 0 6.9349242.9875745 9.0660596 2.9627235 2.1311354 1.9751491 3.1967031 4.7942254 3.1967031 8.4572291 0 3.8066509-1.0655677 6.7155067-3.1967031 8.7265675-2.1311354 2.0110609-5.1531553 3.0165913-9.0660596 3.0165913zm74.9391056 38.0305968c7.476442 0 14.236683-1.7237664 20.280723-5.1712992 6.044039-3.4475329 10.795423-8.1519788 14.254151-14.1133377s5.188092-12.6409538 5.188092-20.0387847c0-7.3260074-1.729364-13.9337787-5.188092-19.823314s-8.210112-10.52215755-14.254151-13.89786681c-6.04404-3.37570926-12.804281-5.06356388-20.280723-5.06356388-7.4764424 0-14.2366834 1.68785462-20.2807232 5.06356388-6.0440397 3.37570926-10.7954235 8.00833151-14.2541515 13.89786681-3.4587279 5.8895353-5.1880919 12.4973066-5.1880919 19.823314 0 7.3978309 1.729364 14.0953817 5.1880919 20.0926524 3.458728 5.9972707 8.2101118 10.7017166 14.2541515 14.1133377 6.0440398 3.411621 12.8042808 5.1174315 20.2807232 5.1174315zm.20962-16.8067226c-3.633412 0-6.9873295-.9875746-10.0617544-2.9627236-3.0744248-1.975149-5.5374583-4.6685341-7.3891006-8.0801551-1.8516422-3.4116211-2.7774633-7.2003161-2.7774633-11.3660849 0-4.0939453.9083528-7.8467285 2.7250584-11.2583495 1.8167056-3.4116211 4.2797391-6.0870502 7.3891006-8.0262875 3.1093615-1.9392372 6.4807473-2.9088558 10.1141593-2.9088558 3.633411 0 6.969861.9696186 10.009349 2.9088558 3.039488 1.9392373 5.432648 4.6146664 7.17948 8.0262875 1.746833 3.411621 2.620249 7.1644042 2.620249 11.2583495 0 4.1657688-.873416 7.9544638-2.620249 11.3660849-1.746832 3.411621-4.139992 6.1050061-7.17948 8.0801551s-6.375938 2.9627236-10.009349 2.9627236zm77.454544 16.5912518c5.51999 0 10.533398-.897795 15.040226-2.693385 4.506827-1.79559 8.052897-4.4710192 10.638208-8.0262874 2.585312-3.5552683 3.877968-7.8467285 3.877968-12.8743806 0-5.027652-1.187846-9.1036414-3.563538-12.2279681-2.375692-3.1243266-5.223028-5.4406378-8.54201-6.9489334-3.318981-1.5082956-7.528847-3.0165912-12.629597-4.5248869-3.423792-1.077354-6.009103-1.9571931-7.755936-2.6395173-1.746832-.6823242-3.214171-1.5801192-4.402017-2.6933851-1.187846-1.1132658-1.781769-2.4958701-1.781769-4.1478129 0-1.7237665.681265-3.0345472 2.043794-3.9323422s3.23164-1.3466925 5.607331-1.3466925c3.004552 0 6.725305.7541478 11.162259 2.2624434s8.611883 3.4475329 12.524787 5.8177117l7.231886-15.72936865c-3.912904-2.58564965-8.454668-4.65057818-13.625292-6.19478561-5.170623-1.54420743-10.41112-2.31631114-15.72149-2.31631114-5.869357 0-11.022512.95166272-15.459466 2.85498815s-7.860746 4.61466638-10.271374 8.13402285c-2.410629 3.5193564-3.615943 7.6133017-3.615943 12.2818358 0 4.9558285 1.170378 8.9240825 3.511133 11.9047619 2.340755 2.9806795 5.153155 5.2072111 8.4372 6.6795949s7.441505 2.9268118 12.472382 4.3632838c3.353918.9337068 5.956699 1.7417223 7.808341 2.4240465s3.388854 1.5980752 4.611637 2.7472528 1.834174 2.5856496 1.834174 4.3094161c0 2.0828844-.821011 3.6630036-2.463034 4.7403576-1.642022 1.0773541-3.895436 1.6160311-6.760241 1.6160311-3.912904 0-8.402263-1.0773541-13.468077-3.2320621-5.065813-2.154708-9.450362-4.9199167-13.153647-8.2956259l-7.441505 15.4061624c4.402017 3.8066509 9.625046 6.8052863 15.669085 8.9959061 6.04404 2.1906198 12.105548 3.2859297 18.184525 3.2859297zm58.483945-1.1850894v-75.52251667h-19.180219v75.52251667zm48.841431 0v-59.254471h22.010087v-16.26804567h-62.990773v16.26804567h21.800467v59.254471zm48.946241 0v-75.52251667h-19.180219v75.52251667zm55.339647 0 28.717923-75.52251667h-19.704269l-18.446549 54.62184877-18.341739-54.62184877h-20.647557l28.508303 75.52251667zm94.643373 0v-15.7293686h-39.827776v-14.2210731l35.006519-.1077354v-15.6216333h-35.006519v-14.1133376h38.779677v-15.72936867h-57.959895v75.52251667zm-471.1017541 127.5330827v-25.65923h32.7629382v-14.807302h-32.7629382v-15.821501h35.475793l.1043405-14.807302h-54.6744574v71.095335zm79.0901502 1.318458c7.4429609 0 14.1729269-1.622718 20.1898999-4.868154s10.747078-7.674104 14.190317-13.286004 5.164858-11.899933 5.164858-18.864098c0-6.896551-1.721619-13.116971-5.164858-18.661257-3.443239-5.544287-8.173344-9.905342-14.190317-13.083165-6.016973-3.177822-12.746939-4.766734-20.1898999-4.766734-7.4429605 0-14.1729271 1.588912-20.1898998 4.766734-6.0169727 3.177823-10.7470785 7.538878-14.1903172 13.083165-3.4432387 5.544286-5.1648581 11.764706-5.1648581 18.661257 0 6.964165 1.7216194 13.269101 5.1648581 18.914808 3.4432387 5.645706 8.1733445 10.074374 14.1903172 13.286004 6.0169727 3.211629 12.7469393 4.817444 20.1898998 4.817444zm.2086812-15.821501c-3.6171397 0-6.9560379-.929682-10.0166945-2.789047-3.0606567-1.859364-5.51266-4.394861-7.35601-7.606491-1.8433501-3.211629-2.7650251-6.778228-2.7650251-10.699797 0-3.853955.9042849-7.386748 2.7128548-10.598377 1.8085698-3.21163 4.2605731-5.730223 7.35601-7.555781 3.0954368-1.825558 6.4517251-2.738337 10.0688648-2.738337s6.9386477.912779 9.9645237 2.738337c3.025877 1.825558 5.40832 4.344151 7.147329 7.555781 1.73901 3.211629 2.608515 6.744422 2.608515 10.598377 0 3.921569-.869505 7.488168-2.608515 10.699797-1.739009 3.21163-4.121452 5.747127-7.147329 7.606491-3.025876 1.859365-6.347384 2.789047-9.9645237 2.789047zm82.4290487 15.821501c7.44296 0 14.172927-1.622718 20.1899-4.868154 6.016972-3.245436 10.747078-7.674104 14.190317-13.286004 3.443238-5.6119 5.164858-11.899933 5.164858-18.864098 0-6.896551-1.72162-13.116971-5.164858-18.661257-3.443239-5.544287-8.173345-9.905342-14.190317-13.083165-6.016973-3.177822-12.74694-4.766734-20.1899-4.766734-7.442961 0-14.172927 1.588912-20.1899 4.766734-6.016973 3.177823-10.747079 7.538878-14.190317 13.083165-3.443239 5.544286-5.164858 11.764706-5.164858 18.661257 0 6.964165 1.721619 13.269101 5.164858 18.914808 3.443238 5.645706 8.173344 10.074374 14.190317 13.286004 6.016973 3.211629 12.746939 4.817444 20.1899 4.817444zm.208681-15.821501c-3.61714 0-6.956038-.929682-10.016695-2.789047-3.060656-1.859364-5.51266-4.394861-7.35601-7.606491-1.84335-3.211629-2.765025-6.778228-2.765025-10.699797 0-3.853955.904285-7.386748 2.712855-10.598377 1.80857-3.21163 4.260573-5.730223 7.35601-7.555781s6.451725-2.738337 10.068865-2.738337c3.617139 0 6.938648.912779 9.964524 2.738337s5.408319 4.344151 7.147329 7.555781c1.739009 3.211629 2.608514 6.744422 2.608514 10.598377 0 3.921569-.869505 7.488168-2.608514 10.699797-1.73901 3.21163-4.121453 5.747127-7.147329 7.606491-3.025876 1.859365-6.347385 2.789047-9.964524 2.789047zm79.611853 14.503043c7.790762 0 14.69463-1.487492 20.711603-4.462475 6.016972-2.974983 10.677518-7.167005 13.981636-12.576065s4.956177-11.595673 4.956177-18.559838-1.634669-13.133874-4.904007-18.509128c-3.269338-5.375253-7.842933-9.550371-13.720785-12.525355-5.877852-2.974983-12.642599-4.462474-20.29424-4.462474h-31.510852v71.095335zm1.252087-15.010142h-12.938231v-40.973631h11.999166c3.82582 0 7.234279.862069 10.225375 2.586207s5.338759 4.141311 7.042989 7.251521c1.704229 3.110209 2.556343 6.693712 2.556343 10.750507 0 3.989182-.799944 7.538878-2.399833 10.649087-1.599888 3.11021-3.82582 5.51048-6.677796 7.200812-2.851975 1.690331-6.121313 2.535497-9.808013 2.535497zm104.75793 16.3286c5.356149 0 10.764468-1.200135 16.224958-3.600406 5.46049-2.40027 10.173205-5.628803 14.138147-9.685598l-11.164441-11.663286c-2.573734 2.569303-5.49527 4.597701-8.764608 6.085193-3.269337 1.487491-6.399554 2.231237-9.390651 2.231237-3.6867 0-7.042988-.895876-10.068865-2.687627-3.025876-1.791751-5.408319-4.259635-7.147328-7.403651-1.73901-3.144016-2.608515-6.643002-2.608515-10.496957 0-3.853956.869505-7.352942 2.608515-10.496958 1.739009-3.144016 4.121452-5.6119 7.147328-7.403651 3.025877-1.791751 6.382165-2.687627 10.068865-2.687627 3.199778 0 6.434335.862069 9.703673 2.586207s6.086533 4.039892 8.451586 6.947262l11.0601-12.981745c-3.6867-3.786342-8.173344-6.778228-13.459933-8.975659-5.286589-2.19743-10.642738-3.296146-16.068447-3.296146-7.373401 0-14.033807 1.588912-19.981219 4.766734-5.947412 3.177823-10.625348 7.538878-14.033806 13.083165-3.408459 5.544286-5.112688 11.764706-5.112688 18.661257 0 6.964165 1.669449 13.252198 5.008347 18.864098s7.929883 10.040568 13.772955 13.286004 12.381747 4.868154 19.616027 4.868154zm72.099332 0c7.44296 0 14.172927-1.622718 20.1899-4.868154 6.016972-3.245436 10.747078-7.674104 14.190317-13.286004s5.164858-11.899933 5.164858-18.864098c0-6.896551-1.721619-13.116971-5.164858-18.661257-3.443239-5.544287-8.173345-9.905342-14.190317-13.083165-6.016973-3.177822-12.74694-4.766734-20.1899-4.766734-7.442961 0-14.172927 1.588912-20.1899 4.766734-6.016973 3.177823-10.747078 7.538878-14.190317 13.083165-3.443239 5.544286-5.164858 11.764706-5.164858 18.661257 0 6.964165 1.721619 13.269101 5.164858 18.914808 3.443239 5.645706 8.173344 10.074374 14.190317 13.286004 6.016973 3.211629 12.746939 4.817444 20.1899 4.817444zm.208681-15.821501c-3.61714 0-6.956038-.929682-10.016695-2.789047-3.060656-1.859364-5.51266-4.394861-7.35601-7.606491-1.84335-3.211629-2.765025-6.778228-2.765025-10.699797 0-3.853955.904285-7.386748 2.712855-10.598377 1.80857-3.21163 4.260573-5.730223 7.35601-7.555781s6.451725-2.738337 10.068865-2.738337 6.938648.912779 9.964524 2.738337c3.025877 1.825558 5.40832 4.344151 7.147329 7.555781 1.739009 3.211629 2.608514 6.744422 2.608514 10.598377 0 3.921569-.869505 7.488168-2.608514 10.699797-1.739009 3.21163-4.121452 5.747127-7.147329 7.606491-3.025876 1.859365-6.347384 2.789047-9.964524 2.789047zm52.065943 15.314402c2.643295 0 4.799666-.828263 6.469115-2.484787 1.669449-1.656525 2.504174-3.769439 2.504174-6.338743 0-2.569303-.834725-4.665314-2.504174-6.288032s-3.82582-2.434077-6.469115-2.434077c-2.643294 0-4.782276.811359-6.416945 2.434077s-2.452003 3.718729-2.452003 6.288032c0 2.569304.834724 4.682218 2.504174 6.338743 1.669449 1.656524 3.79104 2.484787 6.364774 2.484787z"/></svg>