<svg height="84" viewBox="0 0 501 84" width="501" xmlns="http://www.w3.org/2000/svg"><g fill="none"><path d="m151.5625 36.1979167c-1.822917-1.3020834-3.125-2.34375-4.6875-3.125-8.854167-4.9479167-21.09375-2.8645834-27.864583 5.2083333-6.510417 7.5520833-8.072917 16.40625-5.729167 25.78125s8.072917 15.8854167 17.708333 18.2291667c7.291667 1.8229166 14.0625.5208333 19.53125-4.6875 0 0 .260417-.2604167.78125-.2604167v4.6875h15.104167c0-27.0833333 0-53.90625 0-80.72916667-4.947917 0-9.895833 0-15.104167 0 .260417 11.45833337.260417 22.91666667.260417 34.89583337zm-6.25 32.2916666c-6.510417 3.3854167-14.322917.2604167-16.666667-6.5104166-1.822916-4.9479167-1.302083-9.6354167 1.822917-13.8020834 2.604167-3.6458333 6.510417-5.2083333 10.9375-4.6875 4.6875.5208334 7.8125 3.125 9.635417 7.5520834.78125 1.8229166 1.041666 3.90625 1.041666 6.25-.260416 4.4270833-1.822916 8.8541666-6.770833 11.1979166zm-58.0729167-36.71875v4.4270834c-1.5625-1.0416667-3.125-2.34375-4.6875-3.125-8.8541666-4.9479167-20.8333333-2.6041667-27.6041666 5.2083333-7.03125 8.3333333-8.3333334 17.96875-5.2083334 28.125 3.125 9.375 11.9791667 17.4479167 24.21875 16.40625 4.4270834-.2604167 8.59375-1.8229167 11.9791667-4.9479167.2604167-.2604166.78125-.5208333 1.3020833-1.0416666v4.6875h15.1041667c.520833-4.1666667.260417-48.9583334-.260417-50-4.6874997.2604166-9.6354163.2604166-14.8437497.2604166zm-1.5625 32.8125c-2.6041666 3.90625-6.5104166 5.7291667-11.1979166 5.2083334-4.9479167-.5208334-8.0729167-3.125-9.8958334-7.5520834-.78125-1.8229166-1.3020833-3.90625-1.3020833-5.46875 0-3.3854166 1.3020833-6.5104166 3.3854167-9.1145833 4.6875-5.46875 13.5416666-5.46875 18.2291666.2604167 3.6458334 4.4270833 3.90625 11.71875.78125 16.6666666zm235.6770837-63.54166663c-2.083334-.52083334-31.770834-.26041667-33.072917 0-.260417 2.34375-.260417 10.41666663.260417 11.97916663h17.447916v56.5104167c-5.989583 0-11.71875 0-17.708333 0-.520833 2.0833333-.260417 10.9375 0 11.9791667h50.78125c0-4.1666667 0-8.0729167 0-11.9791667-5.989583 0-11.71875 0-17.96875 0 .260417-22.9166667.260417-45.8333333.260417-68.48958333zm48.958333 59.37500003h7.291667 7.291666 7.291667c.260417-3.6458334 0-6.7708334-.78125-10.15625-1.302083-5.46875-3.645833-10.4166667-7.8125-14.0625-4.947917-4.4270834-10.677083-5.9895834-17.1875-5.9895834-10.677083.2604167-20.052083 7.03125-23.697917 16.9270834-2.083333 5.7291666-2.083333 11.4583333-.520833 17.4479166 2.083333 7.8125 6.770833 13.28125 14.322917 16.1458334 6.770833 2.6041666 13.802083 2.8645833 20.572916.2604166 5.729167-2.0833333 10.15625-5.9895833 12.760417-11.4583333.520833-1.3020833 1.041667-2.6041667 1.5625-4.1666667-4.6875 0-9.114583 0-13.541667 0-.78125 1.8229167-2.083333 3.3854167-3.90625 3.90625-4.6875 1.8229167-9.375 1.8229167-13.802083-1.0416666-2.864583-1.8229167-4.427083-4.6875-4.6875-8.3333334h7.552083c2.34375.5208334 4.6875.5208334 7.291667.5208334zm-9.375-15.8854167c3.90625-2.34375 7.8125-2.6041667 11.979167-.5208333 2.604166 1.3020833 3.90625 3.3854166 4.6875 6.25v.78125c-7.291667 0-14.322917 0-21.614584 0 .78125-2.8645834 2.604167-4.9479167 4.947917-6.5104167zm-93.489583 21.875c-4.166667 4.6875-11.979167 4.4270833-16.145834-.5208333-3.385416-3.90625-3.90625-8.59375-2.604166-13.5416667 1.041666-3.6458333 3.125-6.25 6.510416-7.8125 6.25-2.6041667 12.239584 0 14.322917 5.2083333 0 .2604167.260417.2604167.260417.5208334h15.104166c0-.2604167 0-.5208334 0-.78125 0-.2604167 0-.5208334-.260416-.78125-1.041667-3.90625-2.864584-7.2916667-5.46875-10.4166667-8.59375-8.8541667-22.135417-10.9375-33.072917-4.6875-14.322917 8.59375-17.708333 28.125-6.510417 40.3645833 8.072917 9.1145834 21.875 11.71875 32.8125 5.9895834 6.510417-3.3854167 10.677084-8.3333334 12.5-15.625 0-.5208334 0-1.0416667.260417-1.5625-5.208333 0-10.15625 0-15.104167 0-1.041666 1.3020833-1.5625 2.6041666-2.604166 3.6458333zm-55.208334 3.125c0-.78125 0-1.5625 0-2.0833333 0-11.1979167 0-22.3958334 0-33.59375 0-.78125 0-1.3020834 0-2.0833334-11.197916 0-22.135416 0-33.072916 0v11.9791667h17.708333c.520833 2.34375.260417 24.4791667 0 25.78125-1.822917 0-3.90625 0-5.989583 0-1.822917 0-3.90625 0-5.729167 0-2.083333 0-3.90625 0-5.729167 0-.260416 2.8645833-.260416 10.6770833.260417 11.9791667h50.78125c.260417-2.34375.260417-10.9375-.260417-12.2395834-6.25.2604167-11.979166.2604167-17.96875.2604167zm-212.239583 11.9791667c2.08333333.2604166 13.8020833.2604166 15.1041667-.2604167 0-12.5 0-25 0-37.7604167h8.59375 8.59375 8.3333333c0-4.1666666 0-8.0729166 0-11.9791666-13.5416667 0-27.0833333 0-40.625 0zm203.125-61.71875c5.729167 0 9.895833-4.4270834 9.895833-9.89583337 0-5.46875-4.427083-9.89583333-10.15625-9.89583333-5.46875 0-9.895833 4.42708333-9.895833 9.89583333 0 5.46874997 4.427083 9.89583337 10.15625 9.89583337z" fill="#000"/><g fill="#5f5" transform="translate(416.667)"><path d="m75.521 0h-2.604-2.604-2.605v2.604 2.604h2.605 2.604 2.604 2.604v-2.604-2.604z"/><path d="m62.5 5.208h-2.604-2.604-2.604-2.605v2.605 2.604h-2.604-2.604v2.604 2.604 2.604 2.604h2.604 2.604v-2.604-2.604h2.605 2.604v-2.604-2.604h2.604 2.604 2.604 2.604v-2.604-2.605h-2.604z"/><path d="m67.708 15.625h2.605 2.604v-2.604-2.604h-2.604-2.605v2.604z"/><path d="m62.5 15.625v2.604 2.604h2.604 2.604v-2.604-2.604h-2.604z"/><path d="m15.625 20.833h2.604 2.604v-2.604-2.604h-2.604-2.604-2.604-2.604-2.604-2.605-2.604-2.604v2.604 2.604h2.604 2.604 2.605 2.604v2.605 2.604h2.604 2.604v-2.604z"/><path d="m26.042 20.833h-2.604-2.605v2.605 2.604h2.605 2.604v-2.604z"/><path d="m41.667 20.833v2.605 2.604h2.604 2.604v-2.604-2.605h-2.604z"/><path d="m57.292 20.833v2.605 2.604h2.604 2.604v-2.604-2.605h-2.604z"/><path d="m15.625 26.042v2.604 2.604h2.604 2.604v-2.604-2.604h-2.604z"/><path d="m31.25 26.042h-2.604-2.604v2.604 2.604h2.604 2.604v-2.604z"/><path d="m31.25 31.25v2.604 2.604 2.605 2.604h2.604 2.604v-2.604-2.605-2.604-2.604h-2.604z"/><path d="m41.667 72.917v2.604 2.604h2.604 2.604v-2.604-2.604h-2.604z"/></g><g fill="#00b81e" transform="translate(421.875)"><path d="m62.5 0h-2.604-2.604v2.604 2.604h2.604 2.604v-2.604z"/><path d="m75.521 0h-2.604v2.604 2.604h2.604 2.604v-2.604-2.604z"/><path d="m67.708 5.208h-2.604-2.604v2.605 2.604h2.604 2.604 2.605 2.604v-2.604-2.605h-2.604z"/><path d="m57.292 10.417h-2.604-2.605v2.604 2.604h-2.604-2.604v2.604 2.604h-2.604-2.604v2.605 2.604h-2.604-2.605v2.604 2.604 2.604 2.604h2.605 2.604v-2.604-2.604h2.604 2.604 2.604 2.604v-2.604-2.604-2.604-2.605h2.605 2.604v-2.604-2.604h2.604 2.604v-2.604-2.604h-2.604z"/><path d="m62.5 20.833h2.604 2.604v-2.604-2.604h-2.604-2.604v2.604z"/><path d="m5.208 20.833h-2.604-2.604v2.605 2.604h2.604 2.604v-2.604z"/><path d="m57.292 20.833v2.605 2.604h2.604 2.604v-2.604-2.605h-2.604z"/><path d="m15.625 26.042v-2.604-2.605h-2.604-2.604v2.605 2.604h2.604z"/><path d="m10.417 26.042h-2.604-2.605v2.604 2.604h2.605 2.604v-2.604z"/><path d="m20.833 31.25v-2.604-2.604h-2.604-2.604v2.604 2.604h-2.604-2.604v2.604 2.604h2.604 2.604v2.605 2.604h2.604 2.604 2.605 2.604v-2.604-2.605-2.604-2.604h-2.604z"/><path d="m31.25 36.458v2.605 2.604 2.604 2.604h2.604 2.604v2.604 2.604h2.605 2.604v-2.604-2.604-2.604-2.604h-2.604-2.605v-2.604-2.605h-2.604z"/><path d="m41.667 57.292v2.604 2.604 2.604 2.604 2.605 2.604 2.604 2.604h-2.604-2.605v2.604 2.604h2.605 2.604 2.604 2.604v-2.604-2.604-2.604-2.604-2.604-2.605-2.604-2.604-2.604-2.604-2.604-2.605h-2.604-2.604v2.605z"/></g></g></svg>