<svg height="73" viewBox="0 0 500 73" width="500" xmlns="http://www.w3.org/2000/svg"><path d="m61.605 23.517 25.527 18.547-9.75 30.008h-31.553l-9.751-30.008z"/><circle cx="18.916" cy="34.254" r="18.916"/><path d="m111.452 0 24.351 14.059v28.119l-24.351 14.059-24.351-14.059v-28.119z"/><path d="m197.342005 46.8040391c1.171913.2451008 2.251238.7509193 3.23799 1.5174608 1.450578 1.1268563 2.601018 2.8683355 3.451357 5.2244894l6.602595 17.5174054h-10.20401l-6.752654-18.2088819c-.700279-1.7927259-1.688158-2.9963953-2.963665-3.6110441-1.275508-.6146489-2.863616-.9219688-4.764373-.9219688h-9.753833v22.7418948h-9.528745v-54.7034765h22.883994c6.052409 0 10.654171 1.3573292 13.805425 4.0720284 3.151254 2.7146993 4.726858 6.6074171 4.726858 11.6782703 0 4.8147496-1.625622 8.6434424-4.876916 11.4861935-1.632942 1.4277528-3.58761 2.4969606-5.864023 3.2076287zm-20.961637-5.9042436h12.224382c3.745792 0 6.479167-.6848269 8.200207-2.0545014 1.721039-1.3696744 2.581546-3.4241552 2.581546-6.163504 0-2.7900775-.860507-4.8445584-2.581546-6.1635041-1.72104-1.3189457-4.454415-1.9784087-8.200207-1.9784087h-12.224382zm69.484543-2.4126692v-5.8023469h9.247563v38.3581654h-9.247563v-6.112203c-.921371 1.7754903-2.237075 3.2178886-3.947132 4.3272188-2.380821 1.5444622-5.175111 2.3166815-8.382954 2.3166815-3.308088 0-6.240214-.7975378-8.796464-2.392638s-4.52353-3.8737802-5.9019-6.8361089c-1.37837-2.9623282-2.067545-6.4436452-2.067545-10.4440547 0-4.0510476.701705-7.5830018 2.105137-10.5959685 1.403431-3.0129666 3.370712-5.3676027 5.9019-7.0639789 2.531189-1.6963762 5.450784-2.5445516 8.758872-2.5445516 3.207843 0 6.002133.7975381 8.382954 2.3926381 1.710057 1.1457017 3.025761 2.6114091 3.947132 4.3971467zm-10.321745 25.4188042c3.133594 0 5.559565-1.0847812 7.277987-3.2543758s2.57762-5.2473456 2.57762-9.2333451c0-4.0869108-.859198-7.2025029-2.57762-9.3468697s-4.144393-3.2165342-7.277987-3.2165342c-3.184135 0-5.660647 1.1100086-7.429611 3.3300589-1.768963 2.2200504-2.653432 5.3482562-2.653432 9.3847116 0 3.9355434.884469 6.9754535 2.653432 9.11982 1.768964 2.1443671 4.245476 3.2165343 7.429611 3.2165343zm38.201012-24.6293666c.788479-2.1112966 2.006392-3.7859449 3.653757-5.023974 2.266748-1.7035074 4.829119-2.5552484 7.687191-2.5552484.739156 0 1.429025.0501024 2.069628.1503088.640602.1002062 1.207281.2505135 1.700052.4509261l-.147831 8.5675974c-1.52759-.6513411-3.15371-.9770067-4.878409-.9770067-2.21747 0-4.028377.4509217-5.432774 1.3527785-1.404398.9018569-2.46384 2.1168403-3.178358 3.6449867-.714518 1.5281463-1.071771 3.2441537-1.071771 5.1480738v20.5171411h-9.239412v-27.2058794c0-1.7536106-.036958-3.5447716-.110873-5.373537-.073916-1.8287653-.234064-3.6199264-.48045-5.3735369h8.722005zm27.891814 8.2694484h17.89366c-.25032-2.5824336-.939107-4.636302-2.06637-6.1616431-1.498162-2.0272174-3.669194-3.0408109-6.513162-3.0408109-3.047108 0-5.408582 1.1336243-7.084491 3.4009069-1.112395 1.5049215-1.855604 3.4387611-2.229637 5.8015471zm-.071975 4.811569c.1711 3.8671493 1.088951 6.7661416 2.753571 8.6970491 1.855326 2.1521191 4.663343 3.2281625 8.424137 3.2281625 2.055901 0 4.074164-.3418021 6.054849-1.0254161 1.980685-.6836145 3.823446-1.683702 5.52834-3.0002924l2.707758 6.5322817c-1.805181 1.5191426-4.024017 2.6964611-6.656573 3.5319892-2.632556.8355286-5.302679 1.2532868-8.010451 1.2532868-4.111802 0-7.659431-.7848788-10.642995-2.3546595-2.983563-1.5697812-5.277613-3.8484611-6.882219-6.8361089-1.604605-2.9876477-2.406896-6.5322612-2.406896-10.6339468 0-3.9497714.777219-7.4310882 2.331681-10.4440549 1.554461-3.0129666 3.710617-5.3676027 6.468534-7.0639789 2.757915-1.6963762 5.942007-2.5445516 9.552369-2.5445516 3.510075 0 6.518665.7722194 9.025861 2.3166813s4.450244 3.7598453 5.829202 6.6462168c1.378958 2.8863714 2.068426 6.3043915 2.068426 10.254163v1.4431787zm42.770604-13.6891541c.898096-1.7636821 2.210923-3.2332257 3.938499-4.4086557 2.37321-1.6147151 5.175575-2.4220606 8.40718-2.4220606 3.383087 0 6.336931.8073455 8.861622 2.4220606s4.519168 3.9106038 5.983489 6.8877347c1.464321 2.977131 2.19647 6.4588083 2.19647 10.4451364 0 3.9863277-.732149 7.4932347-2.19647 10.5208252-1.464321 3.027591-3.471421 5.3613241-6.021359 7.0012689-2.549938 1.6399453-5.491159 2.4599054-8.823752 2.4599054-3.231605 0-6.03397-.769501-8.40718-2.3085266-1.727576-1.1203318-3.040403-2.5815705-3.938499-4.3837413v6.1624423h-9.467545v-55.7073932h9.467545zm10.253678 25.2375033c3.157605 0 5.602166-1.1100087 7.333756-3.3300588 1.73159-2.2200506 2.597372-5.3482562 2.597372-9.3847117 0-3.9355436-.865782-6.9754533-2.597372-9.1198201s-4.176151-3.2165342-7.333756-3.2165342c-3.259464 0-5.742221 1.0847811-7.448347 3.2543757-1.706125 2.1695947-2.559175 5.2473456-2.559175 9.2333452 0 4.036455.85305 7.1394335 2.559175 9.3090281 1.706126 2.1695946 4.188883 3.2543758 7.448347 3.2543758zm54.875794-25.4188042v-5.8023469h9.247563v38.3581654h-9.247563v-6.112203c-.921371 1.7754903-2.237075 3.2178886-3.947132 4.3272188-2.380821 1.5444622-5.175111 2.3166815-8.382954 2.3166815-3.308088 0-6.240214-.7975378-8.796464-2.392638s-4.52353-3.8737802-5.9019-6.8361089c-1.37837-2.9623282-2.067545-6.4436452-2.067545-10.4440547 0-4.0510476.701705-7.5830018 2.105137-10.5959685 1.403431-3.0129666 3.370712-5.3676027 5.9019-7.0639789 2.531189-1.6963762 5.450784-2.5445516 8.758872-2.5445516 3.207843 0 6.002133.7975381 8.382954 2.3926381 1.710057 1.1457017 3.025761 2.6114091 3.947132 4.3971467zm-9.29925 25.4188042c3.133594 0 5.559564-1.0847812 7.277987-3.2543758 1.718422-2.1695946 2.57762-5.2473456 2.57762-9.2333451 0-4.0869108-.859198-7.2025029-2.57762-9.3468697-1.718423-2.1443668-4.144393-3.2165342-7.277987-3.2165342-3.184135 0-5.660647 1.1100086-7.429611 3.3300589-1.768964 2.2200504-2.653432 5.3482562-2.653432 9.3847116 0 3.9355434.884468 6.9754535 2.653432 9.11982 1.768964 2.1443671 4.245476 3.2165343 7.429611 3.2165343zm42.920266 7.6687116c-7.049742 0-12.617934-1.5950761-16.704741-4.785276l2.681954-6.6841953c2.043403 1.5191431 4.265572 2.6584831 6.666571 3.4180547 2.400999.759571 4.904131 1.1393512 7.50947 1.1393512 2.349915 0 4.137866-.3797802 5.363908-1.1393512 1.226042-.7595716 1.839054-1.8229556 1.839054-3.1901841 0-1.1646764-.434217-2.0888078-1.302663-2.7724223-.868447-.683614-2.349892-1.2786027-4.444381-1.7849836l-6.436689-1.4431784c-3.524871-.7595716-6.168485-2.0381642-7.93092-3.8358167-1.762436-1.7976524-2.643641-4.0889918-2.643641-6.8740871 0-2.3293524.664097-4.3928238 1.992309-6.1904762s3.19279-3.2028384 5.593789-4.2156003 5.185095-1.5191353 8.35237-1.5191353c2.758596 0 5.414981.417758 7.969235 1.2532866s4.776422 2.0381653 6.666571 3.6079462l-2.758581 6.5322817c-1.941234-1.4685048-3.920751-2.5572075-5.938613-3.2661408-2.01786-.7089333-4.02292-1.0633947-6.015239-1.0633947-2.196658 0-3.907983.4050987-5.134025 1.2153082-1.226043.8102095-1.839055 1.9242309-1.839055 3.3420976 0 1.1140381.370362 2.0001914 1.111096 2.6584867.740734.6582952 2.030613 1.1899873 3.869676 1.595092l6.513316 1.595092c3.831382.8102095 6.628249 2.1141209 8.390684 3.9117732 1.762436 1.7976524 2.64364 4.1649479 2.64364 7.1019576 0 3.4940286-1.43036 6.2664228-4.291126 8.3172653-2.860765 2.0508431-6.768716 3.076249-11.723969 3.076249zm30.841271-24.0286298h17.893661c-.250321-2.5824336-.939107-4.636302-2.066371-6.1616431-1.498161-2.0272174-3.669194-3.0408109-6.513161-3.0408109-3.047109 0-5.408582 1.1336243-7.084492 3.4009069-1.112394 1.5049215-1.855604 3.4387611-2.229637 5.8015471zm-.071975 4.811569c.171101 3.8671493 1.088951 6.7661416 2.753572 8.6970491 1.855325 2.1521191 4.663343 3.2281625 8.424136 3.2281625 2.055902 0 4.074164-.3418021 6.054849-1.0254161 1.980685-.6836145 3.823446-1.683702 5.52834-3.0002924l2.707758 6.5322817c-1.805181 1.5191426-4.024016 2.6964611-6.656572 3.5319892-2.632556.8355286-5.30268 1.2532868-8.010452 1.2532868-4.111801 0-7.659431-.7848788-10.642994-2.3546595-2.983563-1.5697812-5.277614-3.8484611-6.882219-6.8361089-1.604606-2.9876477-2.406897-6.5322612-2.406897-10.6339468 0-3.9497714.77722-7.4310882 2.331681-10.4440549 1.554462-3.0129666 3.710618-5.3676027 6.468534-7.0639789s5.942007-2.5445516 9.55237-2.5445516c3.510074 0 6.518664.7722194 9.025861 2.3166813 2.507195 1.5444619 4.450244 3.7598453 5.829202 6.6462168 1.378957 2.8863714 2.068426 6.3043915 2.068426 10.254163v1.4431787z"/></svg>