<svg xmlns="http://www.w3.org/2000/svg" width="500" height="360" viewBox="0 0 500 360"><g fill="none"><path fill="#9FD1C9" d="M494.047 15.988c-1.99 1.693-3.623 3.806-5.407 5.74-.924 1-1.902 1.923-3.17 2.603-.481-1.047.148-1.602.475-2.195 1.912-3.467 3.466-7.086 4.7-10.846.205-.625.27-1.358.646-1.853 1.044-1.368 2.321-3.125 4.045-2.734 1.462.332.818 2.4 1.001 3.727.316 2.3-.465 4.004-2.291 5.557m.593 7.078c-3.329 7.831-8.701 14.272-14.134 20.665-1.383 1.627-2.942 3.118-4.211 4.826-1.488 2.002-3.273 2.502-5.578 1.708 4.841-12.716 15.21-20.878 24.319-30.388.702 1.515-.033 2.334-.395 3.19m-12.715 32.993c-1.122-2.009-2.605-3.138-4.403-4.292 5.163-5.763 10.08-11.391 14.71-17.293-2.06 7.76-5.487 14.803-10.307 21.585m-5.724 7.286c-1.227 1.535-2.473 3.077-4.107 4.231-6.909 4.885-13.815 9.776-20.728 14.655-.253.179-.572.263-.862.392 1.177-3.042 2.484-5.844 4.712-8.085 5.271-5.303 10.518-10.628 15.765-15.956 2.106-2.137 3.282-2.292 5.173-.622 1.334 1.179 1.426 3.662.046 5.383m-35.097 38.375c1.463-10.574 9.299-14.952 16.623-19.783-5.316 6.62-11.331 12.632-16.623 19.783m-13.192 20.628c-1.522 2.394-3.824 4.072-6.215 5.541-3.88 2.384-8.323 2.785-13.046 3.699 6.252-14.407 16.194-25.074 29.288-33.954-3.278 8.745-5.297 17.278-10.026 24.714m-28.319 52.411c.542-12.075.775-24.095 5.389-35.429.382-.94.934-1.402 1.955-1.58 4.986-.869 10.047-1.453 14.904-3.588-6.427 14.117-10.894 29.2-22.248 40.597m-5.337-7.745c-.349 3.436-.869 6.857-1.395 10.272-.573 3.712-4.104 5.174-7.291 3.059-4.958-3.289-9.569-7.01-13.574-11.416-5.145-5.662-9.638-11.828-14.182-18.549 7.361-2.451 14.091-5.14 20.353-8.785 3.322-1.932 6.601-2.944 10.486-2.596 3.643.326 7.339.07 11.02.07.252.474.086.955-.096 1.408-3.396 8.521-4.406 17.515-5.321 26.537m-23.464 14.066c-11.49-2.746-21.919-8.009-32.157-13.697-7.776-4.32-15.278-9.091-22.671-14.034-.579-.387-1.31-.661-1.572-1.646.53.072.935.072 1.305.186 11.096 3.387 22.276 2.846 33.47.646 1.407-.277 2.24-.061 3.113 1.133 7.294 9.982 14.8 19.786 24.658 27.472.109.084.129.28.33.746-2.354.261-4.422-.317-6.476-.807m-87.822-51.384c-.879-.692-1.473-1.646-1.299-2.781.195-1.278 1.372-1.621 2.403-1.792 4.378-.729 8.875-.977 13.137-2.121 6.584-1.766 12.61-.973 18.843 1.649 6.885 2.896 14.152 4.845 21.392 6.745 1.596.419 2.498 1.219 3.138 2.731 1.855 4.383 4.276 8.484 7.098 12.961-7.474 1.532-14.498 2.071-21.561 1.467-14.239-1.217-26.842-6.68-38.234-15.14-1.65-1.225-3.302-2.451-4.917-3.72m-8.586-9.892c-2.208 1.837-3.59.593-5.244-.749-8.566-6.948-17.31-13.686-25.153-21.48-1.461-1.452-2.894-2.942-3.951-4.723-.52-.878-1.433-1.87-.466-2.895 1.014-1.075 2.086-.418 3.1.238 6.021 3.888 12.206 7.496 18.566 10.798 10.454 5.429 21.158 10.32 31.986 14.95.705.301 1.626.323 2.1 1.455-2.932.718-5.864.787-8.755 1.059-2.867.271-5.754.321-8.624.567-1.218.105-2.727.088-3.559.781m63.288 6.393c-7.562-1.934-14.442-4.024-21.199-6.923l19.857-5.438c-.126 4.249.169 8.049 1.342 12.361m3.099-26.305c-1.209 2.931-2.259 5.494-3.326 8.048-.328.784-1.099.938-1.806 1.143-9.409 2.734-18.926 5.005-28.578 6.707-.83.146-1.613.15-2.416-.163-18.257-7.119-36.379-14.519-53.042-25.013-.588-.371-1.392-.557-1.735-2.017 29.914 7.799 59.84 13.451 90.904 11.294m-64.902-9.608c13.232.37 26.459.378 39.669-.522 13.17-.898 26.244-2.577 39.301-4.991-3.989 3.058-7.26 6.704-10.418 10.46-.672.797-1.626.684-2.514.754-20.064 1.58-39.914-.216-59.647-3.821-2.157-.394-4.305-.843-6.458-1.266l.066-.615m97.36 4.937c-7.952 3.839-16.192 6.95-25.092 9.946 1.578-3.908 2.891-6.643 7.29-6.948 5.974-.413 11.847-1.888 17.802-2.998m-9.691-8.883c5.861-3.686 12.042-6.745 18.592-9.041 13.217-4.631 26.704-8.247 40.468-10.825.792-.148 1.581-.495 3.086.106-11.227 7.014-21.391 14.811-33.507 19.127-11.751 4.187-23.853 7.052-36.392 8.422 2.32-2.944 4.621-5.82 7.753-7.79m96.143-48.717c-.222 1.637-1.429 2.421-2.381 3.32-5.749 5.424-11.736 10.575-17.938 15.481-1.861 1.471-3.821 2.455-6.148 2.917-3.903.776-7.771 1.723-11.653 2.599l-.243-.646c13.433-6.833 26.151-14.817 38.364-23.671m1.291 13.84c2.591-2.121 4.908-4.016 7.225-5.911-1.195 3.273-2.377 6.549-7.225 5.911m-32.223 17.036c3.036-2.159 5.56-5.261 9.742-5.302-3.046 2.139-6.096 4.273-9.742 5.302m-56.191 69.684c-.075 1.079-.864 1.104-1.384 1.343-4.702 2.163-9.546 3.947-14.486 5.494-1.423.446-2.26.221-2.998-1.13-1.602-2.936-3.23-5.848-4.784-9.558 8.286 1.665 15.91 3.058 23.652 3.852m36.713-16.716c-1.929 3.405-3.857 6.809-5.788 10.212-.258.453-.645.769-1.168.817-2.994.278-5.99.536-9.111.478 5.257-3.986 10.525-7.806 16.066-11.508m-1.507-4.442c-7.142 5.448-14.563 10.487-22.295 15.065-1.244.736-2.471 1.149-3.952 1.09-11.141-.445-22.12-2.083-33.015-4.378-1.151-.242-1.904-.675-2.217-1.931-1.191-4.777-1.534-9.567-.716-14.447.236-1.409.913-2.09 2.24-2.555 17.207-6.029 33.781-13.473 49.849-22.096 3.971-2.131 8.336-3.521 12.472-5.357 13.286-5.896 25.812-13.135 37.807-21.332 3.838-2.622 8.464-2.762 12.743-3.99l.384.712c-2.793 4.345-5.672 8.639-8.355 13.051-2.156 3.544-4.725 6.682-7.682 9.593-8.743 8.609-17.13 17.549-25.167 26.836-3.385 3.911-7.977 6.595-12.097 9.738m77.086-101.312c-.566 2.897-2.151 5.311-3.292 7.919-3.573 8.173-8.872 14.903-16.113 20.16-3.658 2.656-7.178 5.518-10.621 8.452-2.574 2.194-5.621 2.895-8.932 3.326 14.15-12.15 27.028-25.503 38.957-39.857m15.105-10.083c-.102-2.027.237-4.459-2.078-5.393-2.28-.919-3.859.965-5.305 2.356-3.085 2.965-6.03 6.077-9.043 9.117-42.595 42.964-94.515 66.295-154.25 72.888-27.793 3.067-55.568 1.863-83.276-1.576-4.569-.567-9.178-.849-13.776-1.146-1.887-.123-3.983-.143-5.045 1.821-1.131 2.09.244 3.797 1.39 5.4 1.539 2.15 3.414 4.008 5.358 5.792 10.383 9.529 21.542 18.12 32.599 26.827 22.903 18.037 46.092 35.687 71.217 50.589 11.064 6.562 22.404 12.611 34.95 15.919 16.626 4.381 28.519-.52 37.32-15.238.507-.847.989-1.709 1.458-2.579 4.193-7.784 7.166-16.085 10.251-24.331 5.643-15.089 12.172-29.708 21.949-42.668 7.516-9.965 16.431-18.632 25.277-27.368 5.569-5.5 10.997-11.133 15.618-17.473 10.635-14.59 14.573-31.295 15.401-48.986 0-1.317.053-2.636-.013-3.95"/><path fill="#293749" d="M71.098 259.949c-3.752-1.957-7.704-3.256-11.75-4.322-5.515-1.455-11.162-2.031-16.842-2.401-6.562-.427-12.95-1.605-18.403-5.615-6.281-4.618-7.34-12.267-2.666-18.495 2.458-3.275 5.734-5.466 9.594-6.644 10.777-3.289 21.011-2.33 30.294 4.47 2.653 1.943 5.146 2.319 7.939.444 1.5-1.008 3.118-1.841 4.664-2.783 2.787-1.694 2.83-2.283.315-4.483-3.567-3.12-7.556-5.582-11.981-7.254-13.512-5.106-27.065-4.928-40.562.024-4.775 1.751-8.948 4.533-12.415 8.297-9.733 10.574-8.466 25.774 2.913 34.53 3.481 2.679 7.42 4.515 11.589 5.864 6.237 2.017 12.663 2.885 19.19 3.154 5.811.239 11.472 1.203 16.705 3.889 6.94 3.564 10.082 9.649 8.74 16.85-1.3 6.984-5.483 11.734-11.901 14.379-8.745 3.604-17.659 3.593-26.516.295-6.55-2.44-11.865-6.665-16.519-11.8-2.026-2.234-3.487-2.461-6.102-1.035-1.589.868-3.146 1.796-4.705 2.717-3.307 1.958-3.455 2.668-.981 5.649 10.738 12.947 24.808 18.494 41.328 18.567 3.805-.011 7.579-.331 11.312-1 8.681-1.558 16.58-4.726 22.976-11.085 10.195-10.137 13.225-32.07-6.216-42.213m403.061 31.666c-2.064-1.199-4.101-2.448-6.187-3.606-2.684-1.491-3.978-1.239-6.04 1.088-.6.677-1.15 1.398-1.709 2.111-8.314 10.599-19.286 13.249-31.828 10.095-11.135-2.8-17.628-11.699-17.635-23.221-.007-11.033-.01-22.064 0-33.097.01-10.648 5.995-18.992 16.073-22.445 12.721-4.358 25.549-.435 33.679 10.301.449.591.89 1.186 1.327 1.785 1.405 1.927 3.168 2.22 5.191 1.08 2.007-1.132 3.993-2.302 5.971-3.485 2.664-1.595 2.928-2.502 1.315-5.146-3.025-4.961-7.093-8.978-12.218-11.61-17.425-8.948-34.957-8.913-51.837 1.084-10.711 6.344-16.335 16.192-16.101 28.988.097 5.35.016 10.703.016 16.053 0 5.105.112 10.212-.021 15.313-.41 15.72 7.397 26.234 21.057 32.745 10.953 5.221 22.563 5.74 34.302 3.24 10.768-2.292 19.442-7.822 25.493-17.213 1.153-1.789.948-3.016-.849-4.06m-112.414-29.707c0 5.434.012 10.867-.002 16.299-.028 11.148-6.153 19.577-16.822 22.872-7.517 2.32-15.034 2.091-22.154-1.361-8.591-4.165-13.283-11.085-13.335-20.797-.06-11.195-.022-22.391-.016-33.586.007-11.452 6.385-20.047 17.4-23.189 7.296-2.081 14.572-1.803 21.454 1.513 8.693 4.19 13.418 11.133 13.469 20.961.03 5.763.006 11.526.006 17.288m16.62-16.92c.066-10.523-4.179-18.978-12.15-25.632-7.33-6.12-15.959-9.087-25.366-9.903-11.461-.995-22.399.763-32.174 7.158-10.358 6.777-16.086 16.236-15.861 28.921.095 5.35.016 10.703.016 16.053v7.903c0 2.717.078 5.437-.013 8.15-.378 11.321 4.405 20.199 12.871 27.334 4.26 3.589 9.092 6.213 14.256 8.258 5.028 1.989 7.953 5.365 7.521 11.112-.198 2.637.244 5.254.939 7.815 3.748 13.813 17.319 24.993 32.622 26.865 5.574.682 6.153.209 6.098-5.375-.05-5.186 1.016-5.163-5.115-6.717-10.666-2.704-18.107-11.758-18.251-21.899-.099-6.879 1.528-9.386 7.946-12.014 4.754-1.947 9.234-4.359 13.218-7.616 8.785-7.181 13.68-16.187 13.47-27.812-.196-10.864-.095-21.734-.027-32.601m-123.16 11.405c-6.085.111-12.173.026-18.26.026v.012c-5.511 0-11.022.007-16.533-.002-7.378-.011-9.397-2.224-9.652-9.526-.29-8.285 2.176-15.221 8.797-20.422 10.431-8.194 27.825-7.253 37.043 1.995 4.259 4.273 6.48 9.439 6.544 15.497.016 1.48.015 2.96.002 4.442-.044 5.13-2.679 7.881-7.943 7.978m13.61-35.987c-6.669-6.074-14.669-9.366-23.512-10.58-12.983-1.782-25.362-.076-36.358 7.542-9.708 6.724-14.889 15.978-14.777 28.018.104 11.03.016 22.061.031 33.092.002 1.396.009 2.806.19 4.188 1.668 12.75 8.951 21.553 20.287 26.649 17.377 7.809 34.604 6.64 51.151-2.84 4.537-2.599 8.307-6.192 11.514-10.334 1.898-2.453 1.7-3.466-.944-5.129-1.254-.789-2.533-1.537-3.802-2.3-3.896-2.341-4.962-2.21-8.063 1.096-7.76 8.277-17.1 12.967-28.646 12.672-3.066-.078-6.058-.597-8.963-1.586-10.082-3.435-15.769-11.767-16.188-22.408-.424-10.764 3.72-11.673 11.434-11.518 7.488.151 14.981.033 22.472.032 7.984-.001 15.969.011 23.954-.011 1.396-.004 2.808-.041 4.184-.251 4.727-.724 6.882-3.229 6.927-8.042.042-4.692-.018-9.384.018-14.076.072-9.747-3.794-17.732-10.907-24.211m-112.393 35.995c-6.086.092-12.174.021-18.262.025-5.676.003-11.352.023-17.028-.002-6.506-.028-8.951-2.504-8.988-8.94-.021-3.545-.053-7.082 1.186-10.479 2.628-7.211 7.664-12.135 14.89-14.386 11.033-3.437 21.378-2.206 30.019 6.172 4.189 4.06 6.23 9.211 6.265 15.095.009 1.48.01 2.961.002 4.442-.031 5.286-2.657 7.993-8.084 8.074m11.15-38.165c-15.908-12.066-42.244-12.154-58.227-.199-9.072 6.785-13.916 15.765-13.785 27.3.119 10.536.192 21.077-.017 31.61-.303 15.375 6.987 26.175 20.482 32.317 17.869 8.132 35.567 6.707 52.388-3.568 4.035-2.464 7.371-5.794 10.279-9.524 1.909-2.449 1.707-3.504-.888-5.144l-1.475-.9c-7.862-5.023-7.377-3.299-12.153 1.384-8.994 8.821-19.734 12.686-32.26 10.302-8.848-1.685-15.271-6.67-18.542-15.289-1.285-3.384-1.251-6.927-1.231-10.476.039-6.616 2.439-9.035 9.133-9.047 8.232-.014 16.464-.002 24.697-.003 7.903 0 15.806.005 23.709-.007 1.233-.002 2.474-.012 3.698-.147 5.404-.598 7.716-3.178 7.737-8.598.018-4.364-.035-8.727.012-13.09.124-11.32-4.688-20.194-13.557-26.922"/><g fill="#9FD1C9"><path d="M9.963 348.146c3.295 0 5.637-2.455 5.637-5.705 0-3.296-2.342-5.728-5.637-5.728-3.251 0-5.615 2.432-5.615 5.728 0 3.25 2.364 5.705 5.615 5.705zm9.728 5.66c-.591.205-1.659.432-2.841.432-3.728 0-5.774-3.387-6.91-3.865-4.524-.023-7.91-3.409-7.91-7.932 0-4.569 3.409-7.979 7.933-7.979 4.569 0 7.978 3.41 7.978 7.979 0 3.59-2.182 6.477-5.387 7.455 1.092.909 2.41 2.318 4.456 2.318.977 0 1.886-.159 2.409-.364l.273 1.956zm3.316-10.206c0 2.774 1.409 4.591 4.432 4.591 3.069 0 4.501-1.955 4.501-4.614v-8.887h2.364v9.069c0 3.568-2.341 6.637-6.865 6.637-4.477 0-6.795-2.774-6.795-6.637v-9.069h2.364v8.91zm17.023 1.341h6.478l-3.137-7.887-3.341 7.887zm1.977-10.251h2.728l6.136 15.457h-2.386l-1.364-3.41h-7.706l-1.409 3.41h-2.409l6.409-15.457zM55.235 338.463v11.683h-2.364v-15.456h2.068l9.82 11.729v-11.729h2.363v15.456h-2.068zM77.121 337.053v13.093h-2.363v-13.093h-5.547v-2.363h13.183v2.363zM86.666 343.6c0 2.774 1.409 4.591 4.432 4.591 3.069 0 4.501-1.955 4.501-4.614v-8.887h2.364v9.069c0 3.568-2.341 6.637-6.865 6.637-4.477 0-6.795-2.774-6.795-6.637v-9.069h2.364v8.91zM116.168 338.44l-5.865 7.046h-.454l-5.819-7.046v11.706h-2.363v-15.456h2.136l6.296 7.568 6.273-7.568h2.16v15.456h-2.364zM133.281 337.053v13.093h-2.364v-13.093h-5.546v-2.363h13.183v2.363zM140.667 350.146v-15.456h11.978v2.092h-9.728v4.34h8.069v2.091h-8.069v4.842h9.728v2.091zM156.896 342.366c.011-3.596 2.21-5.701 5.498-5.701 2.045 0 3.953.978 5.138 2.065l.035-.054v-2.599c-1.383-.919-3.246-1.616-5.217-1.616-4.468 0-7.753 2.831-7.896 7.608h-.004l-.006.239-.004.083.001.025-.001.024.004.082.006.24h.004c.143 4.777 3.428 7.609 7.896 7.609 1.971 0 3.834-.697 5.217-1.616v-2.6l-.035-.054c-1.186 1.087-3.093 2.065-5.138 2.065-3.288 0-5.487-2.105-5.498-5.7v-.1m113.013-.882v6.843c-1.433 1.117-4.16 2.045-6.522 2.045l-.109-.005c-2.609-.025-4.911-1.018-6.388-2.801l-.005-.01c-.963-1.24-1.537-2.861-1.596-4.792h-.005l-.005-.242-.005-.079v-.049l.005-.084.005-.237h.005c.054-1.789.548-3.31 1.383-4.511l.148-.198c1.497-1.873 3.874-2.9 6.566-2.9 2.026 0 3.651.553 5.015 1.453v2.5c-1.275-1.112-2.994-1.749-4.946-1.749l-.188.005-.04-.005c-2.129 0-3.799.879-4.718 2.475-.573.883-.899 1.995-.899 3.3 0 1.349.356 2.484.978 3.384l.015.025c.939 1.497 2.569 2.317 4.625 2.317l.119-.005c1.581-.026 3.068-.632 4.2-1.413v-3.197h-4.817v-2.07h7.179zM182.452 343.395h-8.581v6.751h-2.364v-15.456h2.364v6.637h8.581v-6.637h2.363v15.456h-2.363zM191.087 338.463v11.683h-2.364v-15.456h2.068l9.819 11.729v-11.729h2.364v15.456h-2.068zM214.308 348.146c3.295 0 5.637-2.455 5.637-5.705 0-3.296-2.342-5.728-5.637-5.728-3.251 0-5.615 2.432-5.615 5.728 0 3.25 2.364 5.705 5.615 5.705m-.023-13.684c4.569 0 7.978 3.41 7.978 7.979 0 4.523-3.409 7.932-7.978 7.932-4.524 0-7.933-3.409-7.933-7.932 0-4.569 3.409-7.979 7.933-7.979"/><path d="M225.666 350.146v-15.456h2.364v13.387h8.432v2.069zM244.803 348.146c3.295 0 5.637-2.455 5.637-5.705 0-3.296-2.342-5.728-5.637-5.728-3.251 0-5.615 2.432-5.615 5.728 0 3.25 2.364 5.705 5.615 5.705m-.023-13.684c4.569 0 7.978 3.41 7.978 7.979 0 4.523-3.409 7.932-7.978 7.932-4.524 0-7.933-3.409-7.933-7.932 0-4.569 3.409-7.979 7.933-7.979"/><path d="M273.068 350.147h2.364v-15.457h-2.364zM279.812 350.146v-15.456h11.978v2.092h-9.728v4.34h8.069v2.091h-8.069v4.842h9.728v2.091zM297.221 342.917c-2.25-.568-3.5-1.909-3.5-3.932 0-2.409 1.909-4.5 6.091-4.5 2.136 0 4.251.59 5.41 1.227l-.705 2.227c-1.092-.683-3.069-1.273-4.796-1.273-2.477 0-3.569.977-3.569 2.136 0 1.045.751 1.591 2.092 1.932l3.068.818c2.727.75 4.183 1.91 4.183 4.092 0 2.864-2.524 4.727-6.183 4.727-2.227 0-4.364-.773-5.342-1.341l.569-2.25c1.045.659 2.886 1.409 4.818 1.409 2.25 0 3.683-.932 3.683-2.365 0-1.09-.978-1.682-2.706-2.113l-3.114-.796z"/></g></g></svg>