<svg height="362" viewBox="0 0 500 362" width="500" xmlns="http://www.w3.org/2000/svg"><g fill="none" fill-rule="evenodd"><path d="m442.960237 98.7142978c4.659052-5.3138748 8.477157-9.6700508 12.295262-14.0253807-5.252115 3.1742809-11.106599 5.8121827-12.295262 14.0253807zm43.494078-75.5177665c2.991539-5.0566836 11.579526-7.2182741 8.514382-16.32233502-5.695431 4.37648052-5.340947 11.30879862-8.514382 16.32233502zm5.038071 14.7648054c-.340948-.2411167-.682741-.4822335-1.024535-.7241963-3.983079 4.7089679-7.966159 9.4179357-12.08714 14.2901862 1.479695 1.3316413 2.57022 2.3130287 4.249577 3.8248731 3.108291-6.1015229 5.985617-11.7461929 8.862098-17.390863zm-66.666667 22.4746193c15.087987-.3993232 22.390017-11.8197969 31.7978-19.9390863-10.383248 6.5109983-20.766497 13.0219966-31.7978 19.9390863zm70.0533-38.6269035c-9.516921 5.8663282-22.252961 21.8519458-22.106599 28.5769881 9.060913-7.8477157 16.801184-16.7470389 22.106599-28.5769881zm-43.439933 58.6945854c.235195.2233503.470389.4458545.705584.6700508 5.120981-3.5549916 10.307107-7.0194586 15.334179-10.7005077 2.811337-2.0575296 5.446701-4.3798646 7.990694-6.7648054 1.71912-1.6116751 2.259729-3.6192893.244501-5.4949238-2.088832-1.9433164-3.497462-.4010153-4.939086 1.0566836-5.032149 5.0879864-10.166667 10.0769881-15.097293 15.2605753-1.665821 1.750423-2.839256 3.9686971-4.238579 5.9729272zm-3.119289-26.3062606c9.884095-.609137 31.265651-22.5296108 33.768189-31.4788494-9.491539 8.8477158-21.518612 20.0592217-33.768189 31.4788494zm-10.735195 45.3502538c-.35956-.1404399-.719966-.2808798-1.080372-.4213198-13.592216 10.9128597-27.184433 21.8257187-41.65736 33.4458547 9.749577-.615905 18.553299-1.101523 26.572758-5.047378 2.733502-1.346023 5.482233-3.870558 6.844331-6.554991 3.517767-6.933164 6.265652-14.254653 9.320643-21.4221659zm-196.857868-9.42978c-.277495.2233503-.554145.4458545-.831641.6683587 1.390017 1.9162437 2.50423 4.1336718 4.218274 5.6937394 6.750423 6.1421318 13.759729 11.9999998 20.532149 18.1192898 4.109137 3.712352 7.965313 6.214044 14.167513 4.200507 4.756345-1.543147 10.170051-1.060067 15.650592-1.507614-18.258883-9.232657-35.997462-18.2030457-53.736887-27.1742809zm12.025381.142978c.486464.4111675.926396.8967851 1.463621 1.2233503 15.94247 9.6785106 33.049069 16.8671746 50.443316 23.4137056 1.332488.501692 3.086295.397631 4.516075.049915 11.883249-2.885786 23.824873-5.583756 35.56599-8.972927 8.125211-2.345178 15.959391-5.694585 23.923858-8.5956006-.078681-.3993232-.157361-.7986463-.236887-1.1979695-39.109983 8.7191201-77.395939 3.2258883-115.675973-5.9204738zm26.346024.1869712c25.650592 5.6852792 51.57445 7.675973 77.694585 3.5025381 15.560068-2.4864636 31.109137-5.3282572 45.147208-13.0194585 7.441625-4.0769882 14.558376-8.747885 21.821489-13.1497462-1.510152-.7868021-2.617597-.78511-3.652284-.5093063-11.532995 3.0769882-23.192893 5.7614213-34.551607 9.3891709-27.252115 8.7055838-55.097293 13.4475465-83.69374 13.7732657-7.587986.0862944-15.176819.0135363-22.765651.0135363zm92.510152 48.4340097c-.862098-.521996-1.187817-.871404-1.549915-.915397-20.780034-2.494924-40.708968-8.287648-60.303723-15.420474-1.396785-.50846-3.054991-.769035-4.509306-.56599-5.979696.836718-11.942471 1.815567-17.875635 2.932318-1.541455.290186-2.953468 1.267344-4.42555 1.92978.978004 1.401862 1.68951 3.141286 2.97462 4.154823 16.72335 13.181049 35.410321 19.78088 56.928934 16.58291 9.87225-1.467851 19.358714-4.159052 28.760575-8.69797zm49.693739-3.329949c-8.320643 1.183587-16.198815 3.285956-24.046531 3.181895-10.71066-.142132-19.773265 3.626904-29.164974 7.91709-14.122674 6.450931-29.066836 9.543147-44.739425 7.032995-2.063452-.330795-4.114213-.747039-6.170897-1.12352 15.841794 11.120982 31.879019 21.566836 50.445855 27.027919 12.000846 3.530457 23.905245 3.847716 33.316412-6.156514 10.115906-10.753807 14.384941-24.759729 20.35956-37.879865zm39.313029-77.007614c-.435702-.5406091-.87225-1.0795262-1.308798-1.6192893-4.657361 2.0956007-9.47462 3.8993232-13.937395 6.3477157-9.482233 5.2047378-18.6489 10.9932318-28.200507 16.0609137-6.440779 3.4170897-13.523689 5.6243655-19.960237 9.0473774-19.932318 10.6006768-40.565144 19.4424705-62.19797 25.9297805-5.576988 1.672588-11.174281 3.275803-17.78934 5.210659 17.470389 5.794417 34.244501 9.522843 51.350254 12.321489 11.220812 1.835026 20.354484-.743654 28.932318-7.612521 7.346024-5.881556 15.556684-10.808798 22.307953-17.280034 9.923858-9.5126899 19.163282-19.7884937 28.153976-30.2047373 4.80203-5.5634518 8.470389-12.1023689 12.649746-18.2013537zm38.542301-58.54399319c-.066835 7.81049069.64044 15.72081219-.354484 23.41201349-2.348561 18.1522843-10.729272 33.4602369-23.473773 46.6252115-11.037225 11.4001693-22.093062 22.854484-32.200507 35.0609142-10.147209 12.254653-15.361253 27.330795-21.405246 41.899323-4.4467 10.71912-9.146362 21.51269-15.280034 31.305414-6.112521 9.75973-16.379864 12.86379-27.729272 11.066836-13.866328-2.195431-26.125212-8.545685-38.066836-15.519458-29.730964-17.365483-56.821489-38.431472-83.568528-59.950085-8.316413-6.690355-16.268189-13.835025-24.360406-20.8037225-1.060914-.9128596-2.241117-1.8663282-2.871404-3.0609137-.988156-1.8756345-2.568528-4.3553299-1.997462-5.8604061.502538-1.3265651 3.652284-2.4357022 5.552453-2.3197969 10.792724.6582064 21.566836 1.6480541 32.335872 2.6480541 20.211506 1.8773266 40.388325 1.7893401 60.626057.0423012 24.440779-2.1099831 48.011845-7.6945855 70.843486-16.4746193 28.395939-10.9204738 54.033841-26.3984772 76.345177-47.1582064 7.296109-6.7893401 14.26396-13.93231814 21.381557-20.91285959z" fill="#67c361"/><path d="m360.380626 214.313452c11.705584 5.92555 18.915398 15.612521 19.384095 29.066836.42978 12.351946.332487 24.741116-.032149 37.098138-.395939 13.40017-7.593909 22.882403-18.672589 29.734349-2.148054 1.328257-4.393401 2.527073-6.685279 3.586294-9.274958 4.286802-11.788494 12.147208-6.581218 21.146362 3.333333 5.761422 8.413705 9.315567 14.751269 11.186972 5.421319 1.601523 8.073604 7.314721 5.474619 12.338409l-3.701354 2.07868c-15.732656.647209-37.043147-13.88494-37.533841-33.58714-.17005-6.824873-2.839255-10.419628-8.918781-13.044839-12.999154-5.613367-23.220813-14.353638-25.394247-29.164975-.663283-4.52196-.589306-9.152063-.42985-13.794719l.107869-2.985353c.071212-1.990134.132471-3.978811.132471-5.958507-.090524 0-.181049-.000846-.271573-.000846 0-5.203045.138748-10.410321-.026227-15.608291-.465313-14.667512 6.339255-25.225888 18.930626-31.820643 16.27665-8.523688 33.085448-8.562605 49.466159-.270727zm-286.1320642 4.115482c4.8375634 3.7978 4.5761421 5.225888-.3282572 8.672589-5.1472082 3.615905-9.3578681 3.654822-14.8790186.050761-9.4712352-6.181049-19.9543148-6.315567-30.1438241-1.340947-4.8967851 2.390863-8.4610829 6.406937-8.2309644 12.259729.2225042 5.681895 3.8468697 9.649746 8.9509306 11.137056 3.6029505 1.049334 7.3220772 1.688571 11.0537853 2.295501l2.4885324.40398c2.0734355.339571 4.1436489.695083 6.1928769 1.131314 6.573604 1.399323 13.3164128 2.494078 19.5566836 4.854484 9.9196277 3.751269 16.9467005 10.659898 18.1116751 21.826565 1.1962775 11.455161-3.2030457 20.665821-12.4407784 27.423858-20.3527918 14.890017-55.4881556 10.602369-71.73942466-8.631134-.90270727-1.069374-1.89170897-2.065989-2.84094754-3.096446v-4.219967c.4822335-.28934.96954314-.571065 1.44585448-.868866 10.54230122-6.586294 10.60490692-5.432318 17.83671742 1.521997 9.3620981 9.00423 20.8883249 11.799492 33.5634518 8.478849 2.9238579-.765651 5.7944162-2.229272 8.3197969-3.92132 5.2284264-3.501692 7.4864637-8.736886 6.8722505-14.922165-.5846024-5.882403-4.1531303-10.153977-9.606599-11.713198-6.4162437-1.83418-13.212352-2.291033-19.7563452-3.736887-6.9526227-1.535533-14.0913706-2.826565-20.6311337-5.492386-9.38747882-3.827411-15.12859557-11.21066-15.60406089-21.677665-.48307952-10.619289 4.94585449-18.202199 13.61675129-23.615059 16.6285956-10.379865 42.8384095-8.876481 58.1920474 3.179357zm392.0736042-1.131895c3.476311 2.422166 6.187817 6.060068 8.890863 9.427242 2.105753 2.620981 1.677665 5.250423-1.499154 7.030457-.735195.412859-1.443317.873942-2.169205 1.304568-7.433164 4.409476-7.450085 4.405246-13.060068-2.336717-8.565143-10.294416-23.548223-13.21066-35.213198-6.595601-6.972081 3.952623-10.928934 9.999154-10.960236 18.217428-.045686 11.807953-.068528 23.616752.003384 35.424704.058375 9.564298 6.115059 17.536379 15.337563 20.444163 12.205584 3.847715 23.041455.694585 31.470389-9.157361 4.773266-5.580372 13.19797-5.000846 17.076142 1.448393.681049 1.131979.203892 3.600677-.619289 4.892555-5.639594 8.853638-13.912014 14.318105-23.977157 16.680203-17.148054 4.02538-33.349408 2.150592-47.264806-9.663283-7.200507-6.112521-11.096446-14.022842-11.041455-23.660744.017767-3.09264.019459-6.18528.01618-9.277919l-.013642-9.277919c-.005396-5.060914-.006768-10.120981-.00423-15.181895.009306-17.103215 7.815567-28.947547 23.949239-34.857868 17.056683-6.249577 33.767343-5.531303 49.07868 5.139594zm-199.275889.241455c9.529611 6.304569 14.166667 15.743655 14.357869 27.22758.072758 4.357868.045727 8.719121.005076 13.077835-.071912 7.544839-3.198816 10.694585-10.873943 10.771573-8.160744.082065-16.323181.017767-24.484771.017767v.01692c-8.302031 0-16.604907-.062606-24.906938.019459-6.585448.065144-7.892555 1.830795-8.383249 8.266497-1.461082 19.164975 16.236041 28.031303 33.758038 23.544839 6.763113-1.73181 12.173435-5.638747 16.970389-10.567681 4.357868-4.477158 13.906937-2.906938 16.094755 2.898477.547377 1.45093-.531303 4.106599-1.69797 5.51692-9.027073 10.907784-21.027919 16.225043-34.892555 17.400169-11.301184.957699-22.174281-.752115-32.094755-6.719966-10.190355-6.131133-16.719966-14.928088-17.263959-26.891709-.605753-13.327411-.625212-26.726734.015228-40.051607.56599-11.791032 6.895939-20.911168 17.120136-26.515229 18.983925-10.405245 38.06599-10.059221 56.276649 1.988156zm-93.719204 4.077327c6.330795 5.861252 9.546531 13.441624 9.401861 22.264805-.080372 4.919628.025381 9.841794-.021151 14.762267-.062605 6.686972-2.996615 9.804569-9.778341 9.934857-8.438241.162442-16.881557.038917-25.323181.038917v.031303c-8.301185 0-16.601523-.049916-24.901862.015228-6.609137.052453-8.169204 2.019459-8.573604 8.612521-.901015 14.676819 10.611675 25.396785 27.177665 24.264806 9.690356-.662437 17.389171-5.043148 24.040609-11.752116 4.307953-4.345177 13.438241-2.800338 15.788494 2.913706.527919 1.284264-.197123 3.637056-1.148054 4.888325-7.130287 9.383249-16.809644 14.857022-28.256345 16.99154-17.760575 3.312182-34.280034 1.053299-47.65313-12.423858-5.8671744-5.91286-8.9094756-13.207276-8.885787-21.667513.0065265-2.379985.0283591-4.760787.0538767-7.141854l.0525053-4.762328c.075798-7.143536.1150345-14.286173-.1960605-21.413077-.8155668-18.664128 10.9314725-30.462775 24.3561765-35.115059 19.566835-6.781726 38.060913-5.076988 53.866328 9.55753zm155.71066 1.946023c-11.365483 2.237733-17.982234 10.733503-18.025381 22.2022-.041455 11.246193-.040609 22.493232.007614 33.739425.037225 8.326565 3.86802 14.602369 10.989848 18.679357 6.791032 3.886633 14.175127 4.277495 21.664974 2.432318 10.359561-2.552454 16.75973-10.704738 16.871405-21.354484.059222-5.621828.010152-11.246193.010152-16.868866h-.019458c0-6.18528.020304-12.371405-.006769-18.556684-.024534-5.485618-2.134517-10.106599-5.993231-13.950931-7.225889-7.198815-16.18951-8.154822-25.499154-6.322335zm-98.866244.085787c-12.234349 3.032149-17.835871 11.161591-17.332487 25.157361.175973 4.907783 1.752115 6.624365 6.637056 6.72335 5.907783.120135 11.821489.028765 17.732656.026227 6.051607 0 12.104061-.003385 18.155668.000846 3.967852.003384 6.909476-1.858714 6.819797-5.846024-.105753-4.681895-.37225-9.72335-2.16159-13.932318-4.466159-10.50423-17.120136-15.284264-29.8511-12.129442zm-98.500085-.029272c-11.0956 2.798646-17.417089 10.843485-17.479695 22.245347-.045685 8.358714 1.30203 9.695431 9.826565 9.711506 4.924704.009306 9.849408.001692 14.774112.001692v-.028765c6.049915 0 12.100677.061759 18.149746-.025381 3.163283-.044839 6.177665-.989848 6.56176-4.616751.592216-5.600677.63621-11.181895-2.293571-16.41709-5.193739-9.280034-17.506768-13.906091-29.538917-10.870558z" fill="#3a6039"/></g></svg>