<svg xmlns="http://www.w3.org/2000/svg" width="494" height="60" viewBox="0 0 494 60"><g fill="none"><path fill="#000" fill-rule="nonzero" d="M240.678 1.79v55.796h12.905v-25.639h.215l20.572 25.639h17.441l-25.27-30.157 23.974-25.639h-16.739l-19.979 22.645h-.215v-22.645h-12.905zm66.576 55.796l-.433-36.581h.433l22.3 36.581h15.065v-55.796h-12.959l.216 36.363h-.216l-22.03-36.363h-15.281v55.796h12.905zm96.112-49.373c-2.754-2.559-5.94-4.464-9.558-5.77-3.617-1.306-7.614-2.122-12.095-2.122-4.266 0-8.261.654-12.095 2.122-3.617 1.306-6.804 3.211-9.558 5.77-2.754 2.559-4.86 5.553-6.371 9.2-1.512 3.648-2.321 7.675-2.321 12.194 0 4.519.864 8.546 2.321 12.194 1.457 3.647 3.618 6.859 6.371 9.417 2.754 2.559 5.94 4.681 9.558 5.987 3.618 1.47 7.614 2.123 12.095 2.123 4.266 0 8.261-.654 12.095-2.123 3.618-1.47 7.02-3.43 9.558-5.987 2.754-2.559 4.86-5.77 6.371-9.417 1.512-3.648 2.321-7.675 2.321-12.194 0-4.519-.864-8.546-2.321-12.194-1.728-3.648-3.834-6.641-6.371-9.2zm-7.02 28.198c-.864 2.122-1.89 4.082-3.186 5.552-1.458 1.47-3.186 2.776-5.075 3.648-1.89.871-4.05 1.306-6.371 1.306-2.321 0-4.428-.435-6.371-1.306-1.89-.871-3.617-2.122-4.86-3.648-1.458-1.47-2.538-3.43-3.186-5.552-.864-2.123-1.296-4.464-1.296-7.076 0-2.341.433-4.681 1.08-6.859.864-2.122 1.89-3.865 3.186-5.335 1.457-1.47 3.186-2.776 5.075-3.648 1.89-.871 4.05-1.306 6.371-1.306 2.321 0 4.428.435 6.371 1.306 1.89.871 3.618 2.123 5.075 3.648 1.457 1.524 2.538 3.211 3.186 5.335.864 2.122 1.296 4.3 1.296 6.859s-.433 4.954-1.296 7.076h.001zm40.119 2.557h-.215l-8.91-37.179h-14.201l15.659 55.796h13.175l11.015-37.832h.216l11.015 37.832h13.175l15.929-55.796h-14.039l-8.909 37.179h-.216l-9.935-37.179h-13.985l-9.774 37.179zm-406.317-7.458c-1.457-1.306-3.401-2.122-5.291-2.776l-5.724-2.122c-1.457-.435-2.97-1.089-4.428-1.47-1.457-.381-2.754-1.306-3.834-1.905-1.08-.871-2.106-1.688-2.754-2.994-.647-1.306-1.08-2.776-1.08-4.464 0-1.688.433-3.43 1.08-4.681.648-1.306 1.674-2.341 2.754-3.211 1.08-.871 2.321-1.47 3.834-1.905 1.513-.435 2.754-.654 4.266-.654 2.754 0 4.86.435 6.804 1.47 1.89 1.089 3.401 2.341 4.644 4.082l4.427-3.647c-1.296-1.905-3.401-3.43-5.94-4.681-2.754-1.306-5.94-2.123-9.774-2.123-2.106 0-4.05.435-6.155.871-2.106.654-4.05 1.47-5.724 2.776-1.674 1.306-3.186 2.994-4.266 4.899-1.08 1.905-1.457 4.3-1.457 6.859s.433 4.681 1.296 6.424c.864 1.688 1.89 3.211 3.401 4.3 1.458 1.306 2.97 2.122 4.86 2.776 1.674 1.089 3.401 1.688 5.291 2.123 1.674.654 3.401 1.089 5.075 1.688 1.674.654 2.97 1.306 4.266 2.122 1.296.871 2.321 1.905 2.97 3.211.864 1.306 1.08 2.994 1.08 4.899 0 1.688-.433 3.43-1.08 4.681-.864 1.306-1.674 2.559-2.97 3.43-1.296.871-2.537 1.688-4.05 2.122-1.513.435-2.97.654-4.266.654-2.97 0-5.507-.654-7.614-1.905-2.106-1.252-3.834-2.994-5.075-4.899l-4.644 3.43c1.08 1.306 2.106 2.559 3.401 3.648 1.296 1.089 2.754 1.905 4.266 2.559 1.457.654 3.186 1.306 4.644 1.47 1.674.435 3.401.435 5.075.435 2.106 0 4.428-.218 6.588-.871 2.106-.654 4.05-1.47 5.724-2.994 1.674-1.306 2.97-2.994 4.05-4.899 1.08-1.905 1.457-4.464 1.457-7.294 0-2.776-.432-5.117-1.457-6.859-.918-1.796-2.16-3.32-3.671-4.572v-.003zm49.838-14.752c0-2.559-.433-4.681-1.296-6.641-.864-1.96-2.106-3.43-3.834-4.681-1.674-1.306-3.618-2.122-5.94-2.776-2.321-.654-4.86-.871-7.614-.871h-15.712v55.796h5.724v-25.856h9.774c2.754 0 5.291-.218 7.614-.871 2.321-.654 4.266-1.47 5.94-2.776 1.674-1.306 2.97-2.776 3.834-4.681 1.134-1.96 1.513-4.082 1.513-6.641h-.001zm-9.125 7.457c-2.321 1.688-5.724 2.559-10.205 2.559h-9.558v-20.086h9.558c4.266 0 7.614.871 9.989 2.341 2.538 1.688 3.618 4.083 3.618 7.675 0 3.266-1.026 5.825-3.401 7.513v-.001zm30.778-22.427l-23.758 55.796h6.155l5.94-14.752h28.618l6.155 14.752h6.371l-23.974-55.796h-5.507zm-9.558 35.928l12.311-29.721 12.311 29.721h-24.623zm78.726 14.316c-2.97 1.306-5.94 1.905-9.125 1.905-3.618 0-6.804-.654-9.558-1.905-2.754-1.306-5.291-2.994-7.235-5.335-1.89-2.122-3.617-4.681-4.644-7.675-1.08-2.994-1.674-5.988-1.674-9.2 0-3.211.433-6.424 1.458-9.2 1.08-2.994 2.537-5.552 4.428-7.675 1.89-2.123 4.427-4.083 7.235-5.335 2.754-1.306 6.155-1.905 9.774-1.905 1.674 0 3.401.218 4.86.654 1.458.435 2.97 1.089 4.266 1.688 1.296.654 2.321 1.47 3.401 2.341 1.296.654 2.106 1.47 2.754 2.341l4.644-3.43c-.864-1.306-2.106-2.559-3.617-3.647-1.458-1.089-2.97-1.905-4.644-2.776-1.674-.871-3.618-1.306-5.507-1.688-1.89-.654-3.834-.871-5.94-.871-4.05 0-7.829.654-11.448 2.123-3.617 1.47-6.587 3.43-9.125 6.206-2.537 2.559-4.644 5.77-6.155 9.2-1.458 3.648-2.106 7.457-2.106 11.757s.648 8.111 2.106 11.758c1.457 3.648 3.401 6.641 5.94 9.2 2.537 2.559 5.507 4.681 9.125 6.206 3.617 1.524 7.397 2.123 11.662 2.123 2.537 0 4.86-.218 7.02-.871 2.16-.654 4.05-1.306 5.724-2.341 1.674-.871 3.186-2.123 4.644-3.43 1.296-1.306 2.537-2.559 3.401-4.083l-4.428-2.776c-1.944 3.211-4.266 5.335-7.235 6.641l-.001.001zm53.672-45.126v-5.116h-34.395v55.796h35.42v-4.899h-29.697v-21.611h26.729v-5.118h-26.729v-19.052h28.672z"/><path d="M-3-4h499.767v67.21h-499.767z"/></g></svg>