<svg xmlns="http://www.w3.org/2000/svg" width="500" height="174" viewBox="0 0 500 174"><g fill="none"><g fill="#333"><path d="M207.523 60.805c1.212 1.844 2.925 3.305 4.938 4.211 1.94.901 4.053 1.371 6.192 1.378 1.233-.008 2.459-.196 3.638-.557 1.213-.358 2.355-.923 3.375-1.672 1.013-.736 1.861-1.674 2.492-2.755.662-1.152.994-2.464.96-3.793.114-1.762-.595-3.477-1.92-4.644-1.445-1.141-3.066-2.04-4.799-2.663-1.904-.728-3.994-1.424-6.192-2.09-2.18-.647-4.262-1.584-6.192-2.786-1.931-1.218-3.565-2.852-4.783-4.783-1.438-2.466-2.141-5.291-2.028-8.142.032-1.683.373-3.347 1.006-4.907.686-1.784 1.741-3.404 3.096-4.752 1.602-1.543 3.483-2.767 5.542-3.607 2.584-1.023 5.349-1.512 8.127-1.44 2.793-.014 5.573.382 8.251 1.176 2.734.879 5.14 2.562 6.904 4.83l-5.789 5.279c-.949-1.428-2.257-2.581-3.793-3.344-1.73-.86-3.641-1.29-5.573-1.254-1.68-.054-3.355.208-4.938.774-1.162.446-2.217 1.132-3.096 2.012-.747.741-1.319 1.64-1.672 2.632-.303.834-.465 1.713-.48 2.601-.13 1.908.576 3.778 1.935 5.124 1.397 1.258 3.02 2.24 4.783 2.895 2.024.789 4.091 1.46 6.192 2.012 2.161.567 4.241 1.404 6.192 2.492 1.897 1.057 3.532 2.528 4.783 4.303 1.404 2.232 2.08 4.844 1.935 7.477.041 2.357-.457 4.692-1.455 6.827-.913 1.971-2.244 3.719-3.901 5.124-1.702 1.436-3.669 2.525-5.789 3.204-2.303.754-4.713 1.131-7.136 1.115-3.277.011-6.527-.593-9.582-1.78-2.889-1.097-5.396-3.012-7.214-5.511l5.991-4.985zm56.904-18.421h-9.582v15.975c0 .991 0 1.966.077 2.926.029.893.217 1.774.557 2.601.322.758.861 1.404 1.548 1.858.883.535 1.911.784 2.941.712.821-.003 1.639-.081 2.446-.232.809-.134 1.589-.407 2.307-.805v6.084c-.965.5-2.015.815-3.096.929-.974.148-1.956.236-2.941.263-2.054.105-4.104-.266-5.991-1.084-1.282-.606-2.359-1.575-3.096-2.786-.679-1.169-1.086-2.476-1.192-3.824-.124-1.414-.186-2.838-.186-4.272v-18.344h-7.74v-5.805h7.74v-9.876h6.687v9.876h9.582l-.062 5.805zm10.263-1.486c1.885-1.737 4.109-3.065 6.533-3.901 2.385-.851 4.898-1.291 7.43-1.3 2.257-.054 4.507.27 6.656.96 1.682.551 3.235 1.435 4.567 2.601 1.155 1.029 2.055 2.311 2.632 3.746.572 1.406.867 2.909.867 4.427v21.394c0 1.037.124 2.043.232 2.972h-5.944c-.155-1.785-.232-3.566-.232-5.341h-.139c-1.268 2.076-3.098 3.751-5.279 4.83-2.221.981-4.631 1.462-7.059 1.409-1.572.007-3.137-.217-4.644-.666-1.419-.411-2.744-1.095-3.901-2.012-1.115-.89-2.019-2.016-2.647-3.297-.672-1.454-1-3.043-.96-4.644-.067-2.016.472-4.006 1.548-5.712 1.065-1.563 2.494-2.843 4.164-3.731 1.937-1.024 4.029-1.725 6.192-2.074 2.495-.432 5.022-.645 7.554-.635h4.892v-1.548c.01-3.009-1.837-5.712-4.644-6.796-1.186-.447-2.448-.662-3.715-.635-1.136-.017-2.27.108-3.375.372-.91.225-1.796.536-2.647.929-.761.356-1.483.792-2.152 1.3l-1.858 1.409-4.071-4.056zm18.87 13.932c-1.624.004-3.246.092-4.861.263-1.548.146-3.071.484-4.536 1.006-1.259.425-2.403 1.135-3.344 2.074-.883.914-1.353 2.151-1.3 3.421-.148 1.72.63 3.389 2.043 4.381 1.673.972 3.594 1.435 5.526 1.331 1.598.04 3.184-.278 4.644-.929 1.201-.56 2.26-1.386 3.096-2.415.789-.972 1.374-2.094 1.718-3.297.334-1.173.506-2.387.511-3.607v-2.198l-3.498-.031zm19.536-18.251h6.687v5.433h.155c.908-1.989 2.448-3.622 4.381-4.644 2.215-1.19 4.7-1.787 7.214-1.734 1.652-.009 3.294.253 4.861.774 1.553.509 2.975 1.355 4.164 2.477 1.222 1.18 2.173 2.611 2.786 4.195.732 1.932 1.085 3.987 1.037 6.053v22.663h-6.765v-20.805c.036-1.427-.189-2.849-.666-4.195-.379-1.059-.987-2.021-1.78-2.817-.726-.707-1.605-1.237-2.57-1.548-.968-.324-1.982-.486-3.003-.48-1.32-.016-2.631.21-3.87.666-1.186.451-2.247 1.178-3.096 2.121-.954 1.057-1.667 2.309-2.09 3.669-.528 1.709-.778 3.491-.743 5.279v18.111h-6.687l-.015-35.217zm76.61 35.217h-6.687v-5.046h-.139c-1.328 1.951-3.171 3.494-5.325 4.458-2.176 1.018-4.548 1.546-6.95 1.548-2.532.039-5.044-.441-7.384-1.409-2.143-.918-4.065-2.286-5.635-4.009-1.574-1.701-2.799-3.695-3.607-5.867-.853-2.33-1.278-4.795-1.254-7.276-.023-2.496.402-4.976 1.254-7.322.797-2.178 2.024-4.173 3.607-5.867 1.591-1.661 3.51-2.973 5.635-3.854 2.34-.968 4.852-1.447 7.384-1.409 2.465-.031 4.906.498 7.136 1.548 2.087.94 3.868 2.447 5.139 4.35h.139v-26.006h6.687v56.161zm-18.282-5.341c1.657.025 3.301-.291 4.83-.929 1.376-.577 2.616-1.436 3.638-2.523 1.031-1.114 1.817-2.433 2.307-3.87 1.093-3.201 1.093-6.675 0-9.876-.489-1.437-1.275-2.756-2.307-3.87-1.018-1.092-2.259-1.952-3.638-2.523-3.101-1.239-6.559-1.239-9.659 0-1.377.575-2.617 1.435-3.638 2.523-1.025 1.119-1.81 2.436-2.307 3.87-1.093 3.201-1.093 6.675 0 9.876.496 1.434 1.281 2.751 2.307 3.87 1.026 1.082 2.264 1.941 3.638 2.523 1.529.637 3.173.953 4.83.929zm28.529-25.557c1.892-1.736 4.121-3.064 6.548-3.901 2.385-.851 4.898-1.291 7.43-1.3 2.252-.054 4.497.27 6.641.96 1.708.543 3.288 1.428 4.644 2.601 1.145 1.037 2.044 2.317 2.632 3.746.567 1.407.856 2.91.851 4.427v17.988c0 1.238 0 2.368.077 3.406.077 1.037.124 2.043.217 2.972h-5.944c-.139-1.78-.217-3.56-.217-5.341h-.232c-1.263 2.075-3.088 3.75-5.263 4.83-2.222.978-4.631 1.459-7.059 1.409-1.572.006-3.137-.219-4.644-.666-1.419-.411-2.744-1.095-3.901-2.012-1.115-.887-2.014-2.014-2.632-3.297-.684-1.45-1.019-3.041-.975-4.644-.067-2.016.472-4.006 1.548-5.712 1.048-1.56 2.462-2.841 4.118-3.731 1.937-1.024 4.029-1.725 6.192-2.074 2.489-.432 5.012-.645 7.539-.635h4.907v-1.548c-.004-.918-.182-1.827-.526-2.678-.733-1.901-2.242-3.399-4.149-4.118-1.187-.444-2.448-.66-3.715-.635-1.141-.017-2.28.108-3.39.372-.904.227-1.785.538-2.632.929-.763.352-1.485.789-2.152 1.3l-1.858 1.409-4.056-4.056zm18.885 13.932c-1.629.004-3.256.092-4.876.263-1.547.148-3.071.486-4.536 1.006-1.259.425-2.403 1.135-3.344 2.074-.883.914-1.353 2.151-1.3 3.421-.148 1.72.63 3.389 2.043 4.381 1.679.973 3.604 1.435 5.542 1.331 1.598.041 3.185-.277 4.644-.929 1.203-.558 2.262-1.384 3.096-2.415.784-.973 1.363-2.095 1.703-3.297.347-1.171.524-2.386.526-3.607v-2.198l-3.498-.031zm19.536-18.251h6.687v5.433h.155c.444-.951 1.046-1.82 1.78-2.57.735-.769 1.573-1.431 2.492-1.966.944-.554 1.953-.991 3.003-1.3 1.06-.318 2.16-.48 3.266-.48 1.008-.016 2.011.13 2.972.433l-.294 7.214c-.539-.155-1.087-.279-1.641-.372-.511-.093-1.029-.145-1.548-.155-2.779-.181-5.506.819-7.508 2.755-1.734 1.827-2.601 4.675-2.601 8.545v17.678h-6.687l-.077-35.217zm61.455 35.217h-6.687v-5.046h-.155c-1.339 1.959-3.2 3.503-5.372 4.458-2.176 1.017-4.548 1.545-6.95 1.548-2.532.039-5.044-.441-7.384-1.409-2.145-.895-4.072-2.241-5.65-3.947-1.579-1.698-2.805-3.692-3.607-5.867-.843-2.357-1.242-4.85-1.176-7.353-.025-2.498.405-4.979 1.269-7.322.79-2.181 2.017-4.177 3.607-5.867 1.585-1.657 3.499-2.964 5.619-3.839 2.34-.968 4.852-1.447 7.384-1.409 2.465-.03 4.905.499 7.136 1.548 2.082.94 3.858 2.448 5.124 4.35h.155v-26.006h6.687v56.161zm-18.282-5.341c1.657.024 3.3-.292 4.83-.929 1.373-.582 2.612-1.441 3.638-2.523 1.003-1.124 1.767-2.441 2.245-3.87 1.093-3.201 1.093-6.675 0-9.876-.496-1.434-1.281-2.751-2.307-3.87-1.021-1.088-2.261-1.948-3.638-2.523-3.101-1.239-6.559-1.239-9.659 0-1.377.575-2.617 1.435-3.638 2.523-1.025 1.119-1.81 2.436-2.307 3.87-1.093 3.201-1.093 6.675 0 9.876.496 1.434 1.281 2.751 2.307 3.87 1.062 1.097 2.344 1.957 3.762 2.523 1.51.629 3.132.945 4.768.929zM205.959 99.691h7.137v45.913h24.148v6.687h-31.285zM243.25 104.443c-.016-1.988 1.177-3.788 3.015-4.547 1.838-.759 3.953-.326 5.344 1.095 1.537 1.569 1.835 3.971.73 5.868-1.106 1.897-3.343 2.821-5.465 2.257-2.122-.564-3.606-2.477-3.623-4.673zm1.548 12.632h6.687v35.217h-6.687v-35.217zm15.836-20.944h6.703v26.006h.139c1.266-1.902 3.041-3.41 5.124-4.35 2.231-1.049 4.671-1.578 7.136-1.548 2.537-.038 5.054.441 7.399 1.409 2.132.897 4.056 2.225 5.65 3.901 1.579 1.695 2.8 3.69 3.591 5.867.864 2.343 1.295 4.824 1.269 7.322.027 2.482-.404 4.949-1.269 7.276-.802 2.171-2.023 4.165-3.591 5.867-1.584 1.7-3.509 3.045-5.65 3.947-2.345.968-4.863 1.447-7.399 1.409-2.402-.005-4.774-.533-6.95-1.548-2.14-.943-3.977-2.459-5.31-4.381h-.139v5.046h-6.703v-56.223zm18.282 50.82c1.657.024 3.3-.292 4.83-.929 1.377-.584 2.62-1.443 3.653-2.523 1.015-1.124 1.794-2.44 2.291-3.87 1.093-3.201 1.093-6.675 0-9.876-.497-1.43-1.276-2.746-2.291-3.87-1.031-1.084-2.274-1.943-3.653-2.523-3.101-1.239-6.559-1.239-9.659 0-1.377.575-2.617 1.435-3.638 2.523-1.025 1.119-1.81 2.436-2.307 3.87-1.078 3.204-1.078 6.672 0 9.876.496 1.434 1.281 2.751 2.307 3.87 1.026 1.082 2.264 1.941 3.638 2.523 1.529.637 3.173.953 4.83.929zm27.121-29.876h6.656v5.433h.155c.45-.947 1.051-1.815 1.78-2.57.738-.765 1.576-1.427 2.492-1.966.944-.554 1.953-.991 3.003-1.3 1.06-.317 2.16-.479 3.266-.48 1.008-.016 2.011.13 2.972.433l-.263 7.214c-.509-.151-1.026-.275-1.548-.372-3.286-.561-6.649.395-9.149 2.601-1.806 1.827-2.709 4.696-2.709 8.607v17.616h-6.656v-35.217zm27.647 4.319c1.885-1.737 4.109-3.065 6.533-3.901 2.385-.851 4.898-1.291 7.43-1.3 2.257-.054 4.507.27 6.656.96 1.709.541 3.29 1.426 4.644 2.601 1.155 1.029 2.055 2.311 2.632 3.746.572 1.406.867 2.909.867 4.427v21.394c0 1.037.124 2.043.232 2.972h-5.944c-.155-1.775-.232-3.555-.232-5.341h-.139c-1.268 2.076-3.098 3.751-5.279 4.83-2.221.981-4.631 1.462-7.059 1.409-1.572.007-3.137-.217-4.644-.666-1.419-.411-2.744-1.095-3.901-2.012-1.12-.889-2.03-2.015-2.663-3.297-.672-1.454-1-3.043-.96-4.644-.06-2.015.479-4.003 1.548-5.712 1.035-1.549 2.425-2.829 4.056-3.731 1.937-1.024 4.029-1.725 6.192-2.074 2.495-.432 5.022-.645 7.554-.635h4.892v-1.548c.01-3.009-1.837-5.712-4.644-6.796-1.186-.447-2.448-.662-3.715-.635-1.136-.017-2.27.108-3.375.372-.91.225-1.796.536-2.647.929-.761.356-1.483.792-2.152 1.3l-1.858 1.409-4.025-4.056zm18.87 13.932c-1.624.005-3.246.093-4.861.263-1.548.146-3.071.484-4.536 1.006-1.259.425-2.403 1.135-3.344 2.074-.883.914-1.353 2.151-1.3 3.421-.159 1.731.62 3.414 2.043 4.412 1.673.972 3.594 1.435 5.526 1.331 1.598.04 3.184-.278 4.644-.929 1.201-.56 2.26-1.386 3.096-2.415.789-.972 1.374-2.094 1.718-3.297.334-1.173.506-2.387.511-3.607v-2.229l-3.498-.031zm19.536-18.251h6.687v5.433h.155c.45-.947 1.051-1.815 1.78-2.57.738-.765 1.576-1.427 2.492-1.966.944-.554 1.953-.991 3.003-1.3 1.065-.318 2.17-.48 3.282-.48 1.007-.014 2.011.132 2.972.433l-.31 7.214c-.535-.153-1.077-.277-1.625-.372-3.286-.561-6.649.395-9.149 2.601-1.734 1.827-2.601 4.675-2.601 8.545v17.678h-6.687v-35.217zm27.802 0h7.74l10.433 27.492h.139l10-27.492h7.136l-16.718 42.802c-.543 1.429-1.158 2.829-1.842 4.195-.594 1.193-1.372 2.285-2.307 3.235-.912.914-2.01 1.621-3.22 2.074-1.488.537-3.063.789-4.644.743-1.004-.001-2.007-.063-3.003-.186-1.007-.12-1.991-.38-2.926-.774l.82-6.099c1.258.537 2.611.816 3.978.82.894.021 1.785-.115 2.632-.402.691-.263 1.319-.669 1.842-1.192.523-.537.956-1.153 1.285-1.827.389-.77.735-1.56 1.037-2.368l2.167-5.573-14.551-35.449z"/></g><path fill="#F9AA3F" d="M112.074 10.511l6.935 6.935-69.257 69.241-32.307-32.322 43.854-43.854c14.027-14.006 36.747-14.006 50.774 0z"/><path fill="#986EB0" d="M123.622 86.687l32.307 32.322-43.854 43.854c-14.027 14.006-36.747 14.006-50.774 0l-6.935-6.935 69.257-69.241z"/><path fill="#4DBC88" d="M128.235 26.672l34.628 34.628c14.006 14.027 14.006 36.747 0 50.774l-6.935 6.935-59.954-60.015 32.26-32.322z"/><path fill="#ED4D41" d="M17.446 54.365l59.954 60.015-32.26 32.322-34.628-34.628c-14.006-14.027-14.006-36.747 0-50.774l6.935-6.935z"/><path fill="#EE8229" d="M17.446 54.381l46.161 18.452-13.855 13.854z"/><path fill="#7650A0" d="M155.929 119.009l-46.161-18.467 13.854-13.855z"/></g></svg>