<svg xmlns="http://www.w3.org/2000/svg" width="500" height="151" viewBox="0 0 500 151"><g fill="none"><path fill="#2A2BFF" d="M209.534 40.249h-13.596v17.895h-11.164v11.388h11.155v45.896h13.605v-45.896h11.038v-11.388h-11.038v-17.895zm44.85 16.153c-17.43 0-28.825 12.432-28.825 30.443 0 18.126 11.62 30.092 28.583 30.092 11.855 0 21.848-5.924 26.146-16.035l-11.5-4.533c-2.559 5.347-7.437 8.716-14.645 8.716-7.666 0-14.64-3.834-15.569-13.246h43.923v-5.111c0-18.363-11.155-30.327-28.119-30.327h.007zm-15.571 25.795c1.162-9.296 6.855-14.292 15.22-14.292 8.252 0 13.947 4.647 14.529 14.292h-29.749zm85.931-24.052l-12.315 19.752c-4.302-6.855-8.718-13.827-13.014-19.752h-16.271l20.567 29.163-19.993 28.121h15.573l12.082-19.058c3.718 5.928 8.599 13.596 12.548 19.058h16.153l-19.861-28.237 20.325-29.047h-15.795zm71.794-28.581c-4.88 0-8.598 3.834-8.598 8.714 0 4.88 3.718 8.716 8.598 8.716 4.764-.069 8.589-3.951 8.589-8.715 0-4.764-3.825-8.646-8.589-8.715zm-27.655 10.686h-13.489v17.895h-11.155v11.388h11.155v45.896h13.489v-45.896h20.684v45.896h13.708v-57.28h-34.392v-17.899zm49.496 75.179h13.712v-86.334h-13.712v86.334zm81.569-28.699c0-18.359-11.155-30.327-28.119-30.327-17.428 0-28.816 12.432-28.816 30.443 0 18.126 11.62 30.092 28.583 30.092 11.853 0 21.846-5.924 26.144-16.035l-11.5-4.533c-2.559 5.347-7.437 8.716-14.643 8.716-7.666 0-14.649-3.83-15.573-13.254h43.921l.004-5.103zm-43.688-4.533c1.16-9.296 6.855-14.292 15.22-14.292 8.25 0 13.945 4.647 14.527 14.292h-29.747z"/><path fill="#FFB6D5" d="M150.287 85.855h.041l-.041.041v64.35h-150.113v-150.113h150.113v85.722zm0 0h-42.849v42.89l42.849-42.849v-.041zm-107.182 21.445h42.888l-42.888-42.89v42.89zm21.443-85.778l-21.443 21.434h21.443v-21.434z"/><path fill="#FFCD00" d="M21.66 107.3v21.445h21.445v-21.445h-21.445zm21.445 21.445h21.443l21.445-21.445h-21.445l-21.443 21.445zm64.333-64.335h-21.445v21.445h21.445v-21.445zm0 64.335v-21.445l-21.445-21.445v21.445l21.445 21.445zm-21.445-85.78v-21.434h-21.445v21.434h21.445zm-21.445-21.434h-21.443l-21.445 21.434h21.445l21.443-21.434z"/><path fill="#FF0034" d="M43.105 128.745l21.443-21.445h-21.443v21.445zm-21.445 0v-21.445h-21.445l21.445 21.445zm85.778-21.445v-21.445h-21.445l21.445 21.445zm-21.445-42.89h21.445v-21.445l-21.445 21.445zm0-21.445h21.445l-21.445-21.434v21.434zm-21.445 42.89v-42.89h-42.888l42.888 42.89z"/></g></svg>