<svg xmlns="http://www.w3.org/2000/svg" width="497" height="74" viewBox="0 0 497 74"><path fill="#575669" d="M461.025 73.546h9.521v-27.83c0-1.004.106-1.872.337-2.702.223-.826.567-1.621 1.074-2.461l9.496-15.709c4.504-7.472 9.021-14.94 13.535-22.408l1.475-2.436h-12.128l-.514.858c-6.014 9.947-12.021 19.901-18.039 29.858-6.014-9.957-12.021-19.911-18.043-29.865l-.518-.851h-12.117l1.472 2.436c5.76 9.526 11.515 19.054 17.266 28.585l2.972 4.922c.993 1.638 1.986 3.277 2.961 4.929.177.295.334.602.468.918.265.593.462 1.214.585 1.851.139.683.204 1.378.195 2.074v27.83zm-35.266-.007h-11.053l-.39-.957c-2.429-6.085-4.844-12.177-7.262-18.27l-2.645-6.667c-1.408-3.539-4.621-5.805-8.227-5.805h-23.191v31.702h-9.514v-73.543h37.06c1.702 0 3.404.035 5.092.238.879.106 1.752.255 2.61.461 2.504.588 4.861 1.684 6.926 3.22.734.55 1.436 1.156 2.078 1.816 1.312 1.326 2.426 2.862 3.326 4.528.933 1.734 1.631 3.61 2.11 5.546.919 3.778 1.018 7.709.291 11.528-.181.935-.412 1.859-.691 2.77-.202.631-.426 1.252-.667 1.862-.364.91-.795 1.791-1.287 2.638-.704 1.205-1.549 2.322-2.518 3.326-.872.884-1.85 1.657-2.911 2.301-.631.39-1.28.738-1.947 1.06l6.599 16.621 6.213 15.624zm-52.759-42.553h27.66c1.447 0 2.897 0 4.344-.128 5.525 0 7.741-3.723 8.131-8.589.457-5.709-1.344-10.741-7.571-11.241-1.348-.142-2.702-.177-4.05-.177l-28.514.007v20.128zm-29.355 42.557h10.071l-29.071-73.543h-6.043c-1.057 0-2.113.011-3.17.082-1.009.057-2.013.195-3 .411-1 .23-1.979.567-2.908 1.025-1.003.498-1.941 1.119-2.791 1.848-.869.746-1.656 1.583-2.348 2.496-.666.883-1.264 1.816-1.787 2.791-.506.938-.97 1.899-1.39 2.879-.397.922-.766 1.851-1.135 2.787l-23.479 59.22h11.057l.383-.961c3.557-8.972 7.11-17.943 10.674-26.918 3.647-9.235 7.303-18.467 10.968-27.695.216-.532.433-1.074.66-1.606.213-.496.434-.987.663-1.475.231-.477.482-.944.752-1.401.195-.319.404-.631.638-.918l.011-.011.011-.014c.206-.263.442-.502.702-.713l.053-.046.053-.046.199-.142.252-.142.05-.021.44-.188c.137-.051.278-.089.422-.113l.089-.014.089-.028c.089-.025.262-.06.528-.092l.032-.004.028-.007c.216-.035.5-.064.773-.082.365-.014.745-.032 1.099-.035h.66c4.372 11.046 8.738 22.099 13.106 33.149 3.766 9.525 7.525 19.043 11.294 28.56l.383.968h.982zm-98.78 0h9.518v-62.681h23.943v-10.862h-57.404v10.862h23.943v62.681zm-60.184-73.543c-2.418 0-4.837.167-7.223.567-2.171.355-4.299.934-6.351 1.727-1.927.749-3.758 1.725-5.454 2.908-1.665 1.171-3.178 2.544-4.504 4.089-1.363 1.6-2.536 3.353-3.496 5.223-1.031 2.014-1.862 4.125-2.482 6.301-.691 2.394-1.167 4.858-1.479 7.34-.337 2.776-.503 5.569-.496 8.365l-.004.401c0 2.652.138 5.525.479 8.34.305 2.521.77 4.996 1.454 7.411.621 2.191 1.426 4.337 2.454 6.358.957 1.879 2.11 3.656 3.461 5.241 1.323 1.553 2.837 2.922 4.475 4.078 1.702 1.191 3.546 2.152 5.461 2.897 2.055.79 4.185 1.368 6.358 1.723 1.793.303 3.604.483 5.422.539.553.018 1.035.021 1.496.021 2.73.018 4.709.011 6.801.011h19.447v-1.833c0-1.851.004-5.34.014-7.188l.011-1.844h-12.979c-4.266 0-8.387.007-13.369-.007-.333 0-.674 0-1.11-.014-.497-.017-.994-.044-1.489-.082-.903-.066-1.802-.175-2.695-.326-1.516-.247-3.002-.649-4.436-1.199-.607-.238-1.202-.508-1.78-.809-.531-.289-1.045-.609-1.539-.957l-.011-.004-.007-.007c-.467-.32-.909-.676-1.323-1.064-.873-.784-1.639-1.681-2.277-2.667l-.007-.011-.007-.014c-.353-.536-.68-1.088-.979-1.656-.681-1.381-1.232-2.822-1.645-4.305-.243-.875-.454-1.758-.631-2.649-.198-.994-.36-1.994-.486-3-.131-1.089-.206-2.234-.284-3.365-.068-1.374-.1-2.749-.096-4.124-.001-2.306.132-4.61.397-6.901.255-1.897.603-3.78 1.128-5.613.426-1.475.965-2.915 1.66-4.266.559-1.11 1.253-2.146 2.067-3.085l.011-.011.007-.007c.365-.436.741-.83 1.167-1.191l.014-.014c.314-.294.645-.569.993-.823.542-.404 1.109-.772 1.699-1.103.641-.358 1.31-.664 2-.915l.018-.007.021-.007c.667-.277 1.355-.489 2.05-.674.78-.209 1.574-.376 2.362-.507.887-.149 1.773-.252 2.706-.323.877-.065 1.756-.099 2.635-.103 4.94-.014 9.064-.011 13.33-.007h12.957v-10.862h-25.915zm-97.447 73.543h55.631v-10.862h-45.443v-20.837h37.426v-10.152h-37.426v-20.83h45.443v-10.862h-55.631v73.543zm-57.16 0h5.06c1.305 0 2.61-.018 3.911-.142.628-.06 1.252-.145 1.872-.27 1.944-.381 3.777-1.193 5.365-2.376 1.152-.862 2.175-1.884 3.039-3.035.417-.543.806-1.107 1.163-1.691.359-.588.695-1.19 1.007-1.805.298-.578.578-1.163.84-1.759.262-.596.511-1.199.759-1.801.773-1.904 1.518-3.819 2.27-5.734l2.27-5.734c1.518-3.819 3.028-7.642 4.543-11.465l3.521-8.883 3.521-8.887 3.525-8.883 3.525-8.883.872-2.195h-11.071l-.383.965c-3.55 8.954-7.099 17.908-10.642 26.865l-11.046 27.862c-.223.564-.447 1.124-.684 1.681-.367.856-.779 1.691-1.234 2.504-.165.283-.344.557-.535.823-.262.37-.565.709-.904 1.011l-.273.202-.025.014-.021.014-.213.124-.298.142-.177.071-.025.007c-.663.161-1.336.276-2.014.344h-.018l-.021.004c-.566.039-1.134.056-1.702.05l-24.791-62.681h-11.06l.869 2.195c9.277 23.457 18.546 46.915 27.84 70.379l.383.968h.982z"/></svg>