<svg height="136" viewBox="0 0 500 136" width="500" xmlns="http://www.w3.org/2000/svg" xmlns:xlink="http://www.w3.org/1999/xlink"><linearGradient id="a" x1="50.24%" x2="78.127%" y1="45.694%" y2="64.152%"><stop offset="0" stop-color="#6508f7"/><stop offset=".54167" stop-color="#fb8e8e"/><stop offset="1" stop-color="#fff"/></linearGradient><path d="m118.688183 8.92393419h-28.1995982l-31.0552539 85.84814461h-.1784785l-29.6274262-85.84814461h-29.6274262l46.9398379 124.93492981h20.8819811zm38.520674 124.93492981v-93.8796759h-25.343943v93.8796759zm0-106.9086042v-21.59589503h-25.343943v21.59589503zm67.51413 10.8871867c-28.735034 0-49.260616 21.4174165-49.260616 49.0815795s20.525582 49.08158 49.260616 49.08158c28.556555 0 49.081579-21.417417 49.081579-49.08158s-20.525024-49.0815795-49.081579-49.0815795zm23.202201 49.0815795c0 15.349149-9.280881 27.307206-23.202201 27.307206-13.921321 0-23.38068-11.958057-23.38068-27.307206 0-15.3491485 9.459359-27.307206 23.38068-27.307206 13.92132 0 23.202201 11.9580575 23.202201 27.307206zm69.46159-86.919026h-25.343943v133.858864h25.343943zm109.991076 93.1657725c.713914-3.7480479 1.249349-8.2100096 1.249349-11.9580575 0-24.986986-19.275675-43.3702685-45.333532-43.3702685-26.950249 0-47.653751 21.7743735-47.653751 50.1524504 0 28.1995981 19.097196 48.0107091 47.475273 48.0107091 20.168067 0 32.126125-7.496096 42.834833-23.023723l-16.598498-11.244144c-6.068268 8.923924-12.315014 13.921321-24.45155 13.921321-13.385886 0-21.774374-9.637838-23.559158-22.4882875zm-64.787685-17.3124117c2.677177-10.5302298 9.28088-18.204804 21.417416-18.204804 10.351752 0 18.204804 6.9606604 18.74024 18.204804zm134.732654-14.8137131v-21.0604596h-23.916115v-20.7035026h-21.417417l-3.926526 20.7035026h-11.244144v21.0604596h11.244144v39.0867853c0 5.532832.356957 11.065665 1.784785 15.706105 3.391091 12.136536 13.207406 20.168068 27.842641 20.168068 7.317617 0 16.241541-1.963264 22.309809-5.532833l-7.853053-18.740239c-3.212612 1.606306-6.246746 2.677177-10.173273 2.677177-5.354354 0-7.496095-3.391091-8.210009-8.923924-.356957-2.677177-.356957-5.175876-.356957-8.0315312v-36.4096081z" fill="url(#a)"/></svg>