<svg height="103" viewBox="0 0 500 103" width="500" xmlns="http://www.w3.org/2000/svg"><g fill="none"><path d="m44.1588785 14.0186916c-24.2990654 0-44.1588785 19.8598131-44.1588785 44.1588785s19.8598131 44.1588789 44.1588785 44.1588789c17.5233645 0 32.7102804-10.2803742 39.7196262-25.0000004 2.8037383-5.8411215 4.2056074-12.1495327 4.2056074-19.1588785 0-6.7757009-1.635514-13.317757-4.2056074-19.1588785-7.0093458-14.7196262-22.1962617-25-39.7196262-25zm46.728972-14.0186916c-2.5700935 0-5.1401869.93457944-7.0093458 2.57009346-2.5700935 2.10280374-4.2056075 5.37383177-4.2056075 8.87850464 0 3.5046729 1.635514 6.775701 4.2056075 8.8785047 1.8691589 1.635514 4.4392523 2.5700935 7.0093458 2.5700935 6.3084112 0 11.4485985-5.140187 11.4485985-11.4485982 0-6.30841118-5.1401873-11.4485981-11.4485985-11.4485981z" fill="#008f8e"/><g fill="#132034"><path d="m179.439 71.963-11.916-36.683h-10.514l-11.682 36.683-10.748-36.449h-12.383l17.29 53.505h10.748l11.916-36.449 11.915 36.449h10.982l17.289-53.505h-12.149z"/><path d="m429.205607 33.8785047c-13.551401 0-25 9.8130841-27.570093 22.6635514-.46729 1.8691589-.46729 3.5046729-.46729 5.6074766 0 1.8691589.233645 3.7383178.46729 5.6074766 2.570093 12.8504673 14.018692 22.6635514 27.570093 22.6635514 7.710281 0 14.719627-3.0373831 19.859814-8.17757l-7.710281-7.7102804c-3.037383 3.0373832-7.476635 4.906542-12.149533 4.906542-7.476635 0-14.018691-4.906542-16.121495-11.682243h16.121495 5.607477 10.747664 11.448598c.46729-1.8691588.46729-3.5046729.46729-5.6074766 0-1.8691589-.233645-3.7383177-.46729-5.6074766-2.803739-12.8504673-14.018692-22.6635514-27.803739-22.6635514zm0 22.6635514h-16.121495c2.336449-6.775701 8.64486-11.682243 16.121495-11.682243 7.476636 0 14.018692 4.906542 16.121496 11.682243zm-192.289719-22.6635514c-15.420561 0-28.037383 12.6168224-28.037383 28.0373832 0 15.4205607 12.616822 28.0373831 28.037383 28.0373831s28.037383-12.6168224 28.037383-28.0373831c0-15.4205608-12.616822-28.0373832-28.037383-28.0373832zm0 45.3271028c-9.345795 0-17.056075-7.7102804-17.056075-17.0560748s7.71028-17.0560748 17.056075-17.0560748c9.345794 0 17.056075 7.7102804 17.056075 17.0560748s-7.710281 17.0560748-17.056075 17.0560748zm141.82243-39.4859813c-4.672897-3.7383178-10.747664-5.8411215-17.056075-5.8411215-15.420561 0-28.037383 12.6168224-28.037383 28.0373832 0 15.4205607 12.616822 28.0373831 28.037383 28.0373831s28.037383-12.6168224 28.037383-28.0373831v-48.8317524h-10.981308zm-17.056075 39.4859813c-9.345794 0-17.056075-7.7102804-17.056075-17.0560748s7.710281-17.0560748 17.056075-17.0560748 17.056075 7.7102804 17.056075 17.0560748-7.710281 17.0560748-17.056075 17.0560748zm-62.149533-44.8598131c-13.084112 0-23.831775 10.7476635-23.831775 23.8317757v30.8411215h12.149532v-30.8411215c0-6.5420561 5.373832-11.682243 11.682243-11.682243 6.542056 0 11.682243 5.3738318 11.682243 11.682243v30.8411215h12.149533v-30.8411215c0-13.0841122-10.747664-23.8317757-23.831776-23.8317757zm192.523365-.4672897c-13.084112 0-23.831776 10.7476635-23.831776 23.8317757v30.8411215h12.149533v-30.8411215c0-6.5420561 5.373832-11.682243 11.682243-11.682243h6.074766v-12.1495327z"/></g></g></svg>