<svg xmlns="http://www.w3.org/2000/svg" width="499" height="107" viewBox="0 0 499 107"><defs><linearGradient id="a" x1="56.576%" x2="29.57%" y1="54.272%" y2="36.737%"><stop offset="0%" stop-color="#29ABE2" stop-opacity="0"/><stop offset="100%" stop-color="#28AAC8" stop-opacity=".6"/></linearGradient><linearGradient id="b" x1="52.995%" x2="41.167%" y1="55.3%" y2="34.431%"><stop offset="0%" stop-color="#5AB4FF" stop-opacity="0"/><stop offset="100%" stop-color="#5A96BE" stop-opacity=".6"/></linearGradient></defs><g fill="none"><path fill="#91EBFA" d="M91.074 106.383h-91.074l13.617-22.053h77.457z"/><path fill="#5AA5FF" d="M2.064 0h89.34l-12.883 21.936h-76.457z"/><path fill="#64D2FA" d="M0 106.383l49.426-84.447h29.095l-49.34 84.447z"/><path fill="url(#a)" d="M73.181 84.33l-28.596 22.053h-15.404l12.883-22.053z"/><path fill="url(#b)" d="M36.787 43.574l34.979-10.053 6.755-11.585h-29.095z"/><g fill="#000"><path d="M131.298 76.107v-5.096l26.596-36.298h-26.596v-5.096h33.064v5.096l-26.404 36.298h26.393v5.096zM197.692 77.5c-4.224.129-8.367-1.176-11.755-3.702-3.078-2.294-5.425-5.431-6.755-9.032-1.331-3.756-1.99-7.717-1.947-11.702 0-7.092 1.727-13.004 5.181-17.734 3.454-4.73 8.518-7.092 15.191-7.085 13.894 0 20.84 8.489 20.84 25.468v.468h-35.298c.121 5.433 1.372 9.83 3.755 13.191 2.383 3.362 6.195 5.043 11.436 5.043 3.202.063 6.333-.948 8.894-2.872 2.428-1.752 4.086-4.374 4.628-7.319h5.745c-.711 4.464-3.054 8.505-6.574 11.34-3.397 2.624-7.844 3.936-13.34 3.936zm-14.351-28.064h29.17c0-5-1.252-8.936-3.755-11.809-2.504-2.872-6.191-4.291-11.064-4.255-4.567 0-8.113 1.56-10.638 4.681-2.522 3.248-3.835 7.273-3.713 11.383zm52.968 44.447v-64.266h5.468v7.032h.181c3.085-5.617 7.933-8.426 14.543-8.426 5.744-.212 11.202 2.509 14.489 7.223 3.532 4.962 5.368 10.932 5.234 17.021.077 6.2-1.782 12.269-5.319 17.362-3.149 4.897-8.627 7.793-14.447 7.638-2.907.081-5.779-.656-8.287-2.128-2.545-1.685-4.682-3.917-6.255-6.532h-.181v25l-5.426.074zm20.213-21.489c4.354.125 8.398-2.246 10.415-6.106 2.393-4.135 3.624-8.84 3.564-13.617.064-4.704-1.169-9.334-3.564-13.383-2.063-3.8-6.094-6.109-10.415-5.968-4.502-.166-8.753 2.075-11.16 5.883-2.663 4.05-4.036 8.813-3.936 13.66-.099 4.846 1.273 9.609 3.936 13.66 2.401 3.798 6.637 6.038 11.128 5.883l.032-.011zm36.915 21.489v-64.266h5.5v7.032h.181c3.085-5.617 7.933-8.426 14.543-8.426 5.744-.212 11.202 2.509 14.489 7.223 3.532 4.962 5.368 10.932 5.234 17.021.077 6.2-1.782 12.269-5.319 17.362-3.149 4.897-8.627 7.793-14.447 7.638-2.907.081-5.779-.656-8.287-2.128-2.545-1.685-4.682-3.917-6.255-6.532h-.138v25l-5.5.074zm20.213-21.489c4.354.125 8.398-2.246 10.415-6.106 2.402-4.129 3.644-8.83 3.596-13.606.064-4.704-1.169-9.334-3.564-13.383-2.063-3.8-6.094-6.109-10.415-5.968-4.502-.166-8.753 2.075-11.16 5.883-2.663 4.05-4.036 8.813-3.936 13.66-.099 4.846 1.273 9.609 3.936 13.66 2.4 3.788 6.625 6.022 11.106 5.872l.021-.011zm55.447 5.106c-4.224.129-8.367-1.176-11.755-3.702-3.078-2.294-5.425-5.431-6.755-9.032-1.331-3.756-1.99-7.717-1.947-11.702 0-7.092 1.727-13.004 5.181-17.734 3.454-4.73 8.518-7.092 15.191-7.085 13.894 0 20.84 8.489 20.84 25.468v.468h-35.298c.121 5.433 1.372 9.83 3.755 13.191 2.383 3.362 6.195 5.043 11.436 5.043 3.202.063 6.333-.948 8.894-2.872 2.428-1.752 4.086-4.374 4.628-7.319h5.745c-.711 4.464-3.054 8.505-6.574 11.34-3.404 2.624-7.851 3.936-13.34 3.936zm-14.351-28.064h29.17c0-5-1.252-8.936-3.755-11.809-2.504-2.872-6.191-4.291-11.064-4.255-4.567 0-8.113 1.56-10.638 4.681-2.522 3.248-3.835 7.273-3.713 11.383zM408.511 76.107v-66.862h5.319v66.862zM434.043 17.117v-7.957h7.223v7.968l-7.223-.011zm1.394 58.989v-46.489h5.319v46.489h-5.319zm27 0v-46.489h5.468v6.851l.181.181c2.837-5.617 7.589-8.426 14.255-8.426 5.248 0 9.23 1.773 11.947 5.319 2.716 3.546 4.074 8.053 4.074 13.521v29.043h-5.468v-30c.156-3.379-.986-6.691-3.191-9.255-2.515-2.468-5.962-3.748-9.479-3.521-3.516.227-6.77 1.941-8.947 4.712-2.33 3.298-3.532 7.261-3.426 11.298v26.766h-5.415z"/></g></g></svg>