<svg xmlns="http://www.w3.org/2000/svg" width="500" height="500" viewBox="0 0 500 500"><g fill="none"><path fill="#0336F4" fill-opacity="0" d="M0 0h500v500h-500z"/><g fill="#FFF"><path d="M350.679 139.809v94.666h50.528v-16.375h-33.135v-22.387h31.739v-16.375h-31.739v-23.155h33.135v-16.375h-50.528zM267.168 139.809h-17.545v59.874c0 5.86.598 10.616 1.793 14.268 1.195 3.652 2.561 6.497 4.098 8.535 1.025 1.359 2.39 2.824 4.098 4.395 1.708 1.571 3.735 3.036 6.083 4.395 2.348 1.359 5.037 2.484 8.068 3.376 3.031.892 6.339 1.338 9.925 1.338 6.489 0 12.145-1.38 16.968-4.14 4.824-2.76 8.602-6.051 11.334-9.873 2.22-3.142 3.692-6.688 4.418-10.637.726-3.949 1.089-7.835 1.089-11.656v-59.874h-17.545v59.874c0 1.189-.085 2.888-.256 5.096-.171 2.208-.768 4.416-1.793 6.624-1.025 2.208-2.647 4.14-4.866 5.796-2.22 1.656-5.379 2.484-9.477 2.484-4.098 0-7.257-.828-9.477-2.484-2.22-1.656-3.842-3.588-4.866-5.796-1.025-2.208-1.622-4.416-1.793-6.624-.171-2.208-.256-3.907-.256-5.096v-59.875zM177.225 139.809v94.666h46.003v-16.375h-28.641v-78.292h-17.362zM202.42 269.312l39.663 94.666h-19.32l-10.108-24.434h-33.905l-10.108 24.434h-19.32l39.407-94.666h13.691zm-6.59 24.991h-.257l-10.806 28.779h21.869l-10.806-28.779zm-104.577-154.497h18.542c2.624 0 5.228.043 7.81.128 2.582.086 5.101.342 7.556.768 2.455.427 4.826 1.152 7.112 2.175 2.286 1.024 4.445 2.431 6.477 4.222 2.37 2.132 4.296 4.797 5.778 7.995 1.481 3.199 2.222 6.418 2.222 9.659 0 2.985-.402 5.523-1.206 7.612-.804 2.089-1.778 3.838-2.921 5.245-1.143 1.407-2.307 2.516-3.492 3.326s-2.159 1.429-2.921 1.855c1.524.597 3.238 1.408 5.143 2.431 1.905 1.024 3.661 2.431 5.27 4.222 1.609 1.791 2.963 4.051 4.064 6.78s1.651 6.098 1.651 10.106c0 2.815-.339 5.395-1.016 7.74-.677 2.345-1.566 4.434-2.667 6.268-1.1 1.833-2.349 3.454-3.746 4.861-1.397 1.407-2.815 2.623-4.254 3.646-1.778 1.279-3.746 2.281-5.905 3.006-2.159.725-4.36 1.279-6.604 1.663-2.243.384-4.381.64-6.413.768-1.829.115-3.452.179-4.869.19l-.465.002h-25.146v-94.668h18.542zm26.526 53.015h-9.181v24.992h8.798c.85 0 2.253-.063 4.208-.191 1.956-.128 3.911-.574 5.866-1.339 1.955-.765 3.698-1.998 5.228-3.698 1.53-1.701 2.295-4.081 2.295-7.141 0-.935-.17-2.125-.51-3.57-.34-1.445-1.126-2.826-2.359-4.144s-2.975-2.465-5.228-3.443c-2.253-.977-5.292-1.466-9.117-1.466zm-2.061-36.352h-7.12v20.448h5.622c.999 0 2.331-.043 3.997-.128s3.29-.447 4.872-1.086c1.582-.639 2.956-1.661 4.122-3.067 1.166-1.406 1.749-3.387 1.749-5.943 0-2.812-.979-5.219-2.936-7.221-1.957-2.002-5.392-3.003-10.306-3.003zM110.023 329.054v34.924h17.385v-34.924l30.964-59.742h-19.162l-20.558 43.495-20.431-43.495h-19.035zM360.694 269.314c5.755 0 10.749.341 14.981 1.023 4.232.682 7.872 1.577 10.919 2.686 3.047 1.109 5.587 2.303 7.618 3.582 2.031 1.279 3.724 2.516 5.078 3.71 2.201 1.961 4.254 4.264 6.158 6.908 1.904 2.644 3.554 5.543 4.951 8.699 1.397 3.155 2.476 6.524 3.238 10.106s1.143 7.207 1.143 10.874c0 4.264-.529 8.443-1.587 12.537-1.058 4.093-2.56 7.931-4.507 11.513-1.947 3.582-4.317 6.822-7.11 9.722-2.793 2.9-5.882 5.288-9.268 7.164-2.2 1.194-4.549 2.196-7.046 3.006-2.497.81-5.099 1.45-7.808 1.919-2.708.469-5.459.788-8.252.959-2.793.171-5.501.256-8.125.256h-21.71l-.001-94.664zm-.673 16.659h-3.309v62.102h3.691c2.376 0 4.56-.064 6.554-.192 1.994-.129 3.881-.343 5.663-.642 1.781-.299 3.542-.748 5.281-1.347 1.74-.599 3.542-1.412 5.409-2.438 2.291-1.284 4.327-2.887 6.109-4.812 1.781-1.924 3.266-4.041 4.454-6.351 1.188-2.31 2.079-4.748 2.673-7.314.594-2.566.891-5.132.891-7.698 0-4.619-.912-8.981-2.736-13.087-1.825-4.106-4.264-7.528-7.318-10.265-3.648-3.336-7.742-5.496-12.281-6.48-4.539-.984-9.566-1.476-15.081-1.476zm-20.654-16.661l-.001.002h-.001l.002-.002zm-55.421-.001c5.46 0 9.98.512 13.563 1.535 3.582 1.023 6.738 2.644 9.468 4.861 1.364 1.109 2.708 2.41 4.03 3.902 1.323 1.492 2.517 3.198 3.583 5.117 1.066 1.919 1.919 4.029 2.559 6.332.64 2.303.96 4.819.96 7.548 0 1.535-.149 3.283-.448 5.245-.298 1.962-.81 3.966-1.535 6.013-.725 2.047-1.663 4.051-2.815 6.013-1.151 1.962-2.58 3.753-4.286 5.373-2.815 2.729-5.545 4.563-8.189 5.501-2.644.938-5.161 1.706-7.549 2.303l25.718 34.924h-21.24l-25.078-36.203h-.256v36.203h-17.529v-94.667zm-.538 16.662h-11.161v28.779h11.161c3.552 0 6.427-.531 8.625-1.592 2.199-1.061 3.911-2.334 5.137-3.82 1.226-1.486 2.029-3.057 2.41-4.712.381-1.655.571-3.12.571-4.393 0-1.273-.233-2.738-.698-4.393-.465-1.656-1.332-3.226-2.6-4.712-1.269-1.486-2.981-2.717-5.137-3.693-2.157-.976-4.926-1.464-8.308-1.464z"/></g></g></svg>